<?xml version="1.0" encoding="UTF-8"?>
<svg version="1.1" xmlns="http://www.w3.org/2000/svg" width="500" height="500">
<path d="M0 0 C1.56355284 0.3163386 3.12734431 0.63150071 4.69140625 0.9453125 C14.35831441 2.97530954 23.69982499 5.9934791 33.00146484 9.29150391 C34.71160653 9.89776229 36.42753109 10.4876659 38.14453125 11.07421875 C45.90117549 13.86744137 53.30674298 17.40684164 60.75 20.9375 C61.81613525 21.43975098 62.88227051 21.94200195 63.98071289 22.45947266 C69.6285299 25.17694746 74.91374906 28.06293217 80.04077148 31.67480469 C82.06818169 33.04611716 84.14035904 34.18730818 86.3125 35.3125 C101.77644123 43.75468629 115.21944713 57.00270972 128 69 C129.03060547 69.96679688 129.03060547 69.96679688 130.08203125 70.953125 C131.43319938 72.25682821 132.72647652 73.62034956 134 75 C134 75.66 134 76.32 134 77 C134.66 77 135.32 77 136 77 C164.09809301 103.42178633 183.18362147 145.43907521 193 182 C193.19577637 182.72396973 193.39155273 183.44793945 193.59326172 184.19384766 C198.75237519 203.63627091 200.50331603 222.93692111 200.39111328 243.01977539 C200.37503107 246.43090887 200.39106291 249.84085517 200.41015625 253.25195312 C200.4286593 272.99283973 198.47946607 291.99727849 193 311 C192.75765625 311.86206055 192.5153125 312.72412109 192.265625 313.61230469 C182.26510561 348.96953316 165.49502202 380.33076115 141.98046875 408.58984375 C139.99990653 410.94061594 139.99990653 410.94061594 138.36328125 413.31640625 C137.91339844 413.87199219 137.46351563 414.42757813 137 415 C136.34 415 135.68 415 135 415 C135 415.66 135 416.32 135 417 C134.34 417 133.68 417 133 417 C132.7834375 417.54140625 132.566875 418.0828125 132.34375 418.640625 C130.53500003 421.81645344 128.08276201 424.20728081 125.5 426.75 C125.00113281 427.25660156 124.50226563 427.76320313 123.98828125 428.28515625 C120.25341139 432 120.25341139 432 118 432 C118 432.66 118 433.32 118 434 C115.74592092 435.95981288 113.4867439 437.80400764 111.125 439.625 C110.47402344 440.140625 109.82304687 440.65625 109.15234375 441.1875 C104.26064401 445 104.26064401 445 102 445 C102 445.66 102 446.32 102 447 C99.97143555 448.60058594 99.97143555 448.60058594 97.13671875 450.484375 C96.10353516 451.17273438 95.07035156 451.86109375 94.00585938 452.5703125 C92.91080078 453.28960937 91.81574219 454.00890625 90.6875 454.75 C89.63498047 455.45382812 88.58246094 456.15765625 87.49804688 456.8828125 C69.19839103 469 69.19839103 469 64 469 C64 469.66 64 470.32 64 471 C54.51101591 475.58200944 44.91351274 479.45664559 35 483 C33.84242188 483.42152344 32.68484375 483.84304688 31.4921875 484.27734375 C23.59678637 487.0416173 15.60151452 489.24070135 7.5 491.3125 C5.95892578 491.71275391 5.95892578 491.71275391 4.38671875 492.12109375 C2.91138672 492.48847656 2.91138672 492.48847656 1.40625 492.86328125 C0.53291016 493.08282471 -0.34042969 493.30236816 -1.24023438 493.52856445 C-4 494 -4 494 -11 494 C-11 436.25 -11 378.5 -11 319 C17.215 318.505 17.215 318.505 46 318 C47.84352339 304.89900454 47.84352339 304.89900454 49.67895508 291.796875 C50.99702993 282.45098094 52.432449 273.15899191 54.26049805 263.8984375 C55.26270917 258.61507429 56.11593149 253.30441108 57 248 C34.56 248 12.12 248 -11 248 C-11.103125 238.3475 -11.20625 228.695 -11.3125 218.75 C-11.38078003 214.21523926 -11.38078003 214.21523926 -11.45043945 209.58886719 C-11.46506004 207.15821437 -11.47779698 204.72754918 -11.48828125 202.296875 C-11.51386108 201.06275879 -11.53944092 199.82864258 -11.5657959 198.55712891 C-11.57066849 188.74567135 -9.48173219 180.08983918 -3.3125 172.25 C-1 170 -1 170 1 170 C1 169.34 1 168.68 1 168 C2.47190305 167.19490898 3.95307067 166.40675426 5.4375 165.625 C6.26121094 165.18414062 7.08492188 164.74328125 7.93359375 164.2890625 C15.01786626 161.31096068 22.01457381 160.70940049 29.62890625 160.8046875 C30.40617065 160.80670166 31.18343506 160.80871582 31.98425293 160.81079102 C34.84373003 160.82112967 37.70312196 160.84905054 40.5625 160.875 C46.976875 160.91625 53.39125 160.9575 60 161 C60 141.2 60 121.4 60 101 C17.89884084 95.10263325 17.89884084 95.10263325 -24 100 C-24.85851562 100.19335938 -25.71703125 100.38671875 -26.6015625 100.5859375 C-32.16389855 101.9810511 -37.1898068 104.4136844 -42.3125 106.9375 C-43.33633789 107.44156372 -43.33633789 107.44156372 -44.38085938 107.95581055 C-48.31028509 109.95584952 -51.56755184 112.20527445 -55 115 C-55.66 115 -56.32 115 -57 115 C-57 115.66 -57 116.32 -57 117 C-58.71484375 118.65625 -58.71484375 118.65625 -60.9375 120.5 C-63.92045179 122.88926999 -63.92045179 122.88926999 -66 126 C-66.66 126 -67.32 126 -68 126 C-68.37125 126.7734375 -68.37125 126.7734375 -68.75 127.5625 C-70.39581616 130.77184151 -72.1976096 133.87585664 -74 137 C-74.66 137 -75.32 137 -76 137 C-76.11730469 137.54140625 -76.23460937 138.0828125 -76.35546875 138.640625 C-77.12371924 141.45288739 -78.20666329 144.05216926 -79.3125 146.75 C-88.36215648 170.21110365 -88.34056718 194.29037549 -88.625 219.125 C-88.74875 228.65375 -88.8725 238.1825 -89 248 C-109.46 248 -129.92 248 -151 248 C-151 271.43 -151 294.86 -151 319 C-130.54 319 -110.08 319 -89 319 C-89 376.75 -89 434.5 -89 494 C-94.37025533 494 -98.60150004 493.63905543 -103.6875 492.375 C-104.4101001 492.1996875 -105.1327002 492.024375 -105.87719727 491.84375 C-118.48281119 488.71078754 -131.06044461 485.14727499 -143 480 C-144.40916956 479.42077079 -145.81943862 478.84421317 -147.23046875 478.26953125 C-160.44180319 472.88155957 -160.44180319 472.88155957 -164 471 C-164 470.34 -164 469.68 -164 469 C-164.55558594 468.88140625 -165.11117187 468.7628125 -165.68359375 468.640625 C-177.31348289 465.42426443 -187.4026608 457.16186564 -197.10571289 450.32519531 C-198.72183604 449.19459646 -200.35891757 448.09405496 -202 447 C-202 446.34 -202 445.68 -202 445 C-202.70511719 444.7628125 -203.41023438 444.525625 -204.13671875 444.28125 C-207.50286868 442.77497827 -209.96983173 440.84415483 -212.8125 438.5 C-213.78832031 437.7059375 -214.76414062 436.911875 -215.76953125 436.09375 C-216.50558594 435.4028125 -217.24164063 434.711875 -218 434 C-218 433.34 -218 432.68 -218 432 C-218.66 432 -219.32 432 -220 432 C-220 431.34 -220 430.68 -220 430 C-220.84304687 429.64421875 -220.84304687 429.64421875 -221.703125 429.28125 C-224.51894042 427.71052303 -226.47955416 425.78528536 -228.75 423.5 C-229.54921875 422.7059375 -230.3484375 421.911875 -231.171875 421.09375 C-233 419 -233 419 -233 417 C-233.66 417 -234.32 417 -235 417 C-235 416.34 -235 415.68 -235 415 C-235.66 415 -236.32 415 -237 415 C-241 410.52941176 -241 410.52941176 -241 408 C-241.66 408 -242.32 408 -243 408 C-265.8171234 382.97321833 -282.18178374 349.2398514 -291.44775391 316.92285156 C-291.90934077 315.31566406 -292.39511278 313.71544833 -292.88671875 312.1171875 C-294.70499172 305.97931367 -295.90553527 299.7160512 -297.125 293.4375 C-297.29596191 292.5623877 -297.46692383 291.68727539 -297.64306641 290.78564453 C-297.80468262 289.92696777 -297.96629883 289.06829102 -298.1328125 288.18359375 C-298.27605957 287.42618896 -298.41930664 286.66878418 -298.56689453 285.88842773 C-299.8007674 277.65959465 -300.16910811 269.51694846 -300.203125 261.203125 C-300.20882507 260.09306091 -300.21452515 258.98299683 -300.22039795 257.83929443 C-300.2297983 255.49622535 -300.23636204 253.15314334 -300.24023438 250.81005859 C-300.24985871 247.30150902 -300.28089715 243.7935668 -300.3125 240.28515625 C-300.40025457 221.8098842 -299.00305429 203.791365 -294.25 185.875 C-293.99395996 184.8854834 -293.73791992 183.8959668 -293.47412109 182.87646484 C-286.00192149 154.75775349 -273.90621875 127.73842261 -257 104 C-256.34386719 103.07058594 -255.68773437 102.14117187 -255.01171875 101.18359375 C-250.54762416 94.95119761 -245.84233029 88.94144594 -241 83 C-240.49082031 82.35417969 -239.98164063 81.70835938 -239.45703125 81.04296875 C-238.35053856 79.65741925 -237.18232967 78.32142728 -236 77 C-235.34 77 -234.68 77 -234 77 C-233.67322266 76.18595703 -233.67322266 76.18595703 -233.33984375 75.35546875 C-231.54656042 72.20284529 -229.12900521 69.83305239 -226.5625 67.3125 C-226.02826416 66.78358154 -225.49402832 66.25466309 -224.94360352 65.7097168 C-219.90325828 60.78688293 -214.51935969 56.37413232 -209 52 C-207.18708609 50.47966009 -205.37458852 48.9588236 -203.5625 47.4375 C-188.86094318 35.43919974 -172.06747538 26.16088186 -155 18 C-153.53433594 17.29037109 -153.53433594 17.29037109 -152.0390625 16.56640625 C-106.22705363 -4.99613752 -49.32076305 -10.94307435 0 0 Z " fill="#210D81" transform="translate(300,5)"/>
<path d="M0 0 C4.29 0 8.58 0 13 0 C13 0.33 13 0.66 13 1 C8.545 1.495 8.545 1.495 4 2 C2.27726301 6.49012884 1.74330646 10.2248107 1.7215271 15.02352905 C1.7157347 15.70652529 1.7099423 16.38952153 1.70397437 17.09321463 C1.6870469 19.36866961 1.68410419 21.64392087 1.68115234 23.91943359 C1.67184914 25.5557708 1.66167989 27.19210328 1.65071106 28.82843018 C1.62344115 33.26180776 1.60827056 37.69515362 1.59528303 42.12859297 C1.57963934 46.76509706 1.55285305 51.4015365 1.5272522 56.03799438 C1.48048636 64.81384692 1.44373161 73.58971165 1.41057932 82.36562502 C1.37234244 92.35835888 1.32293637 102.35102777 1.27259517 112.34370685 C1.16930795 132.89575657 1.08003709 153.44784744 1 174 C2.98 174 4.96 174 7 174 C7 174.33 7 174.66 7 175 C4.69 175 2.38 175 0 175 C0 117.25 0 59.5 0 0 Z " fill="#271A72" transform="translate(289,324)"/>
<path d="M0 0 C0.99 0.33 1.98 0.66 3 1 C2.83701416 1.9288501 2.67402832 2.8577002 2.50610352 3.81469727 C1.79010021 8.85639931 1.87589737 13.88215997 1.90234375 18.96484375 C1.9037587 19.99815323 1.90517365 21.03146271 1.90663147 22.09608459 C1.91220161 25.3765866 1.92474859 28.65701883 1.9375 31.9375 C1.94251886 34.16992089 1.94708109 36.40234285 1.95117188 38.63476562 C1.96216125 44.08986731 1.9788695 49.54492867 2 55 C10.04934291 54.89256976 18.09858916 54.779951 26.14776421 54.66066074 C29.88510036 54.60543681 33.62244435 54.55201768 37.35986328 54.50268555 C40.96496615 54.45503413 44.56997285 54.40269108 48.17496109 54.34705925 C49.55208067 54.32663921 50.92922662 54.30792553 52.30639267 54.29092598 C54.231504 54.26687453 56.15652995 54.23625749 58.08154297 54.20532227 C59.17852509 54.18977798 60.2755072 54.1742337 61.4057312 54.15821838 C63.98453752 54.17103805 63.98453752 54.17103805 66 53 C66 53.66 66 54.32 66 55 C66.99 54.67 67.98 54.34 69 54 C69 54.66 69 55.32 69 56 C46.23 56 23.46 56 0 56 C0 37.52 0 19.04 0 0 Z " fill="#211170" transform="translate(289,196)"/>
<path d="M0 0 C0.66 0.33 1.32 0.66 2 1 C-0.7760079 4.59852875 -3.65354983 7.91774326 -7 11 C-7.66 11 -8.32 11 -9 11 C-9 11.99 -9 12.98 -9 14 C-9.99 14.66 -10.98 15.32 -12 16 C-12.79798218 18.41607417 -12.79798218 18.41607417 -13.1875 21.125 C-13.42533203 22.49011719 -13.42533203 22.49011719 -13.66796875 23.8828125 C-13.77753906 24.58148438 -13.88710938 25.28015625 -14 26 C-14.99 26 -15.98 26 -17 26 C-15.60790822 18.08705727 -13.53745461 10.22996369 -7 5 C-6.34 5 -5.68 5 -5 5 C-5 4.34 -5 3.68 -5 3 C-2.625 1.3125 -2.625 1.3125 0 0 Z " fill="#52438F" transform="translate(306,170)"/>
<path d="M0 0 C0.66 0 1.32 0 2 0 C1.50241613 11.74297942 -1.75636018 22.77089712 -5 34 C-5.33 34 -5.66 34 -6 34 C-5.67 29.05 -5.34 24.1 -5 19 C-4.34 19 -3.68 19 -3 19 C-3 16.03 -3 13.06 -3 10 C-2.34 10 -1.68 10 -1 10 C-1.01160156 9.36191406 -1.02320313 8.72382813 -1.03515625 8.06640625 C-1.04417969 7.24011719 -1.05320312 6.41382813 -1.0625 5.5625 C-1.07410156 4.73878906 -1.08570313 3.91507812 -1.09765625 3.06640625 C-1 1 -1 1 0 0 Z " fill="#534692" transform="translate(496,289)"/>
<path d="M0 0 C0.33 0 0.66 0 1 0 C2.89446549 11.73292188 4.54072832 23.08394997 4 35 C3.34 34.67 2.68 34.34 2 34 C1.60522461 32.00976562 1.60522461 32.00976562 1.40234375 29.40625 C1.32306641 28.4575 1.24378906 27.50875 1.16210938 26.53125 C1.08798828 25.5309375 1.01386719 24.530625 0.9375 23.5 C0.78078056 21.55201617 0.62323734 19.60409842 0.46484375 17.65625 C0.39120605 16.70621094 0.31756836 15.75617188 0.24169922 14.77734375 C0.01422672 12.16347793 -0.29154576 9.57138822 -0.62109375 6.96875 C-1 3 -1 3 0 0 Z " fill="#60539E" transform="translate(496,204)"/>
<path d="M0 0 C0 3.54135951 -0.66149371 4.23634582 -2.7734375 6.9765625 C-3.3509375 7.729375 -3.9284375 8.4821875 -4.5234375 9.2578125 C-5.43996094 10.42957031 -5.43996094 10.42957031 -6.375 11.625 C-7.27992188 12.80835938 -7.27992188 12.80835938 -8.203125 14.015625 C-12.72321429 19.86160714 -12.72321429 19.86160714 -15 21 C-15.33 19.68 -15.66 18.36 -16 17 C-15.01 17 -14.02 17 -13 17 C-13.33 16.01 -13.66 15.02 -14 14 C-13.34 14 -12.68 14 -12 14 C-11.7525 13.030625 -11.505 12.06125 -11.25 11.0625 C-10.8375 10.051875 -10.425 9.04125 -10 8 C-7.875 7.125 -7.875 7.125 -6 7 C-6 5.68 -6 4.36 -6 3 C-4.02 2.01 -2.04 1.02 0 0 Z " fill="#41338A" transform="translate(455,394)"/>
<path d="M0 0 C0.33 0 0.66 0 1 0 C1.06058594 0.69867188 1.12117187 1.39734375 1.18359375 2.1171875 C1.26738281 3.02726563 1.35117188 3.93734375 1.4375 4.875 C1.55931641 6.23238281 1.55931641 6.23238281 1.68359375 7.6171875 C1.86989285 10.01110861 1.86989285 10.01110861 3 12 C3.66 12.33 4.32 12.66 5 13 C4.6875 15.375 4.6875 15.375 4 18 C1 20 1 20 -2 20 C-2.26404456 13.13484138 -1.25841946 6.74153283 0 0 Z " fill="#4A3C92" transform="translate(3,203)"/>
<path d="M0 0 C0 0.66 0 1.32 0 2 C-3.4334517 3.03480605 -6.87229026 4.05040959 -10.3125 5.0625 C-11.28896484 5.35705078 -12.26542969 5.65160156 -13.27148438 5.95507812 C-14.20927734 6.22900391 -15.14707031 6.50292969 -16.11328125 6.78515625 C-16.97735596 7.04176025 -17.84143066 7.29836426 -18.73168945 7.56274414 C-21 8 -21 8 -24 7 C-22.71937515 5.2925002 -21.38232443 3.62626404 -20 2 C-19.34 2 -18.68 2 -18 2 C-18 2.66 -18 3.32 -18 4 C-11.99238819 2.79123522 -11.99238819 2.79123522 -6.1875 0.875 C-4 0 -4 0 0 0 Z " fill="#504493" transform="translate(326,489)"/>
<path d="M0 0 C3.8984375 1.75 3.8984375 1.75 4.8125 4 C5 6 5 6 4 8 C3.77721336 9.36972529 3.5931895 10.74603588 3.4375 12.125 C3.2209375 14.043125 3.2209375 14.043125 3 16 C2.34 16 1.68 16 1 16 C-0.50156874 12.99686252 -0.09281204 10.20932478 -0.0625 6.875 C-0.05347656 5.59367187 -0.04445312 4.31234375 -0.03515625 2.9921875 C-0.02355469 2.00476563 -0.01195312 1.01734375 0 0 Z " fill="#413191" transform="translate(0,264)"/>
<path d="M0 0 C0 3.63327194 -0.95586411 5.04735927 -3 8 C-3.99 8.66 -4.98 9.32 -6 10 C-6.6837045 11.32467746 -7.34964186 12.65863633 -8 14 C-9.375 15.8125 -9.375 15.8125 -11 17 C-13.1875 16.6875 -13.1875 16.6875 -15 16 C-13.71937515 14.2925002 -12.38232443 12.62626404 -11 11 C-10.34 11 -9.68 11 -9 11 C-8.74476562 10.41734375 -8.48953125 9.8346875 -8.2265625 9.234375 C-6.88258913 6.78611777 -5.38189704 5.18256752 -3.375 3.25 C-2.74335937 2.63640625 -2.11171875 2.0228125 -1.4609375 1.390625 C-0.73777344 0.70226562 -0.73777344 0.70226562 0 0 Z " fill="#483788" transform="translate(75,71)"/>
<path d="M0 0 C1.32 0.33 2.64 0.66 4 1 C2.38405168 3.04119788 0.7143618 5.04072937 -1 7 C-1.66 7 -2.32 7 -3 7 C-3.268125 7.598125 -3.53625 8.19625 -3.8125 8.8125 C-4.98493467 10.97224808 -6.19369282 12.35790256 -8 14 C-8.36923077 7.47692308 -8.36923077 7.47692308 -6.5 5.0625 C-6.005 4.711875 -5.51 4.36125 -5 4 C-4.01 4.33 -3.02 4.66 -2 5 C-1.34 3.35 -0.68 1.7 0 0 Z " fill="#4F4291" transform="translate(235,124)"/>
<path d="M0 0 C-2.06175364 0.959938 -4.12443469 1.91788424 -6.1875 2.875 C-7.33605469 3.40867187 -8.48460937 3.94234375 -9.66796875 4.4921875 C-10.76753906 4.98976563 -11.86710937 5.48734375 -13 6 C-13.90363281 6.41507812 -14.80726563 6.83015625 -15.73828125 7.2578125 C-18 8 -18 8 -21 7 C-20.34 7 -19.68 7 -19 7 C-19 6.34 -19 5.68 -19 5 C-15.91190305 3.23537317 -14.76687864 3 -11 3 C-11 2.34 -11 1.68 -11 1 C-9.68 1 -8.36 1 -7 1 C-7 0.34 -7 -0.32 -7 -1 C-3.51418144 -2.2020064 -3.32007656 -2.21338437 0 0 Z " fill="#5B5099" transform="translate(364,476)"/>
<path d="M0 0 C-0.54479018 8.75965262 -1.54107999 17.34562983 -3 26 C-3.33 26 -3.66 26 -4 26 C-4.086985 22.22931168 -4.14038579 18.45888068 -4.1875 14.6875 C-4.21263672 13.61564453 -4.23777344 12.54378906 -4.26367188 11.43945312 C-4.27333984 10.41142578 -4.28300781 9.38339844 -4.29296875 8.32421875 C-4.3086792 7.37635498 -4.32438965 6.42849121 -4.34057617 5.4519043 C-4 3 -4 3 -2.54418945 1.16723633 C-1 0 -1 0 0 0 Z " fill="#584B95" transform="translate(216,159)"/>
<path d="M0 0 C3.48420592 3.1703135 5.86503346 6.73088973 8.25 10.75 C8.79527344 11.65298828 8.79527344 11.65298828 9.3515625 12.57421875 C10.23953297 14.04638031 11.12049158 15.5227674 12 17 C11.34 17.66 10.68 18.32 10 19 C10 18.01 10 17.02 10 16 C9.01 16 8.02 16 7 16 C6.71125 15.195625 6.4225 14.39125 6.125 13.5625 C5.26737432 10.8673532 5.26737432 10.8673532 3 10 C3 8.35 3 6.7 3 5 C2.01 5.33 1.02 5.66 0 6 C0 4.02 0 2.04 0 0 Z " fill="#4F438F" transform="translate(454,106)"/>
<path d="M0 0 C0.99 0.66 1.98 1.32 3 2 C0.36 4.31 -2.28 6.62 -5 9 C-5.33 8.34 -5.66 7.68 -6 7 C-6.66 7 -7.32 7 -8 7 C-8.33 6.01 -8.66 5.02 -9 4 C-5.96160695 1.97440463 -3.5308582 0.88271455 0 0 Z " fill="#36258A" transform="translate(412,439)"/>
<path d="M0 0 C0.99 0.99 1.98 1.98 3 3 C2.34 3 1.68 3 1 3 C0.87625 4.19625 0.7525 5.3925 0.625 6.625 C-0.06113949 12.00928907 -0.9394407 16.21680131 -5 20 C-3.76583013 13.17576662 -2.1084005 6.60632156 0 0 Z " fill="#554893" transform="translate(10,177)"/>
<path d="M0 0 C0.33 0.99 0.66 1.98 1 3 C0.030625 3.598125 -0.93875 4.19625 -1.9375 4.8125 C-5.23052042 6.71127509 -5.23052042 6.71127509 -6 10 C-8.375 11.75 -8.375 11.75 -11 13 C-11.99 12.67 -12.98 12.34 -14 12 C-12.04417252 10.18472893 -10.08550123 8.37271109 -8.125 6.5625 C-7.56941406 6.04623047 -7.01382813 5.52996094 -6.44140625 4.99804688 C-2.2265625 1.11328125 -2.2265625 1.11328125 0 0 Z " fill="#594D93" transform="translate(90,58)"/>
<path d="M0 0 C4.72065967 1.54269924 9.41664092 3.07794619 14 5 C14 5.33 14 5.66 14 6 C10.37 6.33 6.74 6.66 3 7 C2.67 5.35 2.34 3.7 2 2 C1.34 2 0.68 2 0 2 C0 1.34 0 0.68 0 0 Z " fill="#43358C" transform="translate(334,15)"/>
<path d="M0 0 C0.33 0 0.66 0 1 0 C1 9.57 1 19.14 1 29 C-0.98 29 -2.96 29 -5 29 C-4.35256836 28.62834717 -3.70513672 28.25669434 -3.03808594 27.8737793 C-0.74930562 26.13870394 -0.74930562 26.13870394 -0.45410156 23.27270508 C-0.4331543 22.19915771 -0.41220703 21.12561035 -0.390625 20.01953125 C-0.35839844 18.85615234 -0.32617188 17.69277344 -0.29296875 16.49414062 C-0.27169922 14.67172852 -0.27169922 14.67172852 -0.25 12.8125 C-0.22035156 11.58595703 -0.19070312 10.35941406 -0.16015625 9.09570312 C-0.08937101 6.06373547 -0.03671587 3.03254067 0 0 Z " fill="#200F70" transform="translate(209,469)"/>
<path d="M0 0 C6.45810245 0.99681713 12.76571832 2.01636492 19 4 C16.26822383 5.87978657 15.11615725 6.01655381 11.765625 5.5390625 C10.60546875 5.23742187 9.4453125 4.93578125 8.25 4.625 C6.49429687 4.18027344 6.49429687 4.18027344 4.703125 3.7265625 C3.81109375 3.48679687 2.9190625 3.24703125 2 3 C2 2.34 2 1.68 2 1 C1.34 0.67 0.68 0.34 0 0 Z " fill="#4E408D" transform="translate(300,6)"/>
<path d="M0 0 C0 4.62 0 9.24 0 14 C-0.99 14.495 -0.99 14.495 -2 15 C-2.144375 13.783125 -2.28875 12.56625 -2.4375 11.3125 C-2.82780953 8.17329623 -3.32351856 5.0924866 -4 2 C-1 0 -1 0 0 0 Z " fill="#4F419D" transform="translate(500,264)"/>
<path d="M0 0 C0.99 0 1.98 0 3 0 C3.8655047 2.26708325 4.71759315 4.53775079 5.5625 6.8125 C5.80935547 7.45509766 6.05621094 8.09769531 6.31054688 8.75976562 C8.11328125 13.66015625 8.11328125 13.66015625 7 17 C7 16.34 7 15.68 7 15 C6.34 15 5.68 15 5 15 C5 13.02 5 11.04 5 9 C4.34 9 3.68 9 3 9 C2.01 6.03 1.02 3.06 0 0 Z " fill="#5E5298" transform="translate(481,159)"/>
<path d="M0 0 C3.14703761 1.57351881 3.7416747 4.30201662 5.1875 7.4375 C5.73792969 8.61183594 6.28835938 9.78617188 6.85546875 10.99609375 C7.23316406 11.98738281 7.61085938 12.97867188 8 14 C7.67 14.66 7.34 15.32 7 16 C6.34 16 5.68 16 5 16 C4.26367539 14.29306569 3.52848724 12.5856264 2.80078125 10.875 C2.14919903 9.34934407 1.48299618 7.82993872 0.8125 6.3125 C0 4 0 4 0 0 Z " fill="#5A4E99" transform="translate(474,140)"/>
<path d="M0 0 C1.32 0 2.64 0 4 0 C4.06058594 0.63808594 4.12117188 1.27617187 4.18359375 1.93359375 C4.26738281 2.75988281 4.35117187 3.58617187 4.4375 4.4375 C4.51871094 5.26121094 4.59992187 6.08492188 4.68359375 6.93359375 C4.78930815 8.98662025 4.78930815 8.98662025 6 10 C6.04063832 11.66617115 6.042721 13.33388095 6 15 C4.33251253 12.49876879 3.10045639 10.22323643 1.875 7.5 C1.52179687 6.7265625 1.16859375 5.953125 0.8046875 5.15625 C0 3 0 3 0 0 Z " fill="#584A98" transform="translate(17,343)"/>
<path d="M0 0 C0.66 0 1.32 0 2 0 C1.67 0.99 1.34 1.98 1 3 C1.63808594 3.04898438 2.27617187 3.09796875 2.93359375 3.1484375 C3.75988281 3.22320312 4.58617187 3.29796875 5.4375 3.375 C6.26121094 3.44460937 7.08492188 3.51421875 7.93359375 3.5859375 C8.95646484 3.79089844 8.95646484 3.79089844 10 4 C10.33 4.66 10.66 5.32 11 6 C5.21408489 6.10477512 -0.29309366 5.99250545 -6 5 C-6 4.67 -6 4.34 -6 4 C-4.35 4 -2.7 4 -1 4 C-0.67 2.68 -0.34 1.36 0 0 Z " fill="#4B3D90" transform="translate(350,99)"/>
<path d="M0 0 C0.99 0.99 1.98 1.98 3 3 C0.69 4.65 -1.62 6.3 -4 8 C-4.66 7.67 -5.32 7.34 -6 7 C-5.34 5.02 -4.68 3.04 -4 1 C-2.68 1.33 -1.36 1.66 0 2 C0 1.34 0 0.68 0 0 Z " fill="#514394" transform="translate(399,449)"/>
<path d="M0 0 C0 1.32 0 2.64 0 4 C-4.30840713 2.92289822 -7.63576723 1.96052484 -11 -1 C-3.57142857 -2.42857143 -3.57142857 -2.42857143 0 0 Z " fill="#584C96" transform="translate(147,476)"/>
<path d="M0 0 C0.66 0.33 1.32 0.66 2 1 C0.84826645 3.46800047 -0.04783565 5.04783565 -2 7 C-4.32275177 7.40047444 -6.65739357 7.7397104 -9 8 C-6.14723863 5.06799526 -3.34920216 2.35684596 0 0 Z " fill="#5E549E" transform="translate(106,45)"/>
<path d="M0 0 C0 3.80345877 -1.13786331 4.77701015 -3.5 7.6875 C-4.47453125 8.89986328 -4.47453125 8.89986328 -5.46875 10.13671875 C-5.9740625 10.75160156 -6.479375 11.36648438 -7 12 C-7.33 11.01 -7.66 10.02 -8 9 C-7.34 9 -6.68 9 -6 9 C-6 7.02 -6 5.04 -6 3 C-4.02 2.01 -2.04 1.02 0 0 Z " fill="#64569D" transform="translate(455,394)"/>
<path d="M0 0 C0.99 0.33 1.98 0.66 3 1 C3.99 0.67 4.98 0.34 6 0 C6.99 0.66 7.98 1.32 9 2 C8.34 2.66 7.68 3.32 7 4 C6.3574765 6.06874034 6.3574765 6.06874034 6 8 C5.67 7.01 5.34 6.02 5 5 C4.34 5 3.68 5 3 5 C3 4.34 3 3.68 3 3 C2.34 3 1.68 3 1 3 C0.67 2.01 0.34 1.02 0 0 Z " fill="#4C3F91" transform="translate(62,417)"/>
<path d="M0 0 C0.93423645 3.01031744 1.04449911 3.86650268 0 7 C-3 9 -3 9 -6 9 C-4.47291037 5.56404834 -2.40072955 2.88087546 0 0 Z " fill="#584A97" transform="translate(59,88)"/>
<path d="M0 0 C0.33 0.66 0.66 1.32 1 2 C1.66 2.33 2.32 2.66 3 3 C2.34 3 1.68 3 1 3 C1 5.97 1 8.94 1 12 C-1.39763185 9.60236815 -1.34280586 8.66726502 -1.625 5.375 C-1.69976562 4.55773437 -1.77453125 3.74046875 -1.8515625 2.8984375 C-1.90054687 2.27195312 -1.94953125 1.64546875 -2 1 C-1.34 0.67 -0.68 0.34 0 0 Z " fill="#3D2C83" transform="translate(12,320)"/>
<path d="M0 0 C4.28477792 2.30718811 7.72291137 4.32966073 11 8 C10.01 8.33 9.02 8.66 8 9 C7.34 8.01 6.68 7.02 6 6 C3.43717258 5.27034634 3.43717258 5.27034634 1 5 C0.67 3.35 0.34 1.7 0 0 Z " fill="#6257A0" transform="translate(395,47)"/>
<path d="M0 0 C-2.40436026 3.60654039 -3.94679607 3.85452932 -8 5 C-8 4.34 -8 3.68 -8 3 C-9.32 3.33 -10.64 3.66 -12 4 C-11 2 -11 2 -9.00390625 1.11328125 C-7.79541016 0.71689453 -7.79541016 0.71689453 -6.5625 0.3125 C-5.75941406 0.04050781 -4.95632812 -0.23148438 -4.12890625 -0.51171875 C-2 -1 -2 -1 0 0 Z " fill="#60549E" transform="translate(172,14)"/>
<path d="M0 0 C-2 2 -2 2 -5.0625 2.0625 C-6.031875 2.041875 -7.00125 2.02125 -8 2 C-8.33 2.33 -8.66 2.66 -9 3 C-10.51928038 3.07179964 -12.04167482 3.08392007 -13.5625 3.0625 C-14.38878906 3.05347656 -15.21507812 3.04445313 -16.06640625 3.03515625 C-16.70449219 3.02355469 -17.34257812 3.01195312 -18 3 C-18 2.67 -18 2.34 -18 2 C-15.75256955 1.46818825 -13.50192898 0.94992874 -11.25 0.4375 C-9.99703125 0.14746094 -8.7440625 -0.14257812 -7.453125 -0.44140625 C-4.40526252 -0.93444283 -2.82358172 -1.07666879 0 0 Z " fill="#564A97" transform="translate(201,7)"/>
<path d="M0 0 C1.31602523 0.61754259 2.62773556 1.24428742 3.9375 1.875 C4.66839844 2.22304688 5.39929688 2.57109375 6.15234375 2.9296875 C8 4 8 4 9 6 C5.86650268 7.04449911 5.01031744 6.93423645 2 6 C2 4.68 2 3.36 2 2 C1.34 2 0.68 2 0 2 C0 1.34 0 0.68 0 0 Z " fill="#5D519A" transform="translate(386,41)"/>
<path d="M0 0 C3.465 1.485 3.465 1.485 7 3 C5.68 3.33 4.36 3.66 3 4 C3 4.66 3 5.32 3 6 C1.35 5.67 -0.3 5.34 -2 5 C-2 4.34 -2 3.68 -2 3 C-1.34 3 -0.68 3 0 3 C0 2.01 0 1.02 0 0 Z " fill="#42348D" transform="translate(354,23)"/>
<path d="M0 0 C0 0.66 0 1.32 0 2 C-3.96 2.99 -7.92 3.98 -12 5 C-12 4.34 -12 3.68 -12 3 C-10.75336669 2.49166409 -9.50250613 1.99368855 -8.25 1.5 C-7.55390625 1.2215625 -6.8578125 0.943125 -6.140625 0.65625 C-4 0 -4 0 0 0 Z " fill="#4C4089" transform="translate(326,489)"/>
<path d="M0 0 C-1.6210103 0.69685498 -3.24696066 1.38222861 -4.875 2.0625 C-5.77992188 2.44535156 -6.68484375 2.82820313 -7.6171875 3.22265625 C-10 4 -10 4 -12 3 C-12 2.34 -12 1.68 -12 1 C-3.96428571 -1.27678571 -3.96428571 -1.27678571 0 0 Z " fill="#5F5296" transform="translate(343,485)"/>
<path d="M0 0 C0.33 0.66 0.66 1.32 1 2 C1.99 2.33 2.98 2.66 4 3 C0.535 4.485 0.535 4.485 -3 6 C-3.33 4.68 -3.66 3.36 -4 2 C-2.68 1.34 -1.36 0.68 0 0 Z " fill="#43368B" transform="translate(372,466)"/>
<path d="M0 0 C0.33 0.66 0.66 1.32 1 2 C0.22265625 3.9453125 0.22265625 3.9453125 -0.9375 6.125 C-1.31777344 6.84945313 -1.69804687 7.57390625 -2.08984375 8.3203125 C-2.39019531 8.87460937 -2.69054687 9.42890625 -3 10 C-3.66 10 -4.32 10 -5 10 C-5 9.34 -5 8.68 -5 8 C-4.34 8 -3.68 8 -3 8 C-3.061875 7.05125 -3.12375 6.1025 -3.1875 5.125 C-3.125625 4.09375 -3.06375 3.0625 -3 2 C-2.01 1.34 -1.02 0.68 0 0 Z " fill="#574B99" transform="translate(478,353)"/>
<path d="M0 0 C0 3.66842255 -0.79029126 5.10451959 -3 8 C-5.6875 8.8125 -5.6875 8.8125 -8 9 C-7.04270084 7.87411986 -6.08412105 6.7493285 -5.125 5.625 C-4.59132813 4.99851562 -4.05765625 4.37203125 -3.5078125 3.7265625 C-2.38567993 2.44163349 -1.20628025 1.20628025 0 0 Z " fill="#6D65A7" transform="translate(75,71)"/>
<path d="M0 0 C1.2065625 0.0309375 1.2065625 0.0309375 2.4375 0.0625 C0.79580472 2.08304804 -0.87161778 4.08293058 -2.5625 6.0625 C-2.8925 6.0625 -3.2225 6.0625 -3.5625 6.0625 C-3.605221 4.39638095 -3.60313832 2.72867115 -3.5625 1.0625 C-2.5625 0.0625 -2.5625 0.0625 0 0 Z " fill="#514599" transform="translate(424.5625,428.9375)"/>
<path d="M0 0 C0.66 0.99 1.32 1.98 2 3 C1.34 3 0.68 3 0 3 C0.0825 3.7425 0.165 4.485 0.25 5.25 C-0.07105184 8.78157027 -1.35265617 9.76630364 -4 12 C-3.52309796 10.37433394 -3.04340334 8.74948689 -2.5625 7.125 C-2.29566406 6.22007812 -2.02882813 5.31515625 -1.75390625 4.3828125 C-1 2 -1 2 0 0 Z " fill="#776AAD" transform="translate(19,152)"/>
<path d="M0 0 C0.33 0.66 0.66 1.32 1 2 C1.66 2 2.32 2 3 2 C3 5.63 3 9.26 3 13 C2.67 13 2.34 13 2 13 C1.66127487 11.58461283 1.32925376 10.16762037 1 8.75 C0.814375 7.96109375 0.62875 7.1721875 0.4375 6.359375 C0 4 0 4 0 0 Z " fill="#796FAA" transform="translate(3,296)"/>
<path d="M0 0 C0.99 0.33 1.98 0.66 3 1 C3.8125 2.875 3.8125 2.875 4 5 C3.01 6.485 3.01 6.485 2 8 C0.74335022 5.09399739 0 3.20395416 0 0 Z " fill="#3C2C87" transform="translate(2,289)"/>
<path d="M0 0 C0.33 0 0.66 0 1 0 C1.33 3.3 1.66 6.6 2 10 C1.01 10.66 0.02 11.32 -1 12 C-0.67 8.04 -0.34 4.08 0 0 Z " fill="#6C62A8" transform="translate(354,269)"/>
<path d="M0 0 C0.66 0.33 1.32 0.66 2 1 C0.35 2.65 -1.3 4.3 -3 6 C-3.66 5.67 -4.32 5.34 -5 5 C-5 4.34 -5 3.68 -5 3 C-2.625 1.3125 -2.625 1.3125 0 0 Z " fill="#6558A0" transform="translate(306,170)"/>
<path d="M0 0 C2.1640625 0.2421875 2.1640625 0.2421875 4.625 0.875 C5.44226563 1.07867187 6.25953125 1.28234375 7.1015625 1.4921875 C8.04128906 1.74355469 8.04128906 1.74355469 9 2 C8.67 2.66 8.34 3.32 8 4 C4.7 3.34 1.4 2.68 -2 2 C-1.34 1.34 -0.68 0.68 0 0 Z " fill="#524690" transform="translate(179,490)"/>
<path d="M0 0 C0.99 0.33 1.98 0.66 3 1 C3 2.65 3 4.3 3 6 C1.68 6 0.36 6 -1 6 C-0.67 5.34 -0.34 4.68 0 4 C-0.66 3.34 -1.32 2.68 -2 2 C-1.34 2 -0.68 2 0 2 C0 1.34 0 0.68 0 0 Z " fill="#3C2B8E" transform="translate(108,452)"/>
<path d="M0 0 C0.99 0.66 1.98 1.32 3 2 C1.35 3.32 -0.3 4.64 -2 6 C-2.66 4.68 -3.32 3.36 -4 2 C-2.68 1.34 -1.36 0.68 0 0 Z " fill="#5C4CA0" transform="translate(412,439)"/>
<path d="M0 0 C0.66 0 1.32 0 2 0 C1.67 2.31 1.34 4.62 1 7 C0.01 7 -0.98 7 -2 7 C-1.125 1.125 -1.125 1.125 0 0 Z " fill="#443488" transform="translate(291,189)"/>
<path d="M0 0 C0.99 0.99 1.98 1.98 3 3 C2.34 3 1.68 3 1 3 C0.87625 3.598125 0.7525 4.19625 0.625 4.8125 C0 7 0 7 -2 10 C-1.125 2.25 -1.125 2.25 0 0 Z " fill="#675AA0" transform="translate(10,177)"/>
<path d="M0 0 C1.32 0 2.64 0 4 0 C3.67 1.32 3.34 2.64 3 4 C3.99 4.33 4.98 4.66 6 5 C5.01 5.495 5.01 5.495 4 6 C3.34 5.67 2.68 5.34 2 5 C2 4.34 2 3.68 2 3 C1.34 3 0.68 3 0 3 C0 2.01 0 1.02 0 0 Z " fill="#534593" transform="translate(80,434)"/>
<path d="M0 0 C0.99 0.33 1.98 0.66 3 1 C3 1.66 3 2.32 3 3 C2.01 3.66 1.02 4.32 0 5 C-0.33 5.99 -0.66 6.98 -1 8 C-1.66 8 -2.32 8 -3 8 C-1.125 1.125 -1.125 1.125 0 0 Z " fill="#655B9F" transform="translate(294,181)"/>
<path d="M0 0 C2.375 -0.1875 2.375 -0.1875 5 0 C5.66 0.99 6.32 1.98 7 3 C4.69 3 2.38 3 0 3 C0 2.01 0 1.02 0 0 Z " fill="#3E2A89" transform="translate(402,55)"/>
<path d="M0 0 C0 0.66 0 1.32 0 2 C-2.64 2.33 -5.28 2.66 -8 3 C-6.14481495 -0.71037009 -3.79223618 -1.26407873 0 0 Z " fill="#524496" transform="translate(122,38)"/>
<path d="M0 0 C0 0.66 0 1.32 0 2 C-5.41538462 3.23076923 -5.41538462 3.23076923 -8.375 2.0625 C-8.91125 1.711875 -9.4475 1.36125 -10 1 C-3.375 0 -3.375 0 0 0 Z " fill="#554A96" transform="translate(210,4)"/>
</svg>
