<?xml version="1.0" encoding="UTF-8"?>
<svg version="1.1" xmlns="http://www.w3.org/2000/svg" width="500" height="500">
<path d="M0 0 C1.4512603 -0.0049926 1.4512603 -0.0049926 2.93183899 -0.01008606 C4.96456432 -0.01511049 6.99729777 -0.01749579 9.0300293 -0.01733398 C12.08852202 -0.01951361 15.14664924 -0.03769918 18.20507812 -0.05664062 C29.46020571 -0.08906529 40.30323397 0.3889915 51.42578125 2.16796875 C52.27229248 2.29373291 53.11880371 2.41949707 53.9909668 2.54907227 C66.75186469 4.50349615 79.56153333 7.00607501 91.42578125 12.16796875 C93.49980645 12.82319562 95.58341622 13.44890531 97.67578125 14.04296875 C102.79984206 15.59183259 107.57436572 17.41097767 112.3984375 19.72265625 C114.59446727 20.77108336 116.81430026 21.77010968 119.046875 22.73828125 C137.48854771 30.82776837 154.57895395 41.89326965 169.9140625 54.90917969 C172.84297074 57.34804449 175.92194367 59.59606689 178.984375 61.86328125 C179.46003906 62.29382812 179.93570312 62.724375 180.42578125 63.16796875 C180.42578125 63.82796875 180.42578125 64.48796875 180.42578125 65.16796875 C181.08578125 65.16796875 181.74578125 65.16796875 182.42578125 65.16796875 C182.42578125 65.82796875 182.42578125 66.48796875 182.42578125 67.16796875 C182.9878125 67.40515625 183.54984375 67.64234375 184.12890625 67.88671875 C186.94472167 69.45744572 188.90533541 71.38268339 191.17578125 73.66796875 C191.975 74.46203125 192.77421875 75.25609375 193.59765625 76.07421875 C195.42578125 78.16796875 195.42578125 78.16796875 195.42578125 80.16796875 C196.08578125 80.16796875 196.74578125 80.16796875 197.42578125 80.16796875 C197.42578125 80.82796875 197.42578125 81.48796875 197.42578125 82.16796875 C198.08578125 82.16796875 198.74578125 82.16796875 199.42578125 82.16796875 C201.38559413 84.42204783 203.22978889 86.68122485 205.05078125 89.04296875 C205.56640625 89.69394531 206.08203125 90.34492187 206.61328125 91.015625 C210.42578125 95.90732474 210.42578125 95.90732474 210.42578125 98.16796875 C211.08578125 98.16796875 211.74578125 98.16796875 212.42578125 98.16796875 C214.04456477 100.15396214 215.52536586 102.13305925 216.98828125 104.23046875 C217.42793213 104.85373047 217.86758301 105.47699219 218.32055664 106.11914062 C234.42578125 129.26589367 234.42578125 129.26589367 234.42578125 136.16796875 C235.08578125 136.16796875 235.74578125 136.16796875 236.42578125 136.16796875 C252.69051383 172.12796063 262.61440923 207.34295779 262.61108398 246.99316406 C262.6132662 249.8979366 262.63146826 252.80232574 262.65039062 255.70703125 C262.68346741 266.71081121 262.11882873 277.28966094 260.42578125 288.16796875 C260.23146182 289.51847499 260.03828018 290.86914539 259.84619141 292.2199707 C255.76571407 319.88648377 245.67353283 346.63083578 232.140625 371 C230.36474585 374.06188917 230.36474585 374.06188917 229.42578125 377.16796875 C228.76578125 377.16796875 228.10578125 377.16796875 227.42578125 377.16796875 C227.33683594 377.71066406 227.24789063 378.25335938 227.15625 378.8125 C226.19344428 381.91716229 224.57645121 384.17699253 222.73828125 386.85546875 C219.63285159 391.39932005 216.60173323 395.97456954 213.65234375 400.62109375 C213.04519531 401.38679687 213.04519531 401.38679687 212.42578125 402.16796875 C211.76578125 402.16796875 211.10578125 402.16796875 210.42578125 402.16796875 C209.76578125 403.81796875 209.10578125 405.46796875 208.42578125 407.16796875 C207.76578125 407.16796875 207.10578125 407.16796875 206.42578125 407.16796875 C205.96171875 408.09609375 205.96171875 408.09609375 205.48828125 409.04296875 C204.80078125 410.41796875 204.11328125 411.79296875 203.42578125 413.16796875 C202.76578125 413.16796875 202.10578125 413.16796875 201.42578125 413.16796875 C201.05453125 414.00328125 201.05453125 414.00328125 200.67578125 414.85546875 C199.19653307 417.59207788 197.49110686 419.84447744 195.42578125 422.16796875 C194.76578125 422.16796875 194.10578125 422.16796875 193.42578125 422.16796875 C193.08546875 423.00328125 193.08546875 423.00328125 192.73828125 423.85546875 C191.05028089 426.82956463 188.95901608 428.8880574 186.42578125 431.16796875 C185.76578125 431.16796875 185.10578125 431.16796875 184.42578125 431.16796875 C184.42578125 431.82796875 184.42578125 432.48796875 184.42578125 433.16796875 C182.96484375 434.67578125 182.96484375 434.67578125 181.05078125 436.29296875 C180.42429687 436.83179688 179.7978125 437.370625 179.15234375 437.92578125 C177.42578125 439.16796875 177.42578125 439.16796875 175.42578125 439.16796875 C175.42578125 439.82796875 175.42578125 440.48796875 175.42578125 441.16796875 C171.96424279 444.16796875 171.96424279 444.16796875 169.42578125 444.16796875 C169.42578125 444.82796875 169.42578125 445.48796875 169.42578125 446.16796875 C167.27063685 447.85681284 165.11555591 449.43103157 162.86328125 450.98046875 C162.25419922 451.40650391 161.64511719 451.83253906 161.01757812 452.27148438 C159.7827193 453.13523219 158.54489131 453.99474993 157.30419922 454.85009766 C156.02318321 455.74884011 154.75691961 456.66889258 153.50439453 457.60693359 C148.73333544 461.16796875 148.73333544 461.16796875 145.42578125 461.16796875 C145.42578125 461.82796875 145.42578125 462.48796875 145.42578125 463.16796875 C142.42578125 465.16796875 142.42578125 465.16796875 139.42578125 465.16796875 C139.42578125 465.82796875 139.42578125 466.48796875 139.42578125 467.16796875 C138.36101562 467.66425781 137.29625 468.16054688 136.19921875 468.671875 C134.73292431 469.35775531 133.26679059 470.04397928 131.80078125 470.73046875 C131.02605469 471.09253418 130.25132812 471.45459961 129.453125 471.82763672 C125.86486884 473.51349845 122.29240423 475.21254512 118.77734375 477.046875 C87.22660987 493.48414545 50.64275515 500.35656145 15.36450195 500.35327148 C12.76041104 500.35545023 10.1567504 500.37364966 7.55273438 500.39257812 C-15.43896963 500.46976576 -37.59648789 496.77364791 -59.57421875 490.16796875 C-60.38777832 489.92643066 -61.20133789 489.68489258 -62.03955078 489.43603516 C-71.54793887 486.59740634 -80.65116993 483.55015005 -89.57421875 479.16796875 C-90.8891492 478.561892 -92.20569386 477.95931068 -93.5234375 477.359375 C-102.83992655 473.09516384 -111.77307472 468.41239055 -120.57421875 463.16796875 C-120.57421875 462.50796875 -120.57421875 461.84796875 -120.57421875 461.16796875 C-121.16734863 461.04719971 -121.76047852 460.92643066 -122.37158203 460.80200195 C-125.87447718 459.79368687 -128.55793312 457.50091318 -131.44921875 455.35546875 C-132.65428355 454.47305033 -133.8600069 453.59153051 -135.06640625 452.7109375 C-135.93990723 452.06777588 -135.93990723 452.06777588 -136.83105469 451.41162109 C-138.52684745 450.20176559 -140.26000014 449.08305082 -142.01953125 447.96875 C-142.86257812 447.37449219 -143.705625 446.78023438 -144.57421875 446.16796875 C-144.57421875 445.50796875 -144.57421875 444.84796875 -144.57421875 444.16796875 C-145.19296875 443.85859375 -145.81171875 443.54921875 -146.44921875 443.23046875 C-147.82421875 442.54296875 -149.19921875 441.85546875 -150.57421875 441.16796875 C-150.57421875 440.50796875 -150.57421875 439.84796875 -150.57421875 439.16796875 C-151.13109375 438.92046875 -151.68796875 438.67296875 -152.26171875 438.41796875 C-154.99832788 436.93872057 -157.25072744 435.23329436 -159.57421875 433.16796875 C-159.57421875 432.50796875 -159.57421875 431.84796875 -159.57421875 431.16796875 C-160.40953125 430.82765625 -160.40953125 430.82765625 -161.26171875 430.48046875 C-164.23581463 428.79246839 -166.2943074 426.70120358 -168.57421875 424.16796875 C-168.57421875 423.50796875 -168.57421875 422.84796875 -168.57421875 422.16796875 C-169.23421875 422.16796875 -169.89421875 422.16796875 -170.57421875 422.16796875 C-172.08203125 420.70703125 -172.08203125 420.70703125 -173.69921875 418.79296875 C-174.23804688 418.16648437 -174.776875 417.54 -175.33203125 416.89453125 C-176.57421875 415.16796875 -176.57421875 415.16796875 -176.57421875 413.16796875 C-177.23421875 413.16796875 -177.89421875 413.16796875 -178.57421875 413.16796875 C-181.57421875 409.70643029 -181.57421875 409.70643029 -181.57421875 407.16796875 C-182.23421875 407.16796875 -182.89421875 407.16796875 -183.57421875 407.16796875 C-184.85522461 405.67089844 -184.85522461 405.67089844 -186.2890625 403.58984375 C-186.81048828 402.84089844 -187.33191406 402.09195312 -187.86914062 401.3203125 C-188.6822168 400.13115234 -188.6822168 400.13115234 -189.51171875 398.91796875 C-190.58292613 397.37081174 -191.65452842 395.82392806 -192.7265625 394.27734375 C-193.20085693 393.58608398 -193.67515137 392.89482422 -194.16381836 392.18261719 C-195.14264442 390.78443947 -196.17722814 389.42431859 -197.25219727 388.09863281 C-198.57421875 386.16796875 -198.57421875 386.16796875 -198.57421875 383.16796875 C-199.23421875 383.16796875 -199.89421875 383.16796875 -200.57421875 383.16796875 C-210.68378851 365.90355855 -219.44895346 348.24221571 -225.57421875 329.16796875 C-225.92871094 328.1109375 -226.28320312 327.05390625 -226.6484375 325.96484375 C-234.47580605 301.83303558 -237.76182265 277.8411468 -237.75952148 252.54907227 C-237.76170653 249.87044329 -237.77992875 247.19222842 -237.79882812 244.51367188 C-237.83356643 233.88362827 -237.18498628 223.67998758 -235.57421875 213.16796875 C-235.45377197 212.297771 -235.3333252 211.42757324 -235.20922852 210.53100586 C-231.69289369 185.29791977 -223.78996244 158.08276003 -211.125 135.89453125 C-209.44483556 132.94048899 -207.8907642 129.93366045 -206.32421875 126.91796875 C-197.47669971 110.53653611 -185.94401195 93.19934109 -172.57421875 80.16796875 C-171.91421875 80.16796875 -171.25421875 80.16796875 -170.57421875 80.16796875 C-170.57421875 79.50796875 -170.57421875 78.84796875 -170.57421875 78.16796875 C-169.91421875 78.16796875 -169.25421875 78.16796875 -168.57421875 78.16796875 C-168.34734375 77.61109375 -168.12046875 77.05421875 -167.88671875 76.48046875 C-166.19871839 73.50637287 -164.10745358 71.4478801 -161.57421875 69.16796875 C-160.91421875 69.16796875 -160.25421875 69.16796875 -159.57421875 69.16796875 C-159.57421875 68.50796875 -159.57421875 67.84796875 -159.57421875 67.16796875 C-158.91421875 67.16796875 -158.25421875 67.16796875 -157.57421875 67.16796875 C-157.57421875 66.50796875 -157.57421875 65.84796875 -157.57421875 65.16796875 C-155.14961274 62.58523626 -152.30445035 60.4180702 -149.57421875 58.16796875 C-148.63707031 57.38292969 -147.69992188 56.59789062 -146.734375 55.7890625 C-139.38993903 49.76121187 -131.64839681 44.43012182 -123.69921875 39.23046875 C-122.72460693 38.59173828 -121.74999512 37.95300781 -120.74584961 37.29492188 C-106.61625184 28.16796875 -106.61625184 28.16796875 -101.57421875 28.16796875 C-101.57421875 27.50796875 -101.57421875 26.84796875 -101.57421875 26.16796875 C-69.37679264 11.60504762 -35.73251534 0.04422019 0 0 Z M-40.44287109 89.04003906 C-44.00321225 89.15364853 -47.56368473 89.23848307 -51.125 89.31640625 C-78.72922499 90.04687688 -105.31473814 96.49537772 -125.30078125 116.93359375 C-127.83674275 119.66736928 -127.83674275 119.66736928 -128.57421875 123.16796875 C-129.23421875 123.16796875 -129.89421875 123.16796875 -130.57421875 123.16796875 C-146.16968143 141.71392437 -149.89408836 168.46046526 -149.84887695 191.7980957 C-149.85323886 193.2011339 -149.85842685 194.60416973 -149.86436462 196.00720215 C-149.87760771 199.77395083 -149.87834988 203.54059828 -149.87580132 207.30736566 C-149.87472144 210.4727819 -149.87964073 213.6381785 -149.88440675 216.80359048 C-149.89545136 224.28273127 -149.89596808 231.76182182 -149.88989258 239.2409668 C-149.8838582 246.90949497 -149.89616182 254.57783942 -149.91746265 262.24633628 C-149.93518181 268.87359276 -149.94106385 275.5007913 -149.9378249 282.12807053 C-149.9360281 286.06711888 -149.93848519 290.00603616 -149.95253944 293.94506264 C-150.09461848 316.72162239 -150.09461848 316.72162239 -146.57421875 339.16796875 C-146.09357205 341.50099766 -145.61419346 343.8342886 -145.13671875 346.16796875 C-141.99889483 359.15373234 -134.83404101 372.49279826 -125.57421875 382.16796875 C-124.91421875 382.16796875 -124.25421875 382.16796875 -123.57421875 382.16796875 C-123.57421875 382.82796875 -123.57421875 383.48796875 -123.57421875 384.16796875 C-121.29426759 386.29922744 -119.01977413 388.23982744 -116.57421875 390.16796875 C-115.87167969 390.73 -115.16914062 391.29203125 -114.4453125 391.87109375 C-89.57004186 410.55911433 -57.59031396 410.4920864 -27.88484526 410.46955132 C-25.03800938 410.46846486 -22.19119497 410.47340721 -19.34436381 410.47815675 C-12.60895334 410.48917274 -5.87359866 410.48973528 0.86181641 410.48364258 C7.73618119 410.47761826 14.6103405 410.4898929 21.48467028 410.51121265 C27.45225089 410.52901772 33.41976725 410.53480048 39.38737333 410.5315749 C42.92249688 410.52979065 46.45747409 410.53210229 49.99257278 410.54628944 C77.61480264 410.64764965 104.81234087 409.87390261 129.42578125 396.16796875 C130.86050781 395.38099609 130.86050781 395.38099609 132.32421875 394.578125 C133.01773437 394.11277344 133.71125 393.64742188 134.42578125 393.16796875 C134.42578125 392.50796875 134.42578125 391.84796875 134.42578125 391.16796875 C136.42578125 390.16796875 138.42578125 389.16796875 140.42578125 388.16796875 C140.42578125 387.50796875 140.42578125 386.84796875 140.42578125 386.16796875 C141.08578125 386.16796875 141.74578125 386.16796875 142.42578125 386.16796875 C142.42578125 385.50796875 142.42578125 384.84796875 142.42578125 384.16796875 C143.74578125 383.50796875 145.06578125 382.84796875 146.42578125 382.16796875 C146.42578125 381.50796875 146.42578125 380.84796875 146.42578125 380.16796875 C147.08578125 380.16796875 147.74578125 380.16796875 148.42578125 380.16796875 C148.42578125 379.50796875 148.42578125 378.84796875 148.42578125 378.16796875 C149.08578125 378.16796875 149.74578125 378.16796875 150.42578125 378.16796875 C151.98125534 376.02994259 153.40531913 373.90745581 154.80078125 371.66796875 C155.20635254 371.02448486 155.61192383 370.38100098 156.02978516 369.71801758 C167.80459446 350.84739895 170.55297826 330.29443125 171.03515625 308.31640625 C171.07356467 306.7895896 171.11204935 305.26277487 171.15060425 303.73596191 C171.5399689 287.39182011 171.57843402 271.04573665 171.55615234 254.69775391 C171.55045579 250.50722668 171.55386323 246.31676296 171.55957794 242.12623787 C171.57854952 225.83612829 171.50142658 209.54999055 171.08510971 193.26451111 C171.04738179 191.78807189 171.01166108 190.31157964 170.97821426 188.83503723 C170.58151501 171.90432516 168.99500816 154.5702294 161.42578125 139.16796875 C160.87277344 138.03488281 160.31976563 136.90179688 159.75 135.734375 C154.58363367 125.73893696 147.00779566 115.33692051 137.42578125 109.16796875 C136.76578125 109.16796875 136.10578125 109.16796875 135.42578125 109.16796875 C135.42578125 108.50796875 135.42578125 107.84796875 135.42578125 107.16796875 C127.67820978 101.3947784 119.68565105 97.8211513 110.42578125 95.16796875 C109.46542969 94.83667969 108.50507813 94.50539063 107.515625 94.1640625 C94.13402566 89.85014615 80.34612062 89.54378581 66.42578125 89.16796875 C65.00860561 89.12453058 63.5914516 89.08038287 62.17431641 89.03564453 C27.93255479 87.95830045 -6.20191688 87.93542382 -40.44287109 89.04003906 Z " fill="#230E81" transform="translate(237.57421875,-0.16796875)"/>
<path d="M0 0 C1.71959457 0.03131491 3.43926767 0.05864855 5.15899658 0.0814209 C26.60816896 0.3860392 47.35342437 3.71351598 63.51272583 18.98553467 C71.3627453 27.12325118 76.31840708 36.9555492 78.45022583 48.04803467 C78.68999146 49.26104248 78.92975708 50.47405029 79.17678833 51.72381592 C80.73785262 60.81460185 80.97782297 69.84573494 80.98635864 79.0536499 C80.99132355 80.3510762 80.99628845 81.6485025 81.00140381 82.98524475 C81.01441631 86.51887303 81.02095127 90.05248241 81.02541447 93.58613086 C81.02836462 95.8044991 81.03247298 98.02286239 81.03691864 100.2412281 C81.05056705 107.21283485 81.06024546 114.18443003 81.06412053 121.15604919 C81.06858852 129.14585515 81.08608889 137.13548896 81.11512113 145.12524265 C81.13689865 151.33885673 81.14683336 157.55242297 81.14816165 163.76607472 C81.1491987 167.45934113 81.15486623 171.1524452 81.17298126 174.8456707 C81.41435521 226.99664167 81.41435521 226.99664167 63.82522583 247.73553467 C59.28468529 251.73553467 59.28468529 251.73553467 56.82522583 251.73553467 C56.82522583 252.39553467 56.82522583 253.05553467 56.82522583 253.73553467 C45.52828644 262.26587666 31.99400106 264.47231524 18.25217152 265.5353117 C16.62551166 265.6695111 15.00007076 265.81934388 13.37623882 265.98427296 C6.76107248 266.65024647 0.23006681 266.88387354 -6.41574097 266.88079834 C-7.48094971 266.88415695 -8.54615845 266.88751556 -9.64364624 266.89097595 C-13.13710729 266.90040945 -16.63051995 266.90242583 -20.12399292 266.90350342 C-22.58426431 266.90672338 -25.04453551 266.91008799 -27.50480652 266.91358948 C-32.65822797 266.91956335 -37.81163271 266.92143138 -42.96505737 266.9208374 C-49.50123139 266.92073637 -56.03729533 266.93433529 -62.57344341 266.95160961 C-67.65879283 266.96285009 -72.74411675 266.96475289 -77.82947731 266.96422768 C-80.23509917 266.9653918 -82.64072203 266.96972298 -85.04633141 266.97756004 C-146.46619196 267.15878927 -146.46619196 267.15878927 -168.19039917 246.90740967 C-170.17477417 244.73553467 -170.17477417 244.73553467 -170.17477417 242.73553467 C-170.83477417 242.73553467 -171.49477417 242.73553467 -172.17477417 242.73553467 C-187.92883308 224.03428786 -185.4871508 193.0732411 -185.44342518 170.45435905 C-185.43827434 166.94346713 -185.44308133 163.43258436 -185.44619751 159.92169189 C-185.44981121 154.03165782 -185.44510701 148.1416743 -185.43551636 142.25164795 C-185.42463686 135.4930823 -185.42816429 128.73463743 -185.43916917 121.9760747 C-185.44831684 116.11814372 -185.44949118 110.26024858 -185.44429183 104.40231276 C-185.4412128 100.92778012 -185.44064803 97.45330378 -185.44736481 93.97877502 C-185.51885325 40.08348109 -185.51885325 40.08348109 -170.17477417 21.73553467 C-169.51477417 21.73553467 -168.85477417 21.73553467 -168.17477417 21.73553467 C-167.92727417 21.11678467 -167.67977417 20.49803467 -167.42477417 19.86053467 C-165.96848778 17.3848478 -164.79664911 16.78428464 -162.17477417 15.73553467 C-162.17477417 15.07553467 -162.17477417 14.41553467 -162.17477417 13.73553467 C-145.82450143 1.87357209 -125.98991865 0.29909539 -106.48727417 0.04803467 C-104.64815528 0.01541787 -102.80904413 -0.01763764 -100.96994019 -0.05108643 C-67.32730377 -0.6090303 -33.64176078 -0.62736092 0 0 Z M27.76272583 29.48553467 C26.88487427 29.81037842 26.00702271 30.13522217 25.10256958 30.46990967 C22.4982301 31.91726129 21.84719397 32.98719097 20.82522583 35.73553467 C20.16522583 35.73553467 19.50522583 35.73553467 18.82522583 35.73553467 C16.09074297 41.09056361 14.71744718 45.71004703 15.82522583 51.73553467 C18.48395727 57.92830007 22.48185573 62.1398353 28.57522583 65.04803467 C34.24673439 66.24777686 38.9220773 65.72370795 44.07522583 63.04803467 C49.29077708 58.66223021 51.95449516 56.13280226 52.82522583 49.29803467 C53.12439106 42.81318841 51.76203542 39.18502915 47.70022583 34.04803467 C41.34244393 28.93416662 35.56634408 26.49740397 27.76272583 29.48553467 Z M-59.19821167 50.69647217 C-77.08198183 51.41182297 -96.1683927 61.58076013 -109.11227417 73.42303467 C-111.39664579 75.46786001 -111.39664579 75.46786001 -111.17477417 77.73553467 C-111.83477417 77.73553467 -112.49477417 77.73553467 -113.17477417 77.73553467 C-123.54510923 89.98676383 -130.32227709 102.8339278 -133.17477417 118.73553467 C-133.30625854 119.44065186 -133.43774292 120.14576904 -133.57321167 120.87225342 C-136.85676486 142.0378598 -131.28427158 164.12172026 -119.17477417 181.73553467 C-118.51477417 181.73553467 -117.85477417 181.73553467 -117.17477417 181.73553467 C-116.78032104 182.60371826 -116.78032104 182.60371826 -116.37789917 183.48944092 C-113.11147689 189.58746952 -107.67748948 194.64049071 -102.17477417 198.73553467 C-101.51477417 198.73553467 -100.85477417 198.73553467 -100.17477417 198.73553467 C-100.17477417 199.39553467 -100.17477417 200.05553467 -100.17477417 200.73553467 C-96.53364991 202.78498759 -92.86546175 204.77673813 -89.17477417 206.73553467 C-88.32270386 207.18799561 -87.47063354 207.64045654 -86.59274292 208.10662842 C-67.45154224 217.54491631 -46.2561047 218.40852339 -26.17477417 211.73553467 C-11.77002247 206.66148402 0.96415895 198.51093959 10.82522583 186.73553467 C10.82522583 186.07553467 10.82522583 185.41553467 10.82522583 184.73553467 C11.48522583 184.73553467 12.14522583 184.73553467 12.82522583 184.73553467 C14.36314548 182.76699752 15.72922934 180.83166267 17.07522583 178.73553467 C17.47491577 178.11340088 17.87460571 177.49126709 18.28640747 176.85028076 C29.47824171 158.73188218 32.70732523 137.19416535 29.20803833 116.26287842 C26.27915924 104.14561317 20.0272792 91.90313943 12.82522583 81.73553467 C12.16522583 81.73553467 11.50522583 81.73553467 10.82522583 81.73553467 C10.56741333 81.15287842 10.30960083 80.57022217 10.04397583 79.96990967 C8.72688566 77.55524436 7.27434199 75.91813289 5.32522583 73.98553467 C4.71678833 73.37194092 4.10835083 72.75834717 3.48147583 72.12615967 C1.93038306 70.52119379 1.93038306 70.52119379 -0.17477417 70.73553467 C-0.17477417 70.07553467 -0.17477417 69.41553467 -0.17477417 68.73553467 C-18.18398091 54.98047125 -37.16349169 50.98115847 -59.19821167 50.69647217 Z " fill="#230E81" transform="translate(300.1747741699219,116.26446533203125)"/>
<path d="M0 0 C0.78761719 0.59554687 1.57523437 1.19109375 2.38671875 1.8046875 C2.38671875 2.4646875 2.38671875 3.1246875 2.38671875 3.8046875 C2.95390625 4.02125 3.52109375 4.2378125 4.10546875 4.4609375 C13.20664345 9.82190342 17.73007886 21.96729096 20.4609375 31.58984375 C21.4733367 35.74917784 21.77165378 39.72062069 21.76171875 43.9921875 C21.76010742 44.72687256 21.75849609 45.46155762 21.75683594 46.21850586 C21.6023544 53.1981936 19.99856197 59.32949285 17.38671875 65.8046875 C17.09796875 66.53945313 16.80921875 67.27421875 16.51171875 68.03125 C13.05895692 75.76913589 7.24717216 82.87691536 0.38671875 87.8046875 C-0.27328125 87.8046875 -0.93328125 87.8046875 -1.61328125 87.8046875 C-1.61328125 88.4646875 -1.61328125 89.1246875 -1.61328125 89.8046875 C-15.21700163 98.07939143 -29.99586611 101.60471339 -45.796875 98.53515625 C-50.00948638 97.44256495 -53.75310144 95.78829191 -57.61328125 93.8046875 C-58.76763672 93.23621094 -58.76763672 93.23621094 -59.9453125 92.65625 C-61.84161154 91.71972403 -63.72851215 90.76420632 -65.61328125 89.8046875 C-65.61328125 89.1446875 -65.61328125 88.4846875 -65.61328125 87.8046875 C-66.17015625 87.5778125 -66.72703125 87.3509375 -67.30078125 87.1171875 C-71.57640002 84.69048496 -74.75244944 81.37218377 -76.61328125 76.8046875 C-77.27328125 76.8046875 -77.93328125 76.8046875 -78.61328125 76.8046875 C-87.63865449 61.70398211 -90.55325492 45.20197385 -86.61328125 27.8046875 C-83.28101972 17.9643471 -76.85651814 8.20964386 -68.61328125 1.8046875 C-67.95328125 1.8046875 -67.29328125 1.8046875 -66.61328125 1.8046875 C-66.61328125 1.1446875 -66.61328125 0.4846875 -66.61328125 -0.1953125 C-64.2857617 -1.498481 -61.95211341 -2.78772712 -59.61328125 -4.0703125 C-58.96488281 -4.43511719 -58.31648438 -4.79992187 -57.6484375 -5.17578125 C-38.88417773 -15.39394251 -17.27869623 -10.83752545 0 0 Z " fill="#220E81" transform="translate(281.61328125,205.1953125)"/>
<path d="M0 0 C0.66 0 1.32 0 2 0 C2 0.99 2 1.98 2 3 C8.27 3 14.54 3 21 3 C21 3.33 21 3.66 21 4 C4.22679195 5.68363673 -12.36781738 6.29928012 -29.21875 6.265625 C-31.66044147 6.26697828 -34.10213268 6.26892426 -36.54382324 6.27142334 C-41.61957405 6.27434351 -46.69525367 6.27017849 -51.77099609 6.26074219 C-58.20479759 6.24934971 -64.63843207 6.25592606 -71.07222748 6.26788712 C-76.10179858 6.27519058 -81.13133153 6.27277933 -86.16090393 6.26763153 C-88.53023805 6.26631836 -90.89957589 6.26785855 -93.26890564 6.27259064 C-108.94627757 6.29704771 -124.39873871 5.56600075 -140 4 C-137.1131226 2.48151892 -135.23961605 1.7584802 -131.9609375 1.83984375 C-130.84332031 1.8562793 -130.84332031 1.8562793 -129.703125 1.87304688 C-128.93484375 1.89431641 -128.1665625 1.91558594 -127.375 1.9375 C-122.03022902 2.32004242 -122.03022902 2.32004242 -117 1 C-116.67 1.66 -116.34 2.32 -116 3 C-101.17082377 3.07001803 -86.34166935 3.12295273 -71.51236153 3.15543652 C-64.62716274 3.17091885 -57.74206654 3.19203424 -50.85693359 3.22631836 C-44.21745909 3.25936354 -37.57806346 3.27683313 -30.93850327 3.28463173 C-28.40025017 3.29019221 -25.86200319 3.30104979 -23.32379532 3.31719017 C-19.77969801 3.33883888 -16.23604687 3.34197216 -12.69189453 3.34057617 C-11.63310089 3.351362 -10.57430725 3.36214783 -9.48342896 3.3732605 C-8.52146606 3.36913651 -7.55950317 3.36501251 -6.56838989 3.36076355 C-5.72955828 3.36352893 -4.89072666 3.36629431 -4.02647591 3.36914349 C-3.02337033 3.18641746 -3.02337033 3.18641746 -2 3 C-1.34 2.01 -0.68 1.02 0 0 Z " fill="#4C408B" transform="translate(308,377)"/>
<path d="M0 0 C12.04343144 0.63917653 24.00759566 1.73440815 36 3 C36 3.33 36 3.66 36 4 C35.25838623 4.02505615 34.51677246 4.0501123 33.75268555 4.07592773 C30.39744672 4.19186132 27.04249056 4.31459985 23.6875 4.4375 C22.52025391 4.47681641 21.35300781 4.51613281 20.15039062 4.55664062 C19.03212891 4.59853516 17.91386719 4.64042969 16.76171875 4.68359375 C15.2142395 4.73858032 15.2142395 4.73858032 13.63549805 4.79467773 C10.89251742 4.90161242 10.89251742 4.90161242 8 6 C4.80348723 4.40174361 2.46415677 2.55011573 0 0 Z " fill="#3E2F7E" transform="translate(159,407)"/>
<path d="M0 0 C1.98 0 3.96 0 6 0 C4.625 2 4.625 2 3 4 C2.34 4 1.68 4 1 4 C1 4.66 1 5.32 1 6 C0.34 6 -0.32 6 -1 6 C-1.25523437 6.55171875 -1.51046875 7.1034375 -1.7734375 7.671875 C-3.19302074 10.36637058 -4.86132254 12.76778728 -6.625 15.25 C-7.25664062 16.14203125 -7.88828125 17.0340625 -8.5390625 17.953125 C-9.02117187 18.62859375 -9.50328125 19.3040625 -10 20 C-10.66 18.68 -11.32 17.36 -12 16 C-11.34 16 -10.68 16 -10 16 C-9.34 13.03 -8.68 10.06 -8 7 C-6.35 7 -4.7 7 -3 7 C-2.01 4.69 -1.02 2.38 0 0 Z " fill="#5E5394" transform="translate(188,188)"/>
<path d="M0 0 C1.8125 0.125 1.8125 0.125 4 1 C7 6.03571429 7 6.03571429 7 9 C7.66 9 8.32 9 9 9 C9.33 8.34 9.66 7.68 10 7 C11.46726798 10.81489674 10.43336419 13.29011622 9 17 C9.66 17.33 10.32 17.66 11 18 C12 19 12 19 12.0625 21.5625 C12.041875 22.366875 12.02125 23.17125 12 24 C11.34 24 10.68 24 10 24 C9.69707031 23.16597656 9.39414062 22.33195312 9.08203125 21.47265625 C6.76601292 15.25147471 4.34931026 9.39777917 0.91796875 3.70703125 C0 2 0 2 0 0 Z " fill="#45378A" transform="translate(317,204)"/>
<path d="M0 0 C2.69384776 4.04077164 4.25460595 6.68014035 4.22705078 11.58496094 C4.22689972 12.48559265 4.22674866 13.38622437 4.22659302 14.31414795 C4.21627045 15.27782288 4.20594788 16.2414978 4.1953125 17.234375 C4.1924826 18.22753723 4.18965271 19.22069946 4.18673706 20.24395752 C4.17555143 23.41276144 4.15044962 26.58128165 4.125 29.75 C4.11496812 31.8997355 4.10584263 34.04947543 4.09765625 36.19921875 C4.07561741 41.46624246 4.04215584 46.73310096 4 52 C3.67 52 3.34 52 3 52 C2.98018066 51.02877197 2.96036133 50.05754395 2.93994141 49.05688477 C2.86238659 45.36445238 2.77393763 41.67233999 2.68261719 37.98022461 C2.64493262 36.39890983 2.60998952 34.81752674 2.578125 33.23608398 C2.35014354 22.04718155 1.50302693 11.09078451 0 0 Z " fill="#958BC3" transform="translate(405,158)"/>
<path d="M0 0 C7.42087289 9.0838136 6.35008063 20.94004526 6 32 C5.34 32 4.68 32 4 32 C3.92652344 30.42412109 3.92652344 30.42412109 3.8515625 28.81640625 C4.04903987 16.61077018 4.04903987 16.61077018 0 6 C-0.04080783 4.00041636 -0.04254356 1.99954746 0 0 Z " fill="#8277B1" transform="translate(297,226)"/>
<path d="M0 0 C22.50700186 -0.80782858 22.50700186 -0.80782858 33 4 C33.66 4.66 34.32 5.32 35 6 C32.69 6 30.38 6 28 6 C27.67 5.01 27.34 4.02 27 3 C18.09 2.67 9.18 2.34 0 2 C0 1.34 0 0.68 0 0 Z " fill="#6D639B" transform="translate(238,195)"/>
<path d="M0 0 C-0.9377856 3.15436973 -1.42624653 4.65884929 -4.3125 6.375 C-7.06756139 8.04085107 -7.69761369 8.91648695 -9.3125 11.5625 C-11.31250235 14.60096511 -12.77342868 15.57765521 -16.3125 16.4375 C-17.529375 16.623125 -18.74625 16.80875 -20 17 C-19.67 16.34 -19.34 15.68 -19 15 C-18.34 15 -17.68 15 -17 15 C-17 14.34 -17 13.68 -17 13 C-16.34 13 -15.68 13 -15 13 C-15 12.34 -15 11.68 -15 11 C-13.42578125 9.4140625 -13.42578125 9.4140625 -11.3125 7.625 C-10.58417969 7.00753906 -9.85585937 6.39007813 -9.10546875 5.75390625 C-8.41066406 5.17511719 -7.71585938 4.59632812 -7 4 C-6.05125 3.195625 -5.1025 2.39125 -4.125 1.5625 C-2 0 -2 0 0 0 Z " fill="#463789" transform="translate(95,54)"/>
<path d="M0 0 C1.8871875 0.0309375 1.8871875 0.0309375 3.8125 0.0625 C3.4825 1.3825 3.1525 2.7025 2.8125 4.0625 C-1.5661383 3.9690465 -5.94423196 3.86297246 -10.32226562 3.74511719 C-11.81208889 3.70680002 -13.30200554 3.67195192 -14.79199219 3.640625 C-16.93198048 3.59503271 -19.07132436 3.53703126 -21.2109375 3.4765625 C-22.49919434 3.4451416 -23.78745117 3.4137207 -25.11474609 3.38134766 C-28.1875 3.0625 -28.1875 3.0625 -30.1875 1.0625 C-29.16595825 1.07035522 -29.16595825 1.07035522 -28.1237793 1.07836914 C-25.04086223 1.09914458 -21.9579599 1.11216198 -18.875 1.125 C-17.2672168 1.13756836 -17.2672168 1.13756836 -15.62695312 1.15039062 C-14.59892578 1.15361328 -13.57089844 1.15683594 -12.51171875 1.16015625 C-11.56385498 1.16539307 -10.61599121 1.17062988 -9.6394043 1.17602539 C-6.27157293 1.02009175 -3.42987631 -0.05622748 0 0 Z " fill="#3D2F82" transform="translate(265.1875,329.9375)"/>
<path d="M0 0 C6.28371307 -0.10064005 12.32809949 0.24058331 18.5625 1 C19.78936523 1.14308594 19.78936523 1.14308594 21.04101562 1.2890625 C23.02788675 1.52144509 25.01402794 1.76005516 27 2 C25 4 25 4 22.63671875 4.265625 C14.93381623 4.22481492 7.57739342 3.36881946 0 2 C0 1.34 0 0.68 0 0 Z " fill="#605599" transform="translate(205,495)"/>
<path d="M0 0 C0.66 0 1.32 0 2 0 C2 2.64 2 5.28 2 8 C1.34 8 0.68 8 0 8 C-0.28875 8.5775 -0.5775 9.155 -0.875 9.75 C-1.91666667 11.83333333 -2.95833333 13.91666667 -4 16 C-6.31 15.67 -8.62 15.34 -11 15 C-10.278125 14.46375 -9.55625 13.9275 -8.8125 13.375 C-4.36419025 9.61864954 -0.53893505 6.1079306 0 0 Z " fill="#504394" transform="translate(352,166)"/>
<path d="M0 0 C1.51400391 0.01740234 1.51400391 0.01740234 3.05859375 0.03515625 C4.07050781 0.04417969 5.08242188 0.05320312 6.125 0.0625 C7.29869141 0.07990234 7.29869141 0.07990234 8.49609375 0.09765625 C8.49609375 0.75765625 8.49609375 1.41765625 8.49609375 2.09765625 C0.26786061 3.58404675 -8.12677655 5.03921794 -16.50390625 4.09765625 C-17.16390625 3.43765625 -17.82390625 2.77765625 -18.50390625 2.09765625 C-17.43269531 2.03707031 -16.36148437 1.97648437 -15.2578125 1.9140625 C-13.86066234 1.82967088 -12.46352768 1.74502219 -11.06640625 1.66015625 C-10.00583008 1.60118164 -10.00583008 1.60118164 -8.92382812 1.54101562 C-5.59280504 1.3338228 -3.0599718 0.11934367 0 0 Z " fill="#5A4E92" transform="translate(286.50390625,494.90234375)"/>
<path d="M0 0 C5.04646843 1.29095704 7.48888807 3.21169503 11 7 C12.11375 7.7425 12.11375 7.7425 13.25 8.5 C15.54987545 10.47132182 15.68158365 12.0546488 16 15 C14.66102417 14.04956626 13.32894573 13.08940853 12 12.125 C11.2575 11.59132812 10.515 11.05765625 9.75 10.5078125 C9.1725 10.01023438 8.595 9.51265625 8 9 C8 8.34 8 7.68 8 7 C7.2575 6.7525 6.515 6.505 5.75 6.25 C2.79875938 4.90852699 1.15185026 3.39094474 -1 1 C-0.67 0.67 -0.34 0.34 0 0 Z " fill="#64589D" transform="translate(292,178)"/>
<path d="M0 0 C7.39425587 -0.37597911 7.39425587 -0.37597911 10.37890625 1.4765625 C13.50102972 3.29120952 15.66617371 3.42567905 19.25 3.5625 C22.453125 3.69140625 22.453125 3.69140625 25 4 C25.33 4.66 25.66 5.32 26 6 C21.90144364 7.6670294 18.19726976 6.28962806 14.125 5.1875 C13.43019531 5.00896484 12.73539063 4.83042969 12.01953125 4.64648438 C7.95473627 3.58626949 3.97146718 2.37569631 0 1 C0 0.67 0 0.34 0 0 Z " fill="#5E529B" transform="translate(172,487)"/>
<path d="M0 0 C3.39547359 3.39547359 5.84790259 6.58792637 8.3125 10.625 C8.68439453 11.21023437 9.05628906 11.79546875 9.43945312 12.3984375 C10.35989729 13.89308798 11.18825721 15.44363527 12 17 C11.67 17.66 11.34 18.32 11 19 C10.01 18.67 9.02 18.34 8 18 C7.67 16.35 7.34 14.7 7 13 C5.68 12.67 4.36 12.34 3 12 C2.01 8.04 1.02 4.08 0 0 Z " fill="#5E529A" transform="translate(456,108)"/>
<path d="M0 0 C0.33 1.32 0.66 2.64 1 4 C0.34 4 -0.32 4 -1 4 C-1.33 5.32 -1.66 6.64 -2 8 C-3.32 8.33 -4.64 8.66 -6 9 C-6 10.65 -6 12.3 -6 14 C-6.66 14 -7.32 14 -8 14 C-8.33 14.99 -8.66 15.98 -9 17 C-9.66 17 -10.32 17 -11 17 C-11 17.66 -11 18.32 -11 19 C-11.66 18.67 -12.32 18.34 -13 18 C-9.06511206 11.5621508 -5.08659044 5.58284316 0 0 Z " fill="#6C5CA3" transform="translate(53,95)"/>
<path d="M0 0 C0.598125 0.226875 1.19625 0.45375 1.8125 0.6875 C1.8125 1.3475 1.8125 2.0075 1.8125 2.6875 C0.1625 3.0175 -1.4875 3.3475 -3.1875 3.6875 C-3.1875 4.6775 -3.1875 5.6675 -3.1875 6.6875 C-6 9.4375 -6 9.4375 -9.1875 11.6875 C-10.1775 11.3575 -11.1675 11.0275 -12.1875 10.6875 C-11.8575 10.0275 -11.5275 9.3675 -11.1875 8.6875 C-10.5275 8.6875 -9.8675 8.6875 -9.1875 8.6875 C-9.1875 8.0275 -9.1875 7.3675 -9.1875 6.6875 C-8.5275 6.6875 -7.8675 6.6875 -7.1875 6.6875 C-6.919375 6.089375 -6.65125 5.49125 -6.375 4.875 C-3.46022727 -0.49431818 -3.46022727 -0.49431818 0 0 Z " fill="#47388E" transform="translate(76.1875,71.3125)"/>
<path d="M0 0 C2.96404505 2.80804268 5.44499019 5.18315774 7 9 C7.66 9 8.32 9 9 9 C9 9.66 9 10.32 9 11 C9.66 11.33 10.32 11.66 11 12 C7 12 7 12 5.25 10.5 C4.8375 10.005 4.425 9.51 4 9 C2.02 9.99 2.02 9.99 0 11 C0 8 0 8 0.5625 6.0625 C1.06292559 3.70335078 0.73011998 2.2714844 0 0 Z " fill="#4C3D90" transform="translate(105,373)"/>
<path d="M0 0 C0.66 0.66 1.32 1.32 2 2 C2.66 2 3.32 2 4 2 C3.67 2.99 3.34 3.98 3 5 C1.35 4.67 -0.3 4.34 -2 4 C-2.0825 4.7425 -2.165 5.485 -2.25 6.25 C-3.16752658 9.61426412 -4.26219512 10.87059621 -7 13 C-9.75 13.75 -9.75 13.75 -12 14 C-11.60167969 13.54109375 -11.20335937 13.0821875 -10.79296875 12.609375 C-7.39984291 8.68325173 -7.39984291 8.68325173 -4.25 4.5625 C-3.8375 4.046875 -3.425 3.53125 -3 3 C-2.34 3 -1.68 3 -1 3 C-0.67 2.01 -0.34 1.02 0 0 Z " fill="#584A97" transform="translate(314,298)"/>
<path d="M0 0 C1.60422719 3.20845438 2.90307453 6.2669678 4.125 9.625 C4.47820312 10.58664063 4.83140625 11.54828125 5.1953125 12.5390625 C6 15 6 15 6 17 C5.01 16.67 4.02 16.34 3 16 C3 14.68 3 13.36 3 12 C1.35 12 -0.3 12 -2 12 C-1.34 8.04 -0.68 4.08 0 0 Z " fill="#4F4191" transform="translate(483,158)"/>
<path d="M0 0 C0.33 0 0.66 0 1 0 C1.33266291 6.20970773 0.45029331 10.28264895 -2 16 C-1.34 16.33 -0.68 16.66 0 17 C-1.65 18.65 -3.3 20.3 -5 22 C-5.66 21.67 -6.32 21.34 -7 21 C-6.57847656 19.90300781 -6.15695312 18.80601562 -5.72265625 17.67578125 C-5.16906538 16.22143235 -4.61569138 14.7670009 -4.0625 13.3125 C-3.78470703 12.59126953 -3.50691406 11.87003906 -3.22070312 11.12695312 C-1.82233426 7.43728107 -0.61063996 3.91891718 0 0 Z " fill="#60549F" transform="translate(328,266)"/>
<path d="M0 0 C1 2 1 2 0.125 4.875 C-0.24625 5.90625 -0.6175 6.9375 -1 8 C-1.12375 8.70125 -1.2475 9.4025 -1.375 10.125 C-2.25783752 12.77351255 -3.95968673 14.1571364 -6 16 C-7 13 -7 13 -5.8203125 10.1171875 C-5.26085937 9.04726562 -4.70140625 7.97734375 -4.125 6.875 C-3.57070312 5.79992187 -3.01640625 4.72484375 -2.4453125 3.6171875 C-1 1 -1 1 0 0 Z " fill="#554796" transform="translate(128,141)"/>
<path d="M0 0 C4.4426634 6.6639951 5.3754415 13.11572856 5 21 C4.34 21 3.68 21 3 21 C2.49576443 18.25071558 1.99646574 15.50068857 1.5 12.75 C1.35691406 11.97269531 1.21382813 11.19539063 1.06640625 10.39453125 C0.93105469 9.64042969 0.79570313 8.88632812 0.65625 8.109375 C0.46772461 7.07248535 0.46772461 7.07248535 0.27539062 6.01464844 C0 4 0 4 0 0 Z " fill="#61569C" transform="translate(2,283)"/>
<path d="M0 0 C0.66 0 1.32 0 2 0 C2 0.99 2 1.98 2 3 C8.27 3 14.54 3 21 3 C21 3.33 21 3.66 21 4 C13.31516461 4.67453101 5.71589817 5.1567564 -2 5 C-1.34 3.35 -0.68 1.7 0 0 Z " fill="#574B97" transform="translate(308,377)"/>
<path d="M0 0 C0.515625 0.433125 1.03125 0.86625 1.5625 1.3125 C3.64850629 2.7566582 5.36488227 3.62580643 7.6875 4.5625 C11 6 11 6 12 8 C7.95295419 7.27595226 4.10929598 6.16553713 0.1875 4.9375 C-0.97394531 4.57527344 -2.13539063 4.21304688 -3.33203125 3.83984375 C-4.21246094 3.56269531 -5.09289062 3.28554687 -6 3 C-6 2.67 -6 2.34 -6 2 C-4.02 2 -2.04 2 0 2 C0 1.34 0 0.68 0 0 Z " fill="#5C509C" transform="translate(348,91)"/>
<path d="M0 0 C6.67912288 0.01892103 13.24281845 0.41358684 19.8828125 1.1328125 C19.8828125 1.4628125 19.8828125 1.7928125 19.8828125 2.1328125 C16.80053541 2.35937151 13.7171109 2.56084715 10.6328125 2.7578125 C9.76011719 2.82226562 8.88742187 2.88671875 7.98828125 2.953125 C7.14394531 3.0046875 6.29960937 3.05625 5.4296875 3.109375 C4.65463867 3.16174316 3.87958984 3.21411133 3.08105469 3.26806641 C0.57477013 3.1138592 -0.96558623 2.38862758 -3.1171875 1.1328125 C-2.1171875 0.1328125 -2.1171875 0.1328125 0 0 Z " fill="#675DA6" transform="translate(264.1171875,-0.1328125)"/>
<path d="M0 0 C0.66 0 1.32 0 2 0 C2.29530838 6.49678438 1.17293889 12.6221448 0 19 C-0.33 19 -0.66 19 -1 19 C-1.93838047 12.10163546 -2.13645572 6.66071488 0 0 Z " fill="#7970AB" transform="translate(497,277)"/>
<path d="M0 0 C0.66 -0.33 1.32 -0.66 2 -1 C4.3329866 -1.04022391 6.66706666 -1.04320247 9 -1 C3.96003362 2.35997759 -0.99709677 3.29282455 -7 3 C-7 2.34 -7 1.68 -7 1 C-7.99 0.67 -8.98 0.34 -10 0 C-6.30465669 -1.2317811 -3.81327437 -0.55465809 0 0 Z " fill="#3A2C84" transform="translate(313,490)"/>
<path d="M0 0 C5.28 0.33 10.56 0.66 16 1 C16 1.33 16 1.66 16 2 C14.02 2.33 12.04 2.66 10 3 C10.33 3.66 10.66 4.32 11 5 C10.01 5.33 9.02 5.66 8 6 C4.68783725 4.34391862 2.64779693 2.64779693 0 0 Z " fill="#6A5BA8" transform="translate(159,407)"/>
<path d="M0 0 C1.0625 1.8125 1.0625 1.8125 2 4 C1.67 4.99 1.34 5.98 1 7 C1.99 7 2.98 7 4 7 C4.33 9.64 4.66 12.28 5 15 C4.01 15.495 4.01 15.495 3 16 C0.55099237 10.88902756 -0.60905161 6.66875172 -1 1 C-0.67 0.67 -0.34 0.34 0 0 Z " fill="#524594" transform="translate(119,331)"/>
<path d="M0 0 C0.33 1.32 0.66 2.64 1 4 C0.01 4.33 -0.98 4.66 -2 5 C-2.12375 5.7425 -2.2475 6.485 -2.375 7.25 C-2.95486701 9.80141485 -3.73708739 11.7267573 -5 14 C-5.99 13.67 -6.98 13.34 -8 13 C-7.04600922 11.20601733 -6.08665974 9.41488345 -5.125 7.625 C-4.59132812 6.62726563 -4.05765625 5.62953125 -3.5078125 4.6015625 C-2 2 -2 2 0 0 Z " fill="#534694" transform="translate(206,214)"/>
<path d="M0 0 C0.33 1.32 0.66 2.64 1 4 C0.34 4 -0.32 4 -1 4 C-1 5.65 -1 7.3 -1 9 C-0.01 9.33 0.98 9.66 2 10 C1.01 10.99 0.02 11.98 -1 13 C-1 12.34 -1 11.68 -1 11 C-2.65 11 -4.3 11 -6 11 C-4.54955729 6.89041233 -2.48889248 3.56741255 0 0 Z " fill="#5A4C9C" transform="translate(39,114)"/>
<path d="M0 0 C5.80205656 5.64524422 5.80205656 5.64524422 8 9 C8 9.66 8 10.32 8 11 C8.66 11 9.32 11 10 11 C10.33 11.99 10.66 12.98 11 14 C10.01 14.495 10.01 14.495 9 15 C9 14.01 9 13.02 9 12 C8.34 12 7.68 12 7 12 C7 11.34 7 10.68 7 10 C5.68 9.34 4.36 8.68 3 8 C3 7.34 3 6.68 3 6 C2.34 6 1.68 6 1 6 C0.67 4.02 0.34 2.04 0 0 Z " fill="#554992" transform="translate(440,87)"/>
<path d="M0 0 C0.66 0.33 1.32 0.66 2 1 C2 1.99 2 2.98 2 4 C-2.455 4.495 -2.455 4.495 -7 5 C-7 5.66 -7 6.32 -7 7 C-8.65 7 -10.3 7 -12 7 C-8.44008172 4.03340143 -4.34777457 1.618652 0 0 Z " fill="#60549B" transform="translate(289,320)"/>
<path d="M0 0 C1.16448444 3.49345333 0.49878249 5.32622458 -0.453125 8.79296875 C-1.28971257 12.16919716 -1.62972314 15.54408262 -2 19 C-2.33 19 -2.66 19 -3 19 C-4.51708428 7.47835991 -4.51708428 7.47835991 -2 2 C-1.34 2 -0.68 2 0 2 C0 1.34 0 0.68 0 0 Z " fill="#776DAC" transform="translate(169,224)"/>
<path d="M0 0 C0.33 0 0.66 0 1 0 C1.50423557 2.74928442 2.00353426 5.49931143 2.5 8.25 C2.64308594 9.02730469 2.78617187 9.80460938 2.93359375 10.60546875 C3.06894531 11.35957031 3.20429688 12.11367187 3.34375 12.890625 C3.53227539 13.92751465 3.53227539 13.92751465 3.72460938 14.98535156 C4 17 4 17 4 21 C3.34 21 2.68 21 2 21 C2 17.37 2 13.74 2 10 C1.34 10 0.68 10 0 10 C-0.74926071 6.33694766 -1.2380014 3.57644848 0 0 Z " fill="#6E64A4" transform="translate(494,195)"/>
<path d="M0 0 C-3.625 5.875 -3.625 5.875 -7 7 C-7 6.01 -7 5.02 -7 4 C-7.99 3.34 -8.98 2.68 -10 2 C-8.71211992 1.46987262 -7.41953322 0.9511671 -6.125 0.4375 C-5.40570313 0.14746094 -4.68640625 -0.14257812 -3.9453125 -0.44140625 C-2 -1 -2 -1 0 0 Z " fill="#443392" transform="translate(164,16)"/>
<path d="M0 0 C1.32 0 2.64 0 4 0 C4 0.66 4 1.32 4 2 C6.31 2.33 8.62 2.66 11 3 C11 3.66 11 4.32 11 5 C12.65 5 14.3 5 16 5 C16 5.99 16 6.98 16 8 C12.24654344 7.28028381 9.13908031 5.66887798 5.75 3.9375 C4.67234375 3.38964844 3.5946875 2.84179688 2.484375 2.27734375 C1.66453125 1.85582031 0.8446875 1.43429687 0 1 C0 0.67 0 0.34 0 0 Z " fill="#594E96" transform="translate(128,468)"/>
<path d="M0 0 C1.32 0.33 2.64 0.66 4 1 C4 1.99 4 2.98 4 4 C4.99 4.33 5.98 4.66 7 5 C1.06 5.495 1.06 5.495 -5 6 C-5.33 5.34 -5.66 4.68 -6 4 C-4.02 4 -2.04 4 0 4 C0 2.68 0 1.36 0 0 Z " fill="#5D509C" transform="translate(250,299)"/>
<path d="M0 0 C2 3 2 3 1.625 5.1875 C1.41875 5.785625 1.2125 6.38375 1 7 C0.34 7 -0.32 7 -1 7 C-1.33 8.98 -1.66 10.96 -2 13 C-2.99 13.33 -3.98 13.66 -5 14 C-4.54636829 12.41531323 -4.08688548 10.83230076 -3.625 9.25 C-3.36976562 8.36828125 -3.11453125 7.4865625 -2.8515625 6.578125 C-2.0790066 4.23919428 -1.16374324 2.16557438 0 0 Z " fill="#5D509D" transform="translate(20,150)"/>
<path d="M0 0 C0.7425 0.45375 1.485 0.9075 2.25 1.375 C4.44874794 2.67426015 6.71569364 3.85784682 9 5 C5.7 5.66 2.4 6.32 -1 7 C-0.67 6.34 -0.34 5.68 0 5 C-0.99 4.34 -1.98 3.68 -3 3 C-2.01 2.01 -1.02 1.02 0 0 Z " fill="#483395" transform="translate(297,489)"/>
<path d="M0 0 C0.66 1.32 1.32 2.64 2 4 C2.66 4 3.32 4 4 4 C5.2890625 5.75 5.2890625 5.75 6.625 8 C7.07101563 8.7425 7.51703125 9.485 7.9765625 10.25 C8.31429687 10.8275 8.65203125 11.405 9 12 C8.01 12 7.02 12 6 12 C4.62131719 10.37064759 3.28725907 8.70250393 2 7 C1.34 6.67 0.68 6.34 0 6 C0 4.02 0 2.04 0 0 Z " fill="#584C94" transform="translate(179,294)"/>
<path d="M0 0 C2.97 0.495 2.97 0.495 6 1 C4.1625556 2.22496293 2.29237027 3.40435984 0.375 4.5 C-2.1057227 5.78026262 -2.1057227 5.78026262 -3 8 C-3.66 8 -4.32 8 -5 8 C-5.33 6.35 -5.66 4.7 -6 3 C-4.02 3 -2.04 3 0 3 C0 2.01 0 1.02 0 0 Z " fill="#554597" transform="translate(324,144)"/>
<path d="M0 0 C-1.32 0.33 -2.64 0.66 -4 1 C-4 1.66 -4 2.32 -4 3 C-9.625 4.125 -9.625 4.125 -13 3 C-13 3.66 -13 4.32 -13 5 C-14.65 4.67 -16.3 4.34 -18 4 C-14.89576443 2.31945639 -11.83501066 1.26010501 -8.4375 0.3125 C-7.48746094 0.04050781 -6.53742188 -0.23148437 -5.55859375 -0.51171875 C-3 -1 -3 -1 0 0 Z " fill="#695CA4" transform="translate(197,6)"/>
<path d="M0 0 C-1.375 2 -1.375 2 -3 4 C-3.66 4 -4.32 4 -5 4 C-5 4.66 -5 5.32 -5 6 C-5.66 6 -6.32 6 -7 6 C-7.33 4.35 -7.66 2.7 -8 1 C-4.93251126 -0.86240388 -3.40254489 -1.2151946 0 0 Z " fill="#544794" transform="translate(427,427)"/>
<path d="M0 0 C4.29 0.99 8.58 1.98 13 3 C13 3.33 13 3.66 13 4 C9.37 4.33 5.74 4.66 2 5 C2 4.34 2 3.68 2 3 C1.01 2.67 0.02 2.34 -1 2 C-0.67 1.34 -0.34 0.68 0 0 Z " fill="#524595" transform="translate(142,402)"/>
<path d="M0 0 C2.73905337 3.15178744 3.55269393 5.64817614 4.1875 9.75 C4.34605469 10.73484375 4.50460937 11.7196875 4.66796875 12.734375 C4.77753906 13.48203125 4.88710938 14.2296875 5 15 C1.07017363 12.38011575 0.98313669 10.53755394 0 6 C-0.125 2.5625 -0.125 2.5625 0 0 Z " fill="#594D99" transform="translate(297,226)"/>
<path d="M0 0 C-2.26708325 0.8655047 -4.53775079 1.71759315 -6.8125 2.5625 C-7.77639648 2.9327832 -7.77639648 2.9327832 -8.75976562 3.31054688 C-13.66015625 5.11328125 -13.66015625 5.11328125 -17 4 C-14.60523231 1.14198216 -12.69509117 0.42735535 -9.0625 -0.25 C-8.20785156 -0.42015625 -7.35320312 -0.5903125 -6.47265625 -0.765625 C-4.00466983 -0.99955736 -2.33985901 -0.76004701 0 0 Z " fill="#7268A4" transform="translate(341,484)"/>
<path d="M0 0 C0.66 0.33 1.32 0.66 2 1 C2 1.66 2 2.32 2 3 C2.99 3.33 3.98 3.66 5 4 C2.03312999 5.64826111 -0.65626525 6.44271087 -4 7 C-3.67 5.35 -3.34 3.7 -3 2 C-2.01 2 -1.02 2 0 2 C0 1.34 0 0.68 0 0 Z " fill="#3D2B8F" transform="translate(116,385)"/>
<path d="M0 0 C1.32 0 2.64 0 4 0 C3.39254603 4.85963179 1.27241033 8.7405518 -1 13 C-1.93423645 9.98968256 -2.04449911 9.13349732 -1 6 C-0.34 6 0.32 6 1 6 C0.67 4.02 0.34 2.04 0 0 Z " fill="#554895" transform="translate(475,350)"/>
<path d="M0 0 C3.63 0 7.26 0 11 0 C11 0.66 11 1.32 11 2 C5.06 2.495 5.06 2.495 -1 3 C-0.67 2.01 -0.34 1.02 0 0 Z " fill="#65599C" transform="translate(284,495)"/>
<path d="M0 0 C-3.64116773 3.33773709 -7.28607242 3.97864902 -12 5 C-12 4.01 -12 3.02 -12 2 C-7.8803623 0.70756464 -4.33168317 -0.26252625 0 0 Z " fill="#584D9A" transform="translate(275,297)"/>
<path d="M0 0 C4.52048157 3.13922331 6.51545911 6.21495828 9 11 C7.68 10.67 6.36 10.34 5 10 C5 9.01 5 8.02 5 7 C4.01 6.67 3.02 6.34 2 6 C0.8125 2.9375 0.8125 2.9375 0 0 Z " fill="#6B619F" transform="translate(285,209)"/>
<path d="M0 0 C1.32 0.33 2.64 0.66 4 1 C2.68775452 4.93673644 1.08089673 7.22719294 -2 10 C-2.33 8.68 -2.66 7.36 -3 6 C-2.34 6 -1.68 6 -1 6 C-0.67 4.02 -0.34 2.04 0 0 Z " fill="#62519E" transform="translate(179,198)"/>
<path d="M0 0 C2.96052484 3.36423277 3.92289822 6.69159287 5 11 C2.5625 10.25 2.5625 10.25 0 9 C-1.50957612 5.8730209 -0.82014807 3.28059227 0 0 Z " fill="#6658A2" transform="translate(475,140)"/>
<path d="M0 0 C4.62 1.65 9.24 3.3 14 5 C14 5.33 14 5.66 14 6 C11.69 6.33 9.38 6.66 7 7 C7 6.01 7 5.02 7 4 C5.68 4 4.36 4 3 4 C3 3.34 3 2.68 3 2 C2.01 2 1.02 2 0 2 C0 1.34 0 0.68 0 0 Z " fill="#6557A1" transform="translate(342,17)"/>
<path d="M0 0 C1.32 1.32 2.64 2.64 4 4 C2.87926138 4.83905565 1.75325453 5.67107831 0.625 6.5 C-0.00148438 6.9640625 -0.62796875 7.428125 -1.2734375 7.90625 C-3 9 -3 9 -5 9 C-5 7.68 -5 6.36 -5 5 C-3.02 4.67 -1.04 4.34 1 4 C0.67 2.68 0.34 1.36 0 0 Z " fill="#4E3F8E" transform="translate(395,448)"/>
<path d="M0 0 C2.31 0 4.62 0 7 0 C7.33 1.98 7.66 3.96 8 6 C6.02 5.01 4.04 4.02 2 3 C2 2.34 2 1.68 2 1 C1.34 0.67 0.68 0.34 0 0 Z " fill="#493B8E" transform="translate(91,443)"/>
<path d="M0 0 C-2.96178773 1.67110042 -5.37071192 2.32682752 -8.75 2.625 C-9.54921875 2.69976562 -10.3484375 2.77453125 -11.171875 2.8515625 C-11.77515625 2.90054687 -12.3784375 2.94953125 -13 3 C-13 2.34 -13 1.68 -13 1 C-11.58622218 0.63447197 -10.16879424 0.28304505 -8.75 -0.0625 C-7.96109375 -0.25972656 -7.1721875 -0.45695312 -6.359375 -0.66015625 C-3.89605178 -1.01497267 -2.34395868 -0.76877544 0 0 Z " fill="#574B96" transform="translate(346,406)"/>
<path d="M0 0 C2.64 0 5.28 0 8 0 C7.67 1.32 7.34 2.64 7 4 C4.03 3.505 4.03 3.505 1 3 C0.67 2.01 0.34 1.02 0 0 Z " fill="#45368A" transform="translate(261,330)"/>
<path d="M0 0 C2.475 0.99 2.475 0.99 5 2 C2.61042731 5.24299151 0.7952131 7.50902342 -3 9 C-2.67 7.68 -2.34 6.36 -2 5 C-1.34 5.33 -0.68 5.66 0 6 C0 4.02 0 2.04 0 0 Z " fill="#524694" transform="translate(284,284)"/>
<path d="M0 0 C1.32 0.66 2.64 1.32 4 2 C2.824375 2.928125 2.824375 2.928125 1.625 3.875 C-0.96837647 5.89858661 -0.96837647 5.89858661 -3 8 C-3.625 6.1875 -3.625 6.1875 -4 4 C-3.34 3.01 -2.68 2.02 -2 1 C-1.34 1.33 -0.68 1.66 0 2 C0 1.34 0 0.68 0 0 Z " fill="#4C3E91" transform="translate(116,109)"/>
<path d="M0 0 C0.66 0 1.32 0 2 0 C1.71572583 1.58467728 1.42225182 3.1677057 1.125 4.75 C0.96257812 5.63171875 0.80015625 6.5134375 0.6328125 7.421875 C0.03203736 9.86947744 -0.77997117 11.80599857 -2 14 C-2 12.35 -2 10.7 -2 9 C-2.66 8.67 -3.32 8.34 -4 8 C-2.68 7.34 -1.36 6.68 0 6 C0 4.02 0 2.04 0 0 Z " fill="#6456A0" transform="translate(490,313)"/>
<path d="M0 0 C5.27749285 0.53851968 9.25645564 1.77343836 14 4 C14 4.33 14 4.66 14 5 C11.69 5 9.38 5 7 5 C6.67 4.01 6.34 3.02 6 2 C3.69 2 1.38 2 -1 2 C-0.67 1.34 -0.34 0.68 0 0 Z " fill="#64599C" transform="translate(259,196)"/>
<path d="M0 0 C0.33 0 0.66 0 1 0 C2.51708428 11.52164009 2.51708428 11.52164009 0 17 C-0.33 17 -0.66 17 -1 17 C-0.67 11.39 -0.34 5.78 0 0 Z " fill="#6357A0" transform="translate(117,167)"/>
<path d="M0 0 C1.32 0 2.64 0 4 0 C7.22265625 5.2734375 7.22265625 5.2734375 8 7 C7.67 7.66 7.34 8.32 7 9 C5.5 7.625 5.5 7.625 4 6 C4 5.34 4 4.68 4 4 C3.34 4 2.68 4 2 4 C1.34 2.68 0.68 1.36 0 0 Z " fill="#6C61A1" transform="translate(65,418)"/>
<path d="M0 0 C0.99 0.33 1.98 0.66 3 1 C2.46930939 4.82097239 1.50298434 7.06171403 -1 10 C-1.9765625 3.9453125 -1.9765625 3.9453125 -2 2 C-1.34 1.34 -0.68 0.68 0 0 Z " fill="#5D4F9E" transform="translate(372,343)"/>
<path d="M0 0 C1.32 0.33 2.64 0.66 4 1 C4.66 4.3 5.32 7.6 6 11 C0 3 0 3 0 0 Z " fill="#695DA0" transform="translate(317,204)"/>
<path d="M0 0 C1.80411967 2.75924185 2.0127245 3.88972103 1.625 7.25 C1.41875 8.1575 1.2125 9.065 1 10 C0.34 10 -0.32 10 -1 10 C-1.33 11.32 -1.66 12.64 -2 14 C-1.03644647 4.58997722 -1.03644647 4.58997722 0 0 Z " fill="#5D4E98" transform="translate(9,179)"/>
<path d="M0 0 C0.66 0.33 1.32 0.66 2 1 C0.515 7.435 0.515 7.435 -1 14 C-1.33 14 -1.66 14 -2 14 C-2.3690205 4.58997722 -2.3690205 4.58997722 0 0 Z " fill="#7164AA" transform="translate(317,151)"/>
<path d="M0 0 C1 2 1 2 1 6 C-2.75 8 -2.75 8 -5 8 C-4.45773019 4.20411134 -2.79872437 2.52788007 0 0 Z " fill="#524696" transform="translate(63,83)"/>
<path d="M0 0 C0.66 0.33 1.32 0.66 2 1 C2.73075648 3.3140622 3.40138258 5.64828869 4 8 C3.34 8 2.68 8 2 8 C2 7.34 2 6.68 2 6 C1.0409375 5.566875 1.0409375 5.566875 0.0625 5.125 C-2 4 -2 4 -3 2 C-2.01 1.34 -1.02 0.68 0 0 Z " fill="#63589B" transform="translate(76,425)"/>
<path d="M0 0 C1.32 0 2.64 0 4 0 C6 3 6 3 6 6 C5.01 6 4.02 6 3 6 C3 5.34 3 4.68 3 4 C2.34 4 1.68 4 1 4 C0.67 2.68 0.34 1.36 0 0 Z " fill="#453589" transform="translate(58,409)"/>
<path d="M0 0 C3.3 0 6.6 0 10 0 C7.09907498 1.93395001 6.10325263 2.30131941 2.8125 2.625 C1.554375 2.74875 0.29625 2.8725 -1 3 C-0.67 2.01 -0.34 1.02 0 0 Z " fill="#544694" transform="translate(330,377)"/>
<path d="M0 0 C0.33 0.99 0.66 1.98 1 3 C-0.75 5.0625 -0.75 5.0625 -3 7 C-5.25 6.75 -5.25 6.75 -7 6 C-5.625 4.5 -5.625 4.5 -4 3 C-3.34 3 -2.68 3 -2 3 C-2 2.34 -2 1.68 -2 1 C-1.34 0.67 -0.68 0.34 0 0 Z " fill="#51448D" transform="translate(217,204)"/>
<path d="M0 0 C-1.45733042 4.61487965 -1.45733042 4.61487965 -3.9375 6.375 C-6 7 -6 7 -9 6 C-7.8803014 4.99406757 -6.7540588 3.9954151 -5.625 3 C-4.68527344 2.1646875 -4.68527344 2.1646875 -3.7265625 1.3125 C-2 0 -2 0 0 0 Z " fill="#63549E" transform="translate(95,54)"/>
<path d="M0 0 C3.3 1.98 6.6 3.96 10 6 C9.34 6.66 8.68 7.32 8 8 C8 7.34 8 6.68 8 6 C6.8553125 6.12375 6.8553125 6.12375 5.6875 6.25 C3 6 3 6 1.1875 4.125 C0 2 0 2 0 0 Z " fill="#64569D" transform="translate(382,37)"/>
<path d="M0 0 C4.09305456 1.65296434 7.58983503 3.13546142 11 6 C8.36 6 5.72 6 3 6 C3 4.68 3 3.36 3 2 C2.01 2 1.02 2 0 2 C0 1.34 0 0.68 0 0 Z " fill="#6758A2" transform="translate(366,28)"/>
<path d="M0 0 C0.33 0.66 0.66 1.32 1 2 C1.66 2.33 2.32 2.66 3 3 C-1.95 5.475 -1.95 5.475 -7 8 C-7 7.01 -7 6.02 -7 5 C-6.01 5 -5.02 5 -4 5 C-4 4.34 -4 3.68 -4 3 C-2.68 3 -1.36 3 0 3 C0 2.01 0 1.02 0 0 Z " fill="#5F529A" transform="translate(369,466)"/>
<path d="M0 0 C0.99 0.33 1.98 0.66 3 1 C2.67 1.66 2.34 2.32 2 3 C1.34 3 0.68 3 0 3 C0 3.66 0 4.32 0 5 C-0.99 5.33 -1.98 5.66 -3 6 C-3.66 4.68 -4.32 3.36 -5 2 C-4.01 1.67 -3.02 1.34 -2 1 C-1.34 1.33 -0.68 1.66 0 2 C0 1.34 0 0.68 0 0 Z " fill="#483A90" transform="translate(413,436)"/>
<path d="M0 0 C0.66 0 1.32 0 2 0 C2.66 2.31 3.32 4.62 4 7 C3.01 7.495 3.01 7.495 2 8 C1.34 7.67 0.68 7.34 0 7 C-0.6875 4 -0.6875 4 -1 1 C-0.67 0.67 -0.34 0.34 0 0 Z " fill="#1F0E71" transform="translate(91,349)"/>
<path d="M0 0 C4.19360449 0.67097672 7.40334352 2.8558394 11 5 C8.21176345 6.0326802 7.1322726 6.04509293 4.25 5.0625 C3.5075 4.711875 2.765 4.36125 2 4 C2 3.34 2 2.68 2 2 C1.34 2 0.68 2 0 2 C0 1.34 0 0.68 0 0 Z " fill="#66599A" transform="translate(200,317)"/>
<path d="M0 0 C0.33 0 0.66 0 1 0 C1.05422947 1.4370809 1.09289723 2.87475462 1.125 4.3125 C1.14820313 5.11300781 1.17140625 5.91351563 1.1953125 6.73828125 C1 9 1 9 -1 12 C-1.66 10.02 -2.32 8.04 -3 6 C-2.01 5.67 -1.02 5.34 0 5 C0 3.35 0 1.7 0 0 Z " fill="#21106F" transform="translate(165,238)"/>
<path d="M0 0 C1 3 1 3 -0.4375 6.1875 C-1.2109375 7.5796875 -1.2109375 7.5796875 -2 9 C-2.33 7.68 -2.66 6.36 -3 5 C-3.66 5 -4.32 5 -5 5 C-5 4.34 -5 3.68 -5 3 C-4.01 3 -3.02 3 -2 3 C-1.67 2.34 -1.34 1.68 -1 1 C-0.67 0.67 -0.34 0.34 0 0 Z " fill="#6155A0" transform="translate(175,209)"/>
<path d="M0 0 C1.65 0 3.3 0 5 0 C3.35 2.64 1.7 5.28 0 8 C-1.09658936 4.71023192 -0.79953138 3.28696233 0 0 Z " fill="#574A9C" transform="translate(102,124)"/>
<path d="M0 0 C0.66 0 1.32 0 2 0 C2 0.99 2 1.98 2 3 C0.25 4.75 0.25 4.75 -2 6 C-4.25 5.6875 -4.25 5.6875 -6 5 C-5.195625 4.360625 -4.39125 3.72125 -3.5625 3.0625 C-1.7249496 1.59396498 -1.7249496 1.59396498 0 0 Z " fill="#43358C" transform="translate(114,39)"/>
<path d="M0 0 C0.66 0.99 1.32 1.98 2 3 C1.34 3 0.68 3 0 3 C-0.0825 3.78375 -0.165 4.5675 -0.25 5.375 C-1 8 -1 8 -3.0625 9.3125 C-4.0215625 9.6528125 -4.0215625 9.6528125 -5 10 C-3.66511872 6.40608886 -2.03977277 3.24509304 0 0 Z " fill="#766CAB" transform="translate(320,288)"/>
<path d="M0 0 C0.33 0 0.66 0 1 0 C1.33 2.31 1.66 4.62 2 7 C1.34 7 0.68 7 0 7 C0 8.65 0 10.3 0 12 C-0.66 11.67 -1.32 11.34 -2 11 C-1 3.57142857 -1 3.57142857 0 0 Z " fill="#6A5E9D" transform="translate(197,228)"/>
<path d="M0 0 C2.31 0 4.62 0 7 0 C5.35 1.65 3.7 3.3 2 5 C1.34 4.34 0.68 3.68 0 3 C0 2.01 0 1.02 0 0 Z " fill="#4C3A95" transform="translate(180,195)"/>
<path d="M0 0 C2.9375 0.8125 2.9375 0.8125 6 2 C6.33 2.99 6.66 3.98 7 5 C3.31245243 4.50168276 1.39509338 3.89932357 -1 1 C-0.67 0.67 -0.34 0.34 0 0 Z " fill="#4A3D90" transform="translate(292,178)"/>
<path d="M0 0 C2.31 0.33 4.62 0.66 7 1 C5.02 3.97 5.02 3.97 3 7 C1.79371992 4.66785852 0.8345262 2.50357861 0 0 Z " fill="#5A4D9F" transform="translate(106,116)"/>
<path d="M0 0 C2.97 0 5.94 0 9 0 C9.33 0.66 9.66 1.32 10 2 C6.42355152 3.2380014 3.66305234 2.74926071 0 2 C0 1.34 0 0.68 0 0 Z " fill="#45378B" transform="translate(188,491)"/>
<path d="M0 0 C0.66 0 1.32 0 2 0 C2 0.99 2 1.98 2 3 C-0.3125 5.25 -0.3125 5.25 -3 7 C-3.99 6.67 -4.98 6.34 -6 6 C-5.67 5.34 -5.34 4.68 -5 4 C-4.34 4.33 -3.68 4.66 -3 5 C-3 4.34 -3 3.68 -3 3 C-2.34 3 -1.68 3 -1 3 C-0.67 2.01 -0.34 1.02 0 0 Z " fill="#463984" transform="translate(362,361)"/>
<path d="M0 0 C3.72433382 1.2125738 7.37802806 2.50859979 11 4 C9.25 5.125 9.25 5.125 7 6 C4.75 5.125 4.75 5.125 3 4 C3 3.34 3 2.68 3 2 C2.01 1.67 1.02 1.34 0 1 C0 0.67 0 0.34 0 0 Z " fill="#5E5298" transform="translate(213,291)"/>
<path d="M0 0 C0.99 0.33 1.98 0.66 3 1 C1.4900576 5.11802472 0.01885681 9.10272859 -2 13 C-1.85769192 11.58297487 -1.71099254 10.1663904 -1.5625 8.75 C-1.48128906 7.96109375 -1.40007813 7.1721875 -1.31640625 6.359375 C-1.02365007 4.17635361 -0.57935581 2.1226818 0 0 Z " fill="#210F72" transform="translate(8,189)"/>
<path d="M0 0 C2.475 0.99 2.475 0.99 5 2 C5 2.66 5 3.32 5 4 C5.99 4 6.98 4 8 4 C7.67 4.66 7.34 5.32 7 6 C2.545 4.02 2.545 4.02 -2 2 C-1.34 1.34 -0.68 0.68 0 0 Z " fill="#675D9F" transform="translate(279,171)"/>
<path d="M0 0 C0.99 0.33 1.98 0.66 3 1 C1.70256222 3.59487555 0.70637529 4.02269781 -2 5 C-4.75 4.625 -4.75 4.625 -7 4 C-7 3.67 -7 3.34 -7 3 C-5.35 3 -3.7 3 -2 3 C-2 2.34 -2 1.68 -2 1 C-1.34 0.67 -0.68 0.34 0 0 Z " fill="#584A99" transform="translate(138,96)"/>
<path d="M0 0 C1.17571451 3.67410785 1.07366746 7.16929183 1 11 C0.01 11.33 -0.98 11.66 -2 12 C-1.85904936 10.3745692 -1.71207913 8.74965949 -1.5625 7.125 C-1.48128906 6.22007812 -1.40007813 5.31515625 -1.31640625 4.3828125 C-1 2 -1 2 0 0 Z " fill="#665AA0" transform="translate(6,193)"/>
<path d="M0 0 C3.63 0.33 7.26 0.66 11 1 C11 1.33 11 1.66 11 2 C7.37 2.33 3.74 2.66 0 3 C0 2.01 0 1.02 0 0 Z " fill="#7E73B2" transform="translate(285,2)"/>
<path d="M0 0 C1.32 0.66 2.64 1.32 4 2 C1.6875 3.5625 1.6875 3.5625 -1 5 C-1.99 4.67 -2.98 4.34 -4 4 C-3.67 3.34 -3.34 2.68 -3 2 C-2.01 2 -1.02 2 0 2 C0 1.34 0 0.68 0 0 Z " fill="#7165A3" transform="translate(350,370)"/>
<path d="M0 0 C1.32 0 2.64 0 4 0 C4 0.99 4 1.98 4 3 C2.02 3.66 0.04 4.32 -2 5 C-1.125 1.125 -1.125 1.125 0 0 Z " fill="#311F86" transform="translate(298,258)"/>
<path d="M0 0 C0.99 0 1.98 0 3 0 C2.67 2.31 2.34 4.62 2 7 C1.34 7 0.68 7 0 7 C0 4.69 0 2.38 0 0 Z " fill="#5F4E98" transform="translate(89,156)"/>
<path d="M0 0 C2.46800047 1.15173355 4.04783565 2.04783565 6 4 C4.35 4.66 2.7 5.32 1 6 C0.4465236 3.92446352 0 2.15634036 0 0 Z " fill="#514393" transform="translate(352,127)"/>
<path d="M0 0 C0.99 0 1.98 0 3 0 C3 0.66 3 1.32 3 2 C2.34 2 1.68 2 1 2 C0.67 2.99 0.34 3.98 0 5 C-0.66 5 -1.32 5 -2 5 C-2 5.66 -2 6.32 -2 7 C-2.66 6.67 -3.32 6.34 -4 6 C-2.1875 3 -2.1875 3 0 0 Z " fill="#504490" transform="translate(44,107)"/>
<path d="M0 0 C2.875 0.3125 2.875 0.3125 6 1 C6.66 1.99 7.32 2.98 8 4 C5.23723823 3.47731534 2.6739124 2.89130413 0 2 C0 1.34 0 0.68 0 0 Z " fill="#54478E" transform="translate(352,95)"/>
<path d="M0 0 C2.31 0.33 4.62 0.66 7 1 C5.35 2.32 3.7 3.64 2 5 C1.34 4.34 0.68 3.68 0 3 C0 2.01 0 1.02 0 0 Z " fill="#200E71" transform="translate(314,9)"/>
<path d="M0 0 C-3.44450737 2.29633824 -5.93812283 2.54016485 -10 3 C-7.29536552 -0.8183075 -4.37912428 -0.24787496 0 0 Z " fill="#665CA0" transform="translate(322,489)"/>
<path d="M0 0 C0.33 0.66 0.66 1.32 1 2 C0.34 2 -0.32 2 -1 2 C-1.28875 2.639375 -1.5775 3.27875 -1.875 3.9375 C-3 6 -3 6 -5 7 C-5.66 6.34 -6.32 5.68 -7 5 C-5.35 4.34 -3.7 3.68 -2 3 C-2 2.34 -2 1.68 -2 1 C-1.34 0.67 -0.68 0.34 0 0 Z " fill="#5C509B" transform="translate(374,390)"/>
<path d="M0 0 C2.64 0.66 5.28 1.32 8 2 C6.3125 3.125 6.3125 3.125 4 4 C1.25 3.125 1.25 3.125 -1 2 C-0.67 1.34 -0.34 0.68 0 0 Z " fill="#4F4190" transform="translate(149,373)"/>
<path d="M0 0 C2 2 2 2 3 4 C2.01 4 1.02 4 0 4 C0 4.66 0 5.32 0 6 C-0.99 6 -1.98 6 -3 6 C-1.125 1.125 -1.125 1.125 0 0 Z " fill="#1E0D75" transform="translate(257,297)"/>
<path d="M0 0 C0.99 0.33 1.98 0.66 3 1 C3 1.99 3 2.98 3 4 C1.35 4.66 -0.3 5.32 -2 6 C-1.34 4.02 -0.68 2.04 0 0 Z " fill="#534497" transform="translate(277,291)"/>
<path d="M0 0 C0.33 0 0.66 0 1 0 C0.67 3.63 0.34 7.26 0 11 C-2 7 -2 7 -2 3 C-1.34 3 -0.68 3 0 3 C0 2.01 0 1.02 0 0 Z " fill="#402E91" transform="translate(165,247)"/>
<path d="M0 0 C0 2.66053211 -0.19335496 4.49940039 -1 7 C-1.66 7.66 -2.32 8.32 -3 9 C-3.75 6.75 -3.75 6.75 -4 4 C-2.0625 1.6875 -2.0625 1.6875 0 0 Z " fill="#564699" transform="translate(136,132)"/>
<path d="M0 0 C2.01920337 1.30406884 4.01924973 2.63823419 6 4 C6 4.33 6 4.66 6 5 C4.02 5 2.04 5 0 5 C0 3.35 0 1.7 0 0 Z " fill="#584B94" transform="translate(397,47)"/>
</svg>
