<?xml version="1.0" encoding="UTF-8"?>
<svg version="1.1" xmlns="http://www.w3.org/2000/svg" width="500" height="500">
<path d="M0 0 C0.77590485 -0.00282738 1.55180969 -0.00565475 2.35122681 -0.00856781 C6.4621819 -0.02349101 10.57310257 -0.0327623 14.68408203 -0.03710938 C18.87820578 -0.04256666 23.07200044 -0.0665562 27.26602173 -0.09508133 C30.53677212 -0.113932 33.807447 -0.11892517 37.07824707 -0.12044525 C38.6216409 -0.12342491 40.16503498 -0.13128913 41.70837402 -0.14463043 C56.86399532 -0.26623557 71.04305368 1.94920418 85.5 6.640625 C87.47913972 7.26571032 89.45830616 7.89071105 91.4375 8.515625 C92.36046875 8.81082031 93.2834375 9.10601562 94.234375 9.41015625 C97.30672568 10.37861462 100.40271261 11.25568575 103.5 12.140625 C115.1925554 15.75384172 126.6870699 20.74206389 137.3046875 26.81640625 C141.36440129 29.11864011 145.56057145 31.14930536 149.75 33.203125 C149.75 33.863125 149.75 34.523125 149.75 35.203125 C150.74 35.203125 151.73 35.203125 152.75 35.203125 C152.75 35.863125 152.75 36.523125 152.75 37.203125 C153.74 37.203125 154.73 37.203125 155.75 37.203125 C155.75 37.863125 155.75 38.523125 155.75 39.203125 C156.31074219 39.30109375 156.87148438 39.3990625 157.44921875 39.5 C160.27180757 40.36259081 162.17405703 41.72291434 164.5625 43.453125 C165.43261719 44.08089844 166.30273438 44.70867188 167.19921875 45.35546875 C168.04097656 45.96519531 168.88273437 46.57492188 169.75 47.203125 C170.84248047 47.94755859 170.84248047 47.94755859 171.95703125 48.70703125 C173.59055923 49.82155645 175.1762339 51.00569427 176.75 52.203125 C176.75 52.863125 176.75 53.523125 176.75 54.203125 C177.554375 54.47125 178.35875 54.739375 179.1875 55.015625 C180.033125 55.4075 180.87875 55.799375 181.75 56.203125 C182.08 57.193125 182.41 58.183125 182.75 59.203125 C184.63316159 60.31148923 184.63316159 60.31148923 186.75 61.203125 C187.74 61.863125 188.73 62.523125 189.75 63.203125 C189.75 63.863125 189.75 64.523125 189.75 65.203125 C190.41 65.203125 191.07 65.203125 191.75 65.203125 C191.75 65.863125 191.75 66.523125 191.75 67.203125 C192.41 67.203125 193.07 67.203125 193.75 67.203125 C193.75 67.863125 193.75 68.523125 193.75 69.203125 C194.306875 69.43 194.86375 69.656875 195.4375 69.890625 C198.41159588 71.57862536 200.47008865 73.66989017 202.75 76.203125 C202.75 76.863125 202.75 77.523125 202.75 78.203125 C203.41 78.203125 204.07 78.203125 204.75 78.203125 C204.75 78.863125 204.75 79.523125 204.75 80.203125 C205.41 80.203125 206.07 80.203125 206.75 80.203125 C206.75 80.863125 206.75 81.523125 206.75 82.203125 C207.41 82.203125 208.07 82.203125 208.75 82.203125 C210.70981288 84.45720408 212.55400764 86.7163811 214.375 89.078125 C214.890625 89.72910156 215.40625 90.38007812 215.9375 91.05078125 C219.75 95.94248099 219.75 95.94248099 219.75 98.203125 C220.41 98.203125 221.07 98.203125 221.75 98.203125 C226.36496638 103.27958802 231.64754935 110.31280845 232.75 117.203125 C233.41 117.203125 234.07 117.203125 234.75 117.203125 C251.64085209 139.58081439 260.56161651 170.29710984 266.75 197.203125 C266.96527344 198.13640625 267.18054688 199.0696875 267.40234375 200.03125 C269.80281373 211.17503763 269.92300797 222.42042687 269.953125 233.7734375 C269.95595238 234.50337795 269.95877975 235.23331841 269.96169281 235.98537827 C269.97658043 239.84995621 269.98587509 243.71449785 269.99023438 247.57910156 C269.99569871 251.51534606 270.01971382 255.45124118 270.04820633 259.38737679 C270.06707068 262.46425266 270.07205078 265.54104839 270.07357025 268.61797714 C270.07654485 270.06647522 270.08439054 271.51497376 270.09775543 272.96341324 C270.22513097 287.83009486 267.9076565 301.79282402 263.3125 315.953125 C262.68741468 317.93226472 262.06241395 319.91143116 261.4375 321.890625 C261.14230469 322.81359375 260.84710938 323.7365625 260.54296875 324.6875 C259.57451038 327.75985068 258.69743925 330.85583761 257.8125 333.953125 C254.19928328 345.6456804 249.21106111 357.1401949 243.13671875 367.7578125 C240.83448489 371.81752629 238.80381964 376.01369645 236.75 380.203125 C236.09 380.203125 235.43 380.203125 234.75 380.203125 C234.75 381.193125 234.75 382.183125 234.75 383.203125 C234.09 383.203125 233.43 383.203125 232.75 383.203125 C232.75 384.193125 232.75 385.183125 232.75 386.203125 C232.09 386.203125 231.43 386.203125 230.75 386.203125 C230.60304688 387.04423828 230.60304688 387.04423828 230.453125 387.90234375 C229.59053419 390.72493257 228.23021066 392.62718203 226.5 395.015625 C225.87222656 395.88574219 225.24445313 396.75585938 224.59765625 397.65234375 C223.98792969 398.49410156 223.37820313 399.33585937 222.75 400.203125 C222.00556641 401.29560547 222.00556641 401.29560547 221.24609375 402.41015625 C220.13156855 404.04368423 218.94743073 405.6293589 217.75 407.203125 C217.09 407.203125 216.43 407.203125 215.75 407.203125 C215.481875 408.0075 215.21375 408.811875 214.9375 409.640625 C214.545625 410.48625 214.15375 411.331875 213.75 412.203125 C212.76 412.533125 211.77 412.863125 210.75 413.203125 C209.64163577 415.08628659 209.64163577 415.08628659 208.75 417.203125 C208.09 418.193125 207.43 419.183125 206.75 420.203125 C206.09 420.203125 205.43 420.203125 204.75 420.203125 C204.75 420.863125 204.75 421.523125 204.75 422.203125 C204.09 422.203125 203.43 422.203125 202.75 422.203125 C202.75 422.863125 202.75 423.523125 202.75 424.203125 C202.09 424.203125 201.43 424.203125 200.75 424.203125 C200.4096875 425.0384375 200.4096875 425.0384375 200.0625 425.890625 C198.37449964 428.86472088 196.28323483 430.92321365 193.75 433.203125 C193.09 433.203125 192.43 433.203125 191.75 433.203125 C191.75 433.863125 191.75 434.523125 191.75 435.203125 C191.09 435.203125 190.43 435.203125 189.75 435.203125 C189.75 435.863125 189.75 436.523125 189.75 437.203125 C189.09 437.203125 188.43 437.203125 187.75 437.203125 C187.75 437.863125 187.75 438.523125 187.75 439.203125 C185.49592092 441.16293788 183.2367439 443.00713264 180.875 444.828125 C180.22402344 445.34375 179.57304687 445.859375 178.90234375 446.390625 C174.01064401 450.203125 174.01064401 450.203125 171.75 450.203125 C171.75 450.863125 171.75 451.523125 171.75 452.203125 C166.67353698 456.81809138 159.64031655 462.10067435 152.75 463.203125 C152.75 463.863125 152.75 464.523125 152.75 465.203125 C144.96164502 471.30967582 134.93568264 474.99881472 126.00488281 479.1340332 C123.83549363 480.16259051 121.70359827 481.24658085 119.5703125 482.34765625 C116.21298792 484.04010203 112.87268619 485.2299313 109.25 486.265625 C105.69991311 487.31192354 102.19623114 488.35237762 98.75 489.703125 C89.29166844 493.33638806 79.70868609 495.75759996 69.76953125 497.58984375 C66.84409435 498.04764541 66.84409435 498.04764541 64.75 499.203125 C56.61530434 500.42612618 48.46869422 500.38483682 40.26171875 500.40625 C39.52265604 500.40907738 38.78359333 500.41190475 38.02213478 500.41481781 C34.10223673 500.42974265 30.18237477 500.43901148 26.26245117 500.44335938 C23.06539371 500.4477244 19.86860911 500.46154824 16.67163086 500.484375 C-4.15814298 500.63004779 -24.56981747 500.70999584 -44.6875 494.453125 C-45.53747559 494.19926025 -46.38745117 493.94539551 -47.26318359 493.68383789 C-49.93216093 492.8769776 -52.59178598 492.04472358 -55.25 491.203125 C-56.63131104 490.7687915 -56.63131104 490.7687915 -58.04052734 490.32568359 C-68.05184384 487.15297323 -77.80408376 483.83281106 -87.25 479.203125 C-89.5738434 478.17898871 -91.91042502 477.19094555 -94.25 476.203125 C-94.25 475.543125 -94.25 474.883125 -94.25 474.203125 C-94.79527344 474.09097656 -95.34054688 473.97882813 -95.90234375 473.86328125 C-104.41780503 471.46875054 -111.80683764 466.29746612 -118.7734375 461.02734375 C-121.81173103 458.78935782 -124.94849611 457.02232102 -128.25 455.203125 C-130.6875 453.578125 -130.6875 453.578125 -132.25 452.203125 C-132.25 451.543125 -132.25 450.883125 -132.25 450.203125 C-133.9 449.543125 -135.55 448.883125 -137.25 448.203125 C-137.25 447.543125 -137.25 446.883125 -137.25 446.203125 C-138.4565625 445.8009375 -138.4565625 445.8009375 -139.6875 445.390625 C-140.533125 444.99875 -141.37875 444.606875 -142.25 444.203125 C-142.745 442.718125 -142.745 442.718125 -143.25 441.203125 C-145.13316159 440.09476077 -145.13316159 440.09476077 -147.25 439.203125 C-148.24 438.543125 -149.23 437.883125 -150.25 437.203125 C-150.25 436.543125 -150.25 435.883125 -150.25 435.203125 C-150.91 435.203125 -151.57 435.203125 -152.25 435.203125 C-152.25 434.543125 -152.25 433.883125 -152.25 433.203125 C-152.79140625 432.9865625 -153.3328125 432.77 -153.890625 432.546875 C-157.06645344 430.73812503 -159.45728081 428.28588701 -162 425.703125 C-162.50660156 425.20425781 -163.01320313 424.70539063 -163.53515625 424.19140625 C-167.25 420.45653639 -167.25 420.45653639 -167.25 418.203125 C-167.91 418.203125 -168.57 418.203125 -169.25 418.203125 C-169.25 417.543125 -169.25 416.883125 -169.25 416.203125 C-169.91 416.203125 -170.57 416.203125 -171.25 416.203125 C-174.25 412.74158654 -174.25 412.74158654 -174.25 410.203125 C-174.91 410.203125 -175.57 410.203125 -176.25 410.203125 C-180.25 404.79136029 -180.25 404.79136029 -180.25 402.203125 C-180.91 402.203125 -181.57 402.203125 -182.25 402.203125 C-186.86496638 397.12666198 -192.14754935 390.09344155 -193.25 383.203125 C-193.91 383.203125 -194.57 383.203125 -195.25 383.203125 C-201.35648377 375.41485554 -205.0464323 365.388586 -209.1809082 356.45751953 C-210.20864717 354.29032575 -211.29307593 352.16169983 -212.39453125 350.03125 C-214.10820676 346.63350345 -215.28085117 343.24918706 -216.3125 339.578125 C-217.23294306 336.31509511 -218.12593937 333.43735146 -219.71484375 330.4375 C-221.76747289 326.11287677 -222.71227828 321.73500499 -223.75 317.078125 C-224.18166866 315.19647155 -224.61395669 313.31496008 -225.046875 311.43359375 C-225.3552832 310.08080322 -225.3552832 310.08080322 -225.66992188 308.70068359 C-226.59059415 304.73667797 -227.6233888 300.80291698 -228.671875 296.87109375 C-229.96955534 290.88247436 -230.37712382 284.97894952 -230.41113281 278.86352539 C-230.41609772 278.1776535 -230.42106262 277.49178162 -230.42617798 276.78512573 C-230.44064927 274.54033356 -230.44757897 272.2956122 -230.453125 270.05078125 C-230.45595238 269.27395933 -230.45877975 268.49713741 -230.46169281 267.69677544 C-230.47663013 263.57934106 -230.48589197 259.46194118 -230.49023438 255.34448242 C-230.49568732 251.14248289 -230.51966335 246.94081256 -230.54820633 242.73891544 C-230.56705905 239.46387385 -230.57205032 236.18890767 -230.57357025 232.91381645 C-230.57655052 231.36763157 -230.58441697 229.82144646 -230.59775543 228.27531624 C-230.70987075 214.27142321 -229.06744395 200.71513358 -224.75 187.328125 C-224.31280783 185.91306721 -223.87660904 184.49770214 -223.44140625 183.08203125 C-223.23531738 182.41961426 -223.02922852 181.75719727 -222.81689453 181.07470703 C-222.03404455 178.4901558 -221.36055852 175.88062285 -220.6875 173.265625 C-219.27673851 168.05126348 -217.3360822 163.17916183 -215.25 158.203125 C-214.71434937 156.86399844 -214.18065203 155.52408964 -213.6484375 154.18359375 C-210.69214741 146.78790553 -207.62652659 139.65002107 -203.671875 132.71875 C-201.36240201 128.63275933 -199.31547948 124.41633757 -197.25 120.203125 C-196.59 120.203125 -195.93 120.203125 -195.25 120.203125 C-195.25 119.213125 -195.25 118.223125 -195.25 117.203125 C-194.59 117.203125 -193.93 117.203125 -193.25 117.203125 C-193.16105469 116.66171875 -193.07210937 116.1203125 -192.98046875 115.5625 C-190.59910201 107.87081278 -183.73634047 99.14374844 -178.25 93.203125 C-177.59 93.203125 -176.93 93.203125 -176.25 93.203125 C-175.981875 92.39875 -175.71375 91.594375 -175.4375 90.765625 C-175.045625 89.92 -174.65375 89.074375 -174.25 88.203125 C-173.26 87.873125 -172.27 87.543125 -171.25 87.203125 C-170.14163577 85.31996341 -170.14163577 85.31996341 -169.25 83.203125 C-168.26 81.718125 -168.26 81.718125 -167.25 80.203125 C-166.59 80.203125 -165.93 80.203125 -165.25 80.203125 C-165.25 79.543125 -165.25 78.883125 -165.25 78.203125 C-164.59 78.203125 -163.93 78.203125 -163.25 78.203125 C-163.25 77.543125 -163.25 76.883125 -163.25 76.203125 C-162.59 76.203125 -161.93 76.203125 -161.25 76.203125 C-161.023125 75.64625 -160.79625 75.089375 -160.5625 74.515625 C-158.87449964 71.54152912 -156.78323483 69.48303635 -154.25 67.203125 C-153.59 67.203125 -152.93 67.203125 -152.25 67.203125 C-152.25 66.543125 -152.25 65.883125 -152.25 65.203125 C-151.59 65.203125 -150.93 65.203125 -150.25 65.203125 C-150.25 64.543125 -150.25 63.883125 -150.25 63.203125 C-149.59 63.203125 -148.93 63.203125 -148.25 63.203125 C-148.25 62.543125 -148.25 61.883125 -148.25 61.203125 C-145.99592092 59.24331212 -143.7367439 57.39911736 -141.375 55.578125 C-140.72402344 55.0625 -140.07304687 54.546875 -139.40234375 54.015625 C-134.51064401 50.203125 -134.51064401 50.203125 -132.25 50.203125 C-132.25 49.543125 -132.25 48.883125 -132.25 48.203125 C-127.17353698 43.58815862 -120.14031655 38.30557565 -113.25 37.203125 C-113.25 36.543125 -113.25 35.883125 -113.25 35.203125 C-105.46173054 29.09664123 -95.435461 25.4066927 -86.50439453 21.2722168 C-84.33720075 20.24447783 -82.20857483 19.16004907 -80.078125 18.05859375 C-76.68037845 16.34491824 -73.29606206 15.17227383 -69.625 14.140625 C-66.36270471 13.22038916 -63.48654104 12.32858878 -60.48828125 10.73828125 C-56.14383758 8.67873196 -51.74048948 7.74101759 -47.0625 6.703125 C-45.17804126 6.27233605 -43.29392201 5.8400592 -41.41015625 5.40625 C-40.51441895 5.20064453 -39.61868164 4.99503906 -38.69580078 4.78320312 C-35.024097 3.9123738 -31.40559628 2.88178202 -27.796875 1.78125 C-18.67841147 -0.28858528 -9.29422971 0.02304278 0 0 Z M97.25 162.140625 C94.24032214 163.35990229 91.22951998 164.57639126 88.21875 165.79296875 C87.49302292 166.08685989 86.76729584 166.38075104 86.01957703 166.68354797 C80.53055157 168.90200268 75.01610163 171.04380043 69.48486328 173.1550293 C66.11909902 174.44490842 62.77787246 175.78641995 59.4375 177.140625 C53.75511091 179.42993813 48.03675875 181.6097087 42.29370117 183.74194336 C36.25225684 185.99440397 30.25062524 188.34437328 24.25 190.703125 C16.46980138 193.75958646 8.67285675 196.75781607 0.83984375 199.67578125 C-10.06559831 203.73987056 -20.95547047 207.85220839 -31.75 212.203125 C-44.41457908 217.30779653 -57.21170591 222.07627588 -70.00708008 226.84155273 C-76.99494642 229.45838638 -83.93043597 232.20894935 -90.87109375 234.94799805 C-96.25619485 237.06402284 -101.65242085 239.07562761 -107.125 240.953125 C-113.72301216 243.25883904 -119.45180797 246.33766365 -125.25 250.203125 C-125.25 250.863125 -125.25 251.523125 -125.25 252.203125 C-125.91 252.203125 -126.57 252.203125 -127.25 252.203125 C-128.20020416 254.44296 -128.20020416 254.44296 -128.25 257.203125 C-122.07006244 265.64903967 -109.66112551 267.77847468 -100.1875 270.640625 C-98.88971386 271.03725751 -97.59210732 271.43447811 -96.29467773 271.83227539 C-93.75806855 272.60943527 -91.22063144 273.38366709 -88.68261719 274.15625 C-84.38687304 275.46636031 -80.09827493 276.79832766 -75.8125 278.140625 C-74.65878906 278.50027344 -73.50507813 278.85992187 -72.31640625 279.23046875 C-70.24605574 279.88717866 -68.18594354 280.57694659 -66.13671875 281.296875 C-61.69376835 282.69168487 -57.84424956 283.09211568 -53.25 282.203125 C-49.59421576 280.26046477 -46.48505909 277.77063221 -43.25 275.203125 C-41.61655168 274.06021689 -39.97126533 272.93396855 -38.3125 271.828125 C-37.60222656 271.34601563 -36.89195312 270.86390625 -36.16015625 270.3671875 C-34.25 269.203125 -34.25 269.203125 -31.25 268.203125 C-31.25 267.543125 -31.25 266.883125 -31.25 266.203125 C-29.826875 265.7390625 -29.826875 265.7390625 -28.375 265.265625 C-25.38919592 264.32917758 -25.38919592 264.32917758 -23.25 263.203125 C-23.25 262.543125 -23.25 261.883125 -23.25 261.203125 C-22.26 261.203125 -21.27 261.203125 -20.25 261.203125 C-20.25 260.543125 -20.25 259.883125 -20.25 259.203125 C-19.40308594 258.96335937 -18.55617188 258.72359375 -17.68359375 258.4765625 C-13.85916311 257.05817298 -10.67254345 255.09033247 -7.3125 252.828125 C-2.71093657 249.77060777 1.92672927 246.90119981 6.75 244.203125 C6.75 243.543125 6.75 242.883125 6.75 242.203125 C7.306875 242.09871094 7.86375 241.99429688 8.4375 241.88671875 C11.20463156 241.06873223 13.30318141 239.79115671 15.75 238.265625 C18.6997777 236.43550377 21.61828048 234.7037406 24.75 233.203125 C24.75 232.543125 24.75 231.883125 24.75 231.203125 C25.85202759 230.78800659 25.85202759 230.78800659 26.97631836 230.36450195 C29.54598927 229.28854697 31.76731759 228.0888676 34.12890625 226.62109375 C34.95753174 226.10780518 35.78615723 225.5945166 36.63989258 225.06567383 C37.52185303 224.51290771 38.40381348 223.9601416 39.3125 223.390625 C40.23635498 222.81530029 41.16020996 222.23997559 42.11206055 221.6472168 C48.4730938 217.67055725 54.77969724 213.61449047 61.0625 209.515625 C61.88403564 208.98122803 62.70557129 208.44683105 63.55200195 207.89624023 C68.30855582 204.80198642 68.30855582 204.80198642 73.04638672 201.67919922 C75.18941389 200.25754998 77.34333789 198.8539703 79.5 197.453125 C80.11915283 197.03458252 80.73830566 196.61604004 81.3762207 196.18481445 C85.84924765 193.31125194 89.44320735 192.55379412 94.75 192.203125 C92.51203257 199.32393047 86.31808878 203.53315303 80.8125 208.203125 C80.21759766 208.71101563 79.62269531 209.21890625 79.00976562 209.7421875 C76.16245111 212.16940643 73.30269778 214.58059861 70.42578125 216.97265625 C67.43356852 219.43284845 67.43356852 219.43284845 64.75 222.203125 C64.75 222.863125 64.75 223.523125 64.75 224.203125 C63.91662109 224.55890625 63.91662109 224.55890625 63.06640625 224.921875 C60.20628879 226.5038624 58.08051331 228.47975215 55.6875 230.703125 C53.09079665 233.10849231 50.69893694 235.23716704 47.75 237.203125 C47.75 237.863125 47.75 238.523125 47.75 239.203125 C47.09 239.203125 46.43 239.203125 45.75 239.203125 C45.75 239.863125 45.75 240.523125 45.75 241.203125 C45.193125 241.450625 44.63625 241.698125 44.0625 241.953125 C41.32589087 243.43237318 39.07349131 245.13779939 36.75 247.203125 C36.75 247.863125 36.75 248.523125 36.75 249.203125 C36.16476562 249.45835937 35.57953125 249.71359375 34.9765625 249.9765625 C32.52862593 251.32507493 31.03133264 252.7919995 29.125 254.828125 C25.26007219 258.8243145 21.08647107 262.18970862 16.65625 265.5390625 C16.0271875 266.08820313 15.398125 266.63734375 14.75 267.203125 C14.75 267.863125 14.75 268.523125 14.75 269.203125 C14.16734375 269.47125 13.5846875 269.739375 12.984375 270.015625 C10.72213399 271.21793491 8.94423682 272.54138413 7 274.203125 C6.07960937 274.9765625 6.07960937 274.9765625 5.140625 275.765625 C3.51823624 277.10935752 3.51823624 277.10935752 3.75 279.203125 C3.1725 279.47125 2.595 279.739375 2 280.015625 C-0.30550043 281.23241689 -2.27056192 282.50646379 -4.25 284.203125 C-4.25 284.863125 -4.25 285.523125 -4.25 286.203125 C-4.9925 286.47125 -5.735 286.739375 -6.5 287.015625 C-9.14061949 288.15589251 -11.10552844 289.29692806 -13.25 291.203125 C-13.25 291.863125 -13.25 292.523125 -13.25 293.203125 C-13.91 293.203125 -14.57 293.203125 -15.25 293.203125 C-15.25 293.863125 -15.25 294.523125 -15.25 295.203125 C-15.91 295.203125 -16.57 295.203125 -17.25 295.203125 C-17.25 295.863125 -17.25 296.523125 -17.25 297.203125 C-18.24 297.533125 -19.23 297.863125 -20.25 298.203125 C-24.73121703 304.40788705 -24.51774697 311.20869397 -24.8125 318.578125 C-24.8549585 319.60292969 -24.89741699 320.62773437 -24.94116211 321.68359375 C-25.45092647 335.5180035 -25.3391119 349.36199018 -25.25 363.203125 C-20.37385268 362.76627887 -17.47406876 362.19958467 -13.875 358.828125 C-12.87339844 357.91933594 -12.87339844 357.91933594 -11.8515625 356.9921875 C-10.02502221 355.19010063 -10.02502221 355.19010063 -9.25 352.203125 C-8.26 351.873125 -7.27 351.543125 -6.25 351.203125 C-6.25 350.543125 -6.25 349.883125 -6.25 349.203125 C-5.3528125 348.77 -5.3528125 348.77 -4.4375 348.328125 C-2.05672208 347.15570474 -2.05672208 347.15570474 0.75 345.203125 C0.75 344.543125 0.75 343.883125 0.75 343.203125 C1.41 343.203125 2.07 343.203125 2.75 343.203125 C2.75 342.543125 2.75 341.883125 2.75 341.203125 C3.306875 340.97625 3.86375 340.749375 4.4375 340.515625 C8.02374232 338.48019017 10.68612593 335.53296759 13.25 332.328125 C14.75 331.203125 14.75 331.203125 16.92578125 331.34765625 C20.6084496 332.4631533 23.38267386 334.50650669 26.4375 336.765625 C30.23068963 339.94125482 30.23068963 339.94125482 34.75 341.203125 C34.75 341.863125 34.75 342.523125 34.75 343.203125 C36.63367591 344.63121418 38.5838427 345.97233891 40.5625 347.265625 C41.64144531 347.97847656 42.72039062 348.69132813 43.83203125 349.42578125 C46.65990101 351.29722167 46.65990101 351.29722167 49.75 352.203125 C49.75 352.863125 49.75 353.523125 49.75 354.203125 C51.4 354.863125 53.05 355.523125 54.75 356.203125 C54.75 356.863125 54.75 357.523125 54.75 358.203125 C56.8444968 359.83742251 58.92782091 361.34479734 61.125 362.828125 C62.02992188 363.45847656 62.02992188 363.45847656 62.953125 364.1015625 C66.06713871 366.43672823 66.06713871 366.43672823 69.75 367.203125 C69.75 367.863125 69.75 368.523125 69.75 369.203125 C73.38323689 372.16548195 73.38323689 372.16548195 77.75 373.203125 C77.75 373.863125 77.75 374.523125 77.75 375.203125 C82.643138 377.80585798 86.15016046 378.71317615 91.671875 377.83984375 C96.02915444 376.50481264 98.03022446 373.41891167 100.2578125 369.65625 C102.17286178 365.22456528 102.94216968 360.88149361 103.75 356.140625 C104.94094095 349.3633636 106.30594356 342.66762185 107.87988281 335.96850586 C109.72018081 328.00472472 111.41148395 320.00746601 113.125 312.015625 C113.3238681 311.08959473 113.52273621 310.16356445 113.72763062 309.20947266 C116.33906095 297.03356224 118.84448414 284.84903296 121.14355469 272.60986328 C123.01469813 262.67701834 125.15914943 252.81559986 127.5234375 242.98828125 C128.92312331 237.14120665 130.1021318 231.29550483 131.12890625 225.37329102 C132.50112667 217.46884217 134.00693799 209.72277579 136.25 202.015625 C142.63028607 180.94558456 142.63028607 180.94558456 142.75 159.203125 C140.27673158 154.81942657 140.27673158 154.81942657 136.375 151.828125 C123.68161245 148.80588987 108.82845944 157.42269416 97.25 162.140625 Z " fill="#220D81" transform="translate(230.25,-0.203125)"/>
<path d="M0 0 C-0.37596209 2.78211944 -0.67318459 4.5879284 -2.4375 6.8125 C-4 8 -4 8 -6 8 C-6.19851563 8.5465625 -6.39703125 9.093125 -6.6015625 9.65625 C-8.57806765 12.96882846 -11.41394994 15.10637583 -14.375 17.5 C-15.53004624 18.44620975 -16.68372313 19.39409387 -17.8359375 20.34375 C-18.38217773 20.79234375 -18.92841797 21.2409375 -19.49121094 21.703125 C-21.18238981 23.1186962 -21.18238981 23.1186962 -23.2890625 25.34375 C-25 27 -25 27 -27 27 C-27.33 27.99 -27.66 28.98 -28 30 C-28.66 30 -29.32 30 -30 30 C-30 30.66 -30 31.32 -30 32 C-34.47058824 36 -34.47058824 36 -37 36 C-37.33 36.99 -37.66 37.98 -38 39 C-39.55859375 40.60546875 -39.55859375 40.60546875 -41.4375 42.1875 C-42.05496094 42.71730469 -42.67242187 43.24710938 -43.30859375 43.79296875 C-45 45 -45 45 -47 45 C-47 45.66 -47 46.32 -47 47 C-47.66 47 -48.32 47 -49 47 C-49 47.66 -49 48.32 -49 49 C-49.66 49 -50.32 49 -51 49 C-51.62264151 38.96855346 -51.62264151 38.96855346 -49.3125 35.375 C-47 34 -47 34 -44.6875 33.5625 C-40.76731129 32.74199539 -38.1148413 30.43262822 -35 28 C-35.79117904 26.00016466 -35.79117904 26.00016466 -37 24 C-37.99 23.67 -38.98 23.34 -40 23 C-40.33 24.65 -40.66 26.3 -41 28 C-41.66 27.67 -42.32 27.34 -43 27 C-42.44211753 23.09482272 -40.92687376 21.58200181 -38 19 C-35.04314751 16.95823915 -31.99649919 15.07169847 -28.9375 13.1875 C-27.2209198 12.12439897 -25.5047715 11.06060022 -23.7890625 9.99609375 C-22.5501123 9.22821533 -22.5501123 9.22821533 -21.28613281 8.44482422 C-19.35286378 7.2230081 -17.46168467 5.96761807 -15.5859375 4.66015625 C-10.07329275 0.86341923 -6.74356494 -0.89065952 0 0 Z M-45 28 C-43 29 -43 29 -43 29 Z " fill="#251381" transform="translate(325,192)"/>
<path d="M0 0 C-0.37596209 2.78211944 -0.67318459 4.5879284 -2.4375 6.8125 C-4 8 -4 8 -6 8 C-6.19722656 8.54398438 -6.39445312 9.08796875 -6.59765625 9.6484375 C-8.61345468 13.02869003 -11.41361398 15.15301449 -14.4375 17.625 C-15.02337891 18.11484375 -15.60925781 18.6046875 -16.21289062 19.109375 C-18.74143851 21.21027971 -21.26268444 23.17512296 -24 25 C-23.6875 23.0625 -23.6875 23.0625 -23 21 C-22.01 20.67 -21.02 20.34 -20 20 C-20 19.34 -20 18.68 -20 18 C-20.66 17.67 -21.32 17.34 -22 17 C-22.625 14.9375 -22.625 14.9375 -23 13 C-24.32 12.67 -25.64 12.34 -27 12 C-24.01946114 9.96977788 -21.01289714 7.98181679 -18 6 C-17.16082031 5.42765625 -16.32164062 4.8553125 -15.45703125 4.265625 C-9.98180768 0.70036314 -6.54432994 -0.72714777 0 0 Z " fill="#372688" transform="translate(325,192)"/>
<path d="M0 0 C0.66 0.33 1.32 0.66 2 1 C2 1.66 2 2.32 2 3 C2.66 3 3.32 3 4 3 C4 3.66 4 4.32 4 5 C-0.47058824 9 -0.47058824 9 -3 9 C-3.33 9.99 -3.66 10.98 -4 12 C-5.55859375 13.60546875 -5.55859375 13.60546875 -7.4375 15.1875 C-8.05496094 15.71730469 -8.67242187 16.24710938 -9.30859375 16.79296875 C-11 18 -11 18 -13 18 C-13 18.66 -13 19.32 -13 20 C-13.66 20 -14.32 20 -15 20 C-15 20.66 -15 21.32 -15 22 C-15.66 22 -16.32 22 -17 22 C-17.62264151 11.96855346 -17.62264151 11.96855346 -15.3125 8.375 C-13 7 -13 7 -10.75 6.625 C-6.41954192 5.64080498 -3.40161297 2.76011772 0 0 Z " fill="#3D2D8F" transform="translate(291,219)"/>
<path d="M0 0 C0.99 0.33 1.98 0.66 3 1 C3.33 3.64 3.66 6.28 4 9 C2.02 9.99 2.02 9.99 0 11 C0 11.66 0 12.32 0 13 C-0.66 13 -1.32 13 -2 13 C-2 13.66 -2 14.32 -2 15 C-2.66 15 -3.32 15 -4 15 C-4.63019694 4.84682713 -4.63019694 4.84682713 -2 1.3125 C-1.34 0.879375 -0.68 0.44625 0 0 Z " fill="#210C87" transform="translate(278,226)"/>
<path d="M0 0 C2.64 0 5.28 0 8 0 C7.63287028 2.71675995 7.27255401 4.61063713 5.6875 6.875 C4 8 4 8 1.8125 7.6875 C1.214375 7.460625 0.61625 7.23375 0 7 C0 7.66 0 8.32 0 9 C-0.99 8.67 -1.98 8.34 -3 8 C-2.5359375 7.13375 -2.5359375 7.13375 -2.0625 6.25 C-1.07416636 4.15705816 -0.4831387 2.25464725 0 0 Z M-5 9 C-3 10 -3 10 -3 10 Z " fill="#1D0B76" transform="translate(317,192)"/>
<path d="M0 0 C0.33 0 0.66 0 1 0 C1.33 2.64 1.66 5.28 2 8 C1.34 8 0.68 8 0 8 C-0.06058594 8.99902344 -0.12117188 9.99804688 -0.18359375 11.02734375 C-0.26738281 12.31769531 -0.35117187 13.60804688 -0.4375 14.9375 C-0.51871094 16.22527344 -0.59992188 17.51304687 -0.68359375 18.83984375 C-1 22 -1 22 -2 23 C-2.07179964 24.51928038 -2.08392007 26.04167482 -2.0625 27.5625 C-2.05347656 28.38878906 -2.04445313 29.21507812 -2.03515625 30.06640625 C-2.02355469 30.70449219 -2.01195312 31.34257812 -2 32 C-3.485 32.495 -3.485 32.495 -5 33 C-5 34.65 -5 36.3 -5 38 C-5.99 38.495 -5.99 38.495 -7 39 C-5.68445403 30.01353712 -4.12186693 21.09956821 -2.375 12.1875 C-2.14554687 11.00607422 -1.91609375 9.82464844 -1.6796875 8.60742188 C-1.12203522 5.7378362 -0.56211508 2.86871417 0 0 Z " fill="#766CAC" transform="translate(354,254)"/>
<path d="M0 0 C0.66 0.33 1.32 0.66 2 1 C1.01 2.485 1.01 2.485 0 4 C-0.66 4 -1.32 4 -2 4 C-2 4.66 -2 5.32 -2 6 C-2.66 6.226875 -3.32 6.45375 -4 6.6875 C-7.28866982 8.12629305 -10.13739203 9.91498271 -13.1328125 11.87890625 C-15 13 -15 13 -18 14 C-18.66 13.34 -19.32 12.68 -20 12 C-19.2265625 11.55269531 -18.453125 11.10539062 -17.65625 10.64453125 C-16.09390625 9.73767578 -16.09390625 9.73767578 -14.5 8.8125 C-13.40945312 8.17957031 -12.31890625 7.54664063 -11.1953125 6.89453125 C-8.54180416 5.32124086 -5.95466534 3.6896332 -3.375 2 C-2.26125 1.34 -1.1475 0.68 0 0 Z " fill="#6256A0" transform="translate(230,247)"/>
<path d="M0 0 C5.875 2.875 5.875 2.875 7 4 C6.91036938 5.69141656 6.75422324 7.37959602 6.5625 9.0625 C6.46066406 9.98160156 6.35882812 10.90070313 6.25390625 11.84765625 C6.12822266 12.91306641 6.12822266 12.91306641 6 14 C3.52813545 11.03653214 2.33751639 8.45958311 1.3125 4.75 C1.06113281 3.85796875 0.80976563 2.9659375 0.55078125 2.046875 C0.36902344 1.37140625 0.18726563 0.6959375 0 0 Z " fill="#4E4093" transform="translate(13,336)"/>
<path d="M0 0 C2.2477975 2.05233685 3.0022242 3.00667261 4 6 C3.75367118 8.59069971 3.44871022 11.11836247 3.0625 13.6875 C2.96259766 14.38939453 2.86269531 15.09128906 2.75976562 15.81445312 C2.51270675 17.54386527 2.25717148 19.2720627 2 21 C1.67 21 1.34 21 1 21 C-0.10087193 13.98194143 -0.09733092 7.09434233 0 0 Z " fill="#57489D" transform="translate(0,273)"/>
<path d="M0 0 C-0.8125 1.9375 -0.8125 1.9375 -2 4 C-2.99 4.33 -3.98 4.66 -5 5 C-5 5.99 -5 6.98 -5 8 C-6.32 7.67 -7.64 7.34 -9 7 C-9.66 8.98 -10.32 10.96 -11 13 C-13 11 -13 11 -14 9 C-12.23669281 7.4911599 -10.46409603 5.9931702 -8.6875 4.5 C-7.70136719 3.6646875 -6.71523437 2.829375 -5.69921875 1.96875 C-3 0 -3 0 0 0 Z " fill="#4F4095" transform="translate(96,52)"/>
<path d="M0 0 C0.99 0.33 1.98 0.66 3 1 C2.01 2.485 2.01 2.485 1 4 C0.07003887 7.57841839 -0.17841392 11.05191472 -0.31640625 14.73828125 C-0.35830078 15.80498047 -0.40019531 16.87167969 -0.44335938 17.97070312 C-0.48267578 19.07349609 -0.52199219 20.17628906 -0.5625 21.3125 C-0.60568359 22.43462891 -0.64886719 23.55675781 -0.69335938 24.71289062 C-0.79914787 27.47514569 -0.90123672 30.2374863 -1 33 C-1.33 33 -1.66 33 -2 33 C-2.04946113 28.78248718 -2.08574827 24.56512832 -2.10986328 20.34741211 C-2.119917 18.91281188 -2.13356194 17.47823211 -2.15087891 16.04370117 C-2.17515549 13.98090562 -2.18648919 11.91838115 -2.1953125 9.85546875 C-2.20578613 8.61434326 -2.21625977 7.37321777 -2.22705078 6.09448242 C-2 3 -2 3 0 0 Z " fill="#9086BC" transform="translate(207,299)"/>
<path d="M0 0 C1.62490954 -0.02698189 3.24994633 -0.04638757 4.875 -0.0625 C5.77992188 -0.07410156 6.68484375 -0.08570313 7.6171875 -0.09765625 C10 0 10 0 12 1 C12 1.66 12 2.32 12 3 C13.98 3 15.96 3 18 3 C18 3.66 18 4.32 18 5 C19.98 5 21.96 5 24 5 C24.33 5.66 24.66 6.32 25 7 C16.53164559 5.48565898 8.28745132 3.27628663 0 1 C0 0.67 0 0.34 0 0 Z " fill="#5C4F99" transform="translate(171,489)"/>
<path d="M0 0 C0.66 0.33 1.32 0.66 2 1 C2.625 3.5625 2.625 3.5625 3 6 C1.5459375 6.5878125 1.5459375 6.5878125 0.0625 7.1875 C-3.22176391 8.67594887 -3.22176391 8.67594887 -3.875 11.6875 C-3.91625 12.450625 -3.9575 13.21375 -4 14 C-5.32 13.01 -6.64 12.02 -8 11 C-6.625 8.5 -6.625 8.5 -5 6 C-4.34 6 -3.68 6 -3 6 C-2.690625 5.195625 -2.38125 4.39125 -2.0625 3.5625 C-1 1 -1 1 0 0 Z " fill="#483A8F" transform="translate(57,87)"/>
<path d="M0 0 C0.598125 0.309375 1.19625 0.61875 1.8125 0.9375 C4.08956772 2.10209704 4.08956772 2.10209704 7 3 C5.4375 5 5.4375 5 3 7 C-0.75 7.25 -0.75 7.25 -4 7 C-2.68 4.69 -1.36 2.38 0 0 Z " fill="#312083" transform="translate(128,232)"/>
<path d="M0 0 C-0.99 0.495 -0.99 0.495 -2 1 C-2.433125 1.99 -2.433125 1.99 -2.875 3 C-4 5 -4 5 -5.9375 5.875 C-8 6 -8 6 -11 4 C-10.67 3.34 -10.34 2.68 -10 2 C-9.34 2 -8.68 2 -8 2 C-8 1.34 -8 0.68 -8 0 C-4.71023192 -1.09658936 -3.28696233 -0.79953138 0 0 Z " fill="#352585" transform="translate(245,242)"/>
<path d="M0 0 C1.32 0.66 2.64 1.32 4 2 C2.28133783 3.0384211 0.54955402 4.05514635 -1.1875 5.0625 C-2.15042969 5.63097656 -3.11335938 6.19945312 -4.10546875 6.78515625 C-7.32916541 8.13815174 -8.72520421 8.04769518 -12 7 C-11.38125 6.9175 -10.7625 6.835 -10.125 6.75 C-7.81562433 6.18741541 -7.81562433 6.18741541 -6.75 3.9375 C-6.5025 3.298125 -6.255 2.65875 -6 2 C-3.03 2.495 -3.03 2.495 0 3 C0 2.01 0 1.02 0 0 Z " fill="#594D98" transform="translate(360,473)"/>
<path d="M0 0 C1.32 0.66 2.64 1.32 4 2 C1.75083381 2.81487171 -0.49926978 3.62696918 -2.75 4.4375 C-3.70132812 4.78264648 -3.70132812 4.78264648 -4.671875 5.13476562 C-7.75412076 6.24244769 -10.79836438 7.29661036 -14 8 C-13.34 7.67 -12.68 7.34 -12 7 C-12.33 5.35 -12.66 3.7 -13 2 C-12.01 2 -11.02 2 -10 2 C-10 2.99 -10 3.98 -10 5 C-8.35 4.67 -6.7 4.34 -5 4 C-5 3.34 -5 2.68 -5 2 C-3.35 2 -1.7 2 0 2 C0 1.34 0 0.68 0 0 Z " fill="#7C72B0" transform="translate(301,170)"/>
<path d="M0 0 C0.99 0.33 1.98 0.66 3 1 C2.01 1.495 2.01 1.495 1 2 C1 2.66 1 3.32 1 4 C0.34 4 -0.32 4 -1 4 C-1 4.66 -1 5.32 -1 6 C-2.95927063 7.7143618 -4.95880212 9.38405168 -7 11 C-7.66 10.67 -8.32 10.34 -9 10 C-8.33333333 8 -7.66666667 6 -7 4 C-5.68 4 -4.36 4 -3 4 C-3.33 3.34 -3.66 2.68 -4 2 C-2.68 2 -1.36 2 0 2 C0 1.34 0 0.68 0 0 Z " fill="#5D509A" transform="translate(419,433)"/>
<path d="M0 0 C0.99 0 1.98 0 3 0 C3 0.66 3 1.32 3 2 C4.32 2.33 5.64 2.66 7 3 C2.25 7 2.25 7 0 7 C-0.33 7.66 -0.66 8.32 -1 9 C-1.09765625 2.84765625 -1.09765625 2.84765625 -1 1 C-0.67 0.67 -0.34 0.34 0 0 Z " fill="#443492" transform="translate(217,284)"/>
<path d="M0 0 C0 0.99 0 1.98 0 3 C-1.32 3 -2.64 3 -4 3 C-4 3.99 -4 4.98 -4 6 C-7.37362154 8.60250805 -9.76907828 9.36265043 -14 9 C-11.69806101 6.53522288 -9.24011346 4.68244803 -6.4375 2.8125 C-5.65246094 2.28269531 -4.86742187 1.75289062 -4.05859375 1.20703125 C-2 0 -2 0 0 0 Z " fill="#63579D" transform="translate(298,205)"/>
<path d="M0 0 C0.66 0.33 1.32 0.66 2 1 C2 2.32 2 3.64 2 5 C1.34 5 0.68 5 0 5 C0 5.66 0 6.32 0 7 C-0.66 7 -1.32 7 -2 7 C-2 7.66 -2 8.32 -2 9 C-3.32 9.33 -4.64 9.66 -6 10 C-5.49396008 7.83125748 -5.00016187 6.00032373 -4 4 C-3.34 4 -2.68 4 -2 4 C-2 3.34 -2 2.68 -2 2 C-1.34 2 -0.68 2 0 2 C0 1.34 0 0.68 0 0 Z " fill="#4B3E91" transform="translate(67,76)"/>
<path d="M0 0 C3.30735323 1.15372787 5.85612951 2.89627941 8.6875 4.9375 C7.3675 5.2675 6.0475 5.5975 4.6875 5.9375 C4.6875 5.2775 4.6875 4.6175 4.6875 3.9375 C3.32625 4.246875 3.32625 4.246875 1.9375 4.5625 C-1.42277897 4.9502245 -2.55325815 4.74161967 -5.3125 2.9375 C-3.58463555 0.66399415 -2.92546197 -0.07906654 0 0 Z " fill="#5D509D" transform="translate(247.3125,330.0625)"/>
<path d="M0 0 C0.66 1.32 1.32 2.64 2 4 C2.66 4 3.32 4 4 4 C4.36463732 5.74784829 4.7163078 7.49840502 5.0625 9.25 C5.25972656 10.22453125 5.45695313 11.1990625 5.66015625 12.203125 C5.98397535 14.868119 5.85503199 16.48871723 5 19 C2.73383385 12.74538144 1.16204993 6.54849313 0 0 Z " fill="#7367AA" transform="translate(5,309)"/>
<path d="M0 0 C0.33 0 0.66 0 1 0 C0.25 6.75 0.25 6.75 -2 9 C-4.65537372 9.56520003 -7.29144713 9.73788198 -10 10 C-6.25 7 -6.25 7 -4 7 C-3.71125 6.401875 -3.4225 5.80375 -3.125 5.1875 C-2 3 -2 3 0 0 Z " fill="#524695" transform="translate(331,368)"/>
<path d="M0 0 C6.88831341 -0.62621031 12.58902255 1.64193933 19 4 C19 4.33 19 4.66 19 5 C12.09232563 4.63176001 6.3618858 3.76081837 0 1 C0 0.67 0 0.34 0 0 Z " fill="#4E3B95" transform="translate(132,272)"/>
<path d="M0 0 C0.66 0 1.32 0 2 0 C2.53293835 1.74635165 3.05090663 3.49727652 3.5625 5.25 C3.85253906 6.22453125 4.14257812 7.1990625 4.44140625 8.203125 C4.99249836 10.96243932 4.93789609 12.3912824 4 15 C4 14.01 4 13.02 4 12 C3.34 12 2.68 12 2 12 C0.40861915 7.82262526 -0.21278058 4.46839215 0 0 Z " fill="#534594" transform="translate(492,186)"/>
<path d="M0 0 C-1.59316849 3.18633697 -3.72709626 3.78781343 -7 5 C-10.875 4.1875 -10.875 4.1875 -14 3 C-14 2.67 -14 2.34 -14 2 C-9.15758367 0.66416101 -5.06562383 -0.25328119 0 0 Z " fill="#46378C" transform="translate(187,7)"/>
<path d="M0 0 C0.33 0 0.66 0 1 0 C1.09507063 6.43311296 1.15316726 12.65758005 0 19 C-0.33 19 -0.66 19 -1 19 C-1.88164975 12.82845173 -2.23586714 7.15187197 -1 1 C-0.67 0.67 -0.34 0.34 0 0 Z " fill="#6E61AB" transform="translate(499,275)"/>
<path d="M0 0 C1.10844919 3.32534757 0.84454356 5.62182575 0 9 C-2.475 8.01 -2.475 8.01 -5 7 C-3.70700306 4.11562221 -2.34058637 2.12780579 0 0 Z " fill="#4D3E92" transform="translate(74,69)"/>
<path d="M0 0 C2.97069541 2.54631035 4.4775751 5.42230149 6 9 C5.67 9.66 5.34 10.32 5 11 C2.5 10 2.5 10 0 8 C-0.46837899 5.20625708 -0.23424505 2.85778964 0 0 Z " fill="#504293" transform="translate(474,136)"/>
<path d="M0 0 C2.97 0.495 2.97 0.495 6 1 C6 3.31 6 5.62 6 8 C2.125 5.25 2.125 5.25 1 3 C0.34 3 -0.32 3 -1 3 C-0.67 2.01 -0.34 1.02 0 0 Z " fill="#271485" transform="translate(295,210)"/>
<path d="M0 0 C2.4375 0.375 2.4375 0.375 5 1 C5.33 1.66 5.66 2.32 6 3 C5.01 3.33 4.02 3.66 3 4 C3.66 4.33 4.32 4.66 5 5 C4.67 6.32 4.34 7.64 4 9 C2.35 7.02 0.7 5.04 -1 3 C-0.34 2.67 0.32 2.34 1 2 C0.67 1.34 0.34 0.68 0 0 Z " fill="#4D3F96" transform="translate(66,418)"/>
<path d="M0 0 C1.33855056 0.78281305 2.67073644 1.57651877 4 2.375 C5.11375 3.03628906 5.11375 3.03628906 6.25 3.7109375 C6.8275 4.13632812 7.405 4.56171875 8 5 C8 5.66 8 6.32 8 7 C10.475 7.99 10.475 7.99 13 9 C10 10 10 10 7 9 C6.67 8.34 6.34 7.68 6 7 C5.01 6.67 4.02 6.34 3 6 C3 5.01 3 4.02 3 3 C2.01 2.67 1.02 2.34 0 2 C0 1.34 0 0.68 0 0 Z " fill="#7E70B0" transform="translate(272,347)"/>
<path d="M0 0 C0.66 0 1.32 0 2 0 C2.21192221 5.19209404 1.5912689 9.126739 0 14 C-0.66 13.67 -1.32 13.34 -2 13 C-1.34 8.71 -0.68 4.42 0 0 Z " fill="#483A8B" transform="translate(359,233)"/>
<path d="M0 0 C2.31 0.66 4.62 1.32 7 2 C6.67 2.66 6.34 3.32 6 4 C5.34 4 4.68 4 4 4 C4 4.66 4 5.32 4 6 C3.34 6 2.68 6 2 6 C2 6.66 2 7.32 2 8 C1.34 8 0.68 8 0 8 C0 5.36 0 2.72 0 0 Z " fill="#493B90" transform="translate(274,233)"/>
<path d="M0 0 C1.4540625 0.0309375 1.4540625 0.0309375 2.9375 0.0625 C0.58835508 2.41164492 -1.01929446 2.79390357 -4.1875 3.6875 C-5.55261719 4.07808594 -5.55261719 4.07808594 -6.9453125 4.4765625 C-7.64398438 4.66992188 -8.34265625 4.86328125 -9.0625 5.0625 C-9.3925 3.7425 -9.7225 2.4225 -10.0625 1.0625 C-8.6084375 1.0934375 -8.6084375 1.0934375 -7.125 1.125 C-3.56419433 1.0523305 -3.56080567 0.0726695 0 0 Z " fill="#61549D" transform="translate(260.0625,186.9375)"/>
<path d="M0 0 C0.33 0.66 0.66 1.32 1 2 C2.32 2 3.64 2 5 2 C5 1.34 5 0.68 5 0 C6.65 0.33 8.3 0.66 10 1 C7.3139714 2.79068573 5.3373411 3.66055791 2.3125 4.625 C1.50425781 4.88539063 0.69601562 5.14578125 -0.13671875 5.4140625 C-0.75160156 5.60742188 -1.36648438 5.80078125 -2 6 C-1.34 4.02 -0.68 2.04 0 0 Z " fill="#5C4EA0" transform="translate(266,181)"/>
<path d="M0 0 C0.33 1.32 0.66 2.64 1 4 C-1.475 5.485 -1.475 5.485 -4 7 C-4.33 5.02 -4.66 3.04 -5 1 C-2 0 -2 0 0 0 Z " fill="#3E2E8D" transform="translate(408,442)"/>
<path d="M0 0 C0.99 0 1.98 0 3 0 C2.5359375 1.1446875 2.5359375 1.1446875 2.0625 2.3125 C1.32106407 4.18789677 0.63771783 6.08684652 0 8 C-0.66 8 -1.32 8 -2 8 C-2 8.99 -2 9.98 -2 11 C-2.66 10.67 -3.32 10.34 -4 10 C-3.67 9.34 -3.34 8.68 -3 8 C-3.66 8 -4.32 8 -5 8 C-4.67 7.34 -4.34 6.68 -4 6 C-3.01 6.33 -2.02 6.66 -1 7 C-1.20625 6.21625 -1.4125 5.4325 -1.625 4.625 C-1.74875 3.75875 -1.8725 2.8925 -2 2 C-1.34 1.34 -0.68 0.68 0 0 Z " fill="#665AA5" transform="translate(467,372)"/>
<path d="M0 0 C4.455 0.99 4.455 0.99 9 2 C5.71536341 4.18975773 2.79303725 4.99806563 -1 6 C-1.66 5.34 -2.32 4.68 -3 4 C-2.01 3.34 -1.02 2.68 0 2 C0 1.34 0 0.68 0 0 Z " fill="#4A3A95" transform="translate(228,195)"/>
<path d="M0 0 C1.41493551 -0.10884119 2.83232943 -0.18597617 4.25 -0.25 C5.03890625 -0.29640625 5.8278125 -0.3428125 6.640625 -0.390625 C9 0 9 0 13 4 C8.38 3.34 3.76 2.68 -1 2 C-0.67 1.34 -0.34 0.68 0 0 Z " fill="#584C93" transform="translate(356,149)"/>
<path d="M0 0 C1.22589844 0.01353516 1.22589844 0.01353516 2.4765625 0.02734375 C3.41628906 0.04474609 3.41628906 0.04474609 4.375 0.0625 C1.1071794 2.24104707 -2.00558265 3.56010034 -5.625 5.0625 C-5.955 3.7425 -6.285 2.4225 -6.625 1.0625 C-4.21954362 -0.14022819 -2.67503047 -0.03821472 0 0 Z " fill="#1D0C71" transform="translate(207.625,1.9375)"/>
<path d="M0 0 C0.66 0 1.32 0 2 0 C1.67 3.3 1.34 6.6 1 10 C0.01 10.33 -0.98 10.66 -2 11 C-1.34 7.37 -0.68 3.74 0 0 Z " fill="#564A97" transform="translate(334,352)"/>
<path d="M0 0 C1.32 0.33 2.64 0.66 4 1 C-0.625 5.875 -0.625 5.875 -4 7 C-4 7.66 -4 8.32 -4 9 C-4.66 9 -5.32 9 -6 9 C-5.6875 7.0625 -5.6875 7.0625 -5 5 C-4.01 4.67 -3.02 4.34 -2 4 C-0.79117904 1.99983534 -0.79117904 1.99983534 0 0 Z " fill="#5F52A0" transform="translate(230,277)"/>
<path d="M0 0 C-2.84685749 2.31966166 -5.4763875 3.91581154 -9 5 C-9.99 4.67 -10.98 4.34 -12 4 C-11.34 4 -10.68 4 -10 4 C-9.67 3.01 -9.34 2.02 -9 1 C-2.63157895 -1.31578947 -2.63157895 -1.31578947 0 0 Z " fill="#524493" transform="translate(174,221)"/>
<path d="M0 0 C1.32 0.66 2.64 1.32 4 2 C3.01 2.495 3.01 2.495 2 3 C2 3.66 2 4.32 2 5 C1.34 5 0.68 5 0 5 C-0.28875 5.639375 -0.5775 6.27875 -0.875 6.9375 C-2 9 -2 9 -4 10 C-4.33 8.68 -4.66 7.36 -5 6 C-4.01 6 -3.02 6 -2 6 C-2 5.34 -2 4.68 -2 4 C-1.01 4 -0.02 4 1 4 C0.67 2.68 0.34 1.36 0 0 Z " fill="#675CA0" transform="translate(431,419)"/>
<path d="M0 0 C1.67542976 0.28604898 3.34385343 0.61781233 5 1 C4.34 2.65 3.68 4.3 3 6 C2.01 6 1.02 6 0 6 C-0.38218767 4.34385343 -0.71395102 2.67542976 -1 1 C-0.67 0.67 -0.34 0.34 0 0 Z " fill="#3E3088" transform="translate(284,225)"/>
<path d="M0 0 C2.64 0 5.28 0 8 0 C7.64950425 3.24208567 7.43778819 4.61527704 4.9375 6.8125 C4.298125 7.204375 3.65875 7.59625 3 8 C2.67 7.01 2.34 6.02 2 5 C3.65 4.34 5.3 3.68 7 3 C7 2.34 7 1.68 7 1 C4.36 1.33 1.72 1.66 -1 2 C-0.67 1.34 -0.34 0.68 0 0 Z " fill="#5B5199" transform="translate(317,192)"/>
<path d="M0 0 C0.66 0.33 1.32 0.66 2 1 C1.34 3.31 0.68 5.62 0 8 C-0.33 7.34 -0.66 6.68 -1 6 C-3.02463255 5.34786708 -3.02463255 5.34786708 -5 5 C-3.625 3.5 -3.625 3.5 -2 2 C-1.34 2 -0.68 2 0 2 C0 1.34 0 0.68 0 0 Z " fill="#524298" transform="translate(231,343)"/>
<path d="M0 0 C2 1 2 1 3 3 C1.68 3 0.36 3 -1 3 C-1 3.66 -1 4.32 -1 5 C-2.32 5 -3.64 5 -5 5 C-5.33 5.66 -5.66 6.32 -6 7 C-6.99 6.67 -7.98 6.34 -9 6 C-6.03 4.02 -3.06 2.04 0 0 Z " fill="#695DA7" transform="translate(187,274)"/>
<path d="M0 0 C0.33 0.66 0.66 1.32 1 2 C0.34 1.67 -0.32 1.34 -1 1 C-0.67 0.67 -0.34 0.34 0 0 Z M-3 3 C-0.8614515 5.1385485 -0.57344937 6.13275314 0 9 C-0.99 9.66 -1.98 10.32 -3 11 C-3.66 8.69 -4.32 6.38 -5 4 C-4.34 3.67 -3.68 3.34 -3 3 Z " fill="#34228C" transform="translate(285,223)"/>
<path d="M0 0 C0.33 0 0.66 0 1 0 C1.33 2.31 1.66 4.62 2 7 C1.01 7.33 0.02 7.66 -1 8 C-0.67 9.65 -0.34 11.3 0 13 C-0.66 13 -1.32 13 -2 13 C-2.33 13.66 -2.66 14.32 -3 15 C-2 10 -1 5 0 0 Z " fill="#6B5EA4" transform="translate(369,188)"/>
<path d="M0 0 C0.99 0.33 1.98 0.66 3 1 C3 1.99 3 2.98 3 4 C3.66 4 4.32 4 5 4 C5.66 5.65 6.32 7.3 7 9 C5.68 8.34 4.36 7.68 3 7 C3 6.34 3 5.68 3 5 C2.01 5 1.02 5 0 5 C0 3.35 0 1.7 0 0 Z " fill="#62559C" transform="translate(460,113)"/>
<path d="M0 0 C1.67542976 0.28604898 3.34385343 0.61781233 5 1 C4.1875 2.9375 4.1875 2.9375 3 5 C2.01 5.33 1.02 5.66 0 6 C-0.66 5.34 -1.32 4.68 -2 4 C-1 1 -1 1 0 0 Z " fill="#483897" transform="translate(308,375)"/>
<path d="M0 0 C1.98 0.99 3.96 1.98 6 3 C6 3.66 6 4.32 6 5 C8.475 5.99 8.475 5.99 11 7 C9.02 7.99 9.02 7.99 7 9 C6.773125 8.195625 6.54625 7.39125 6.3125 6.5625 C5.879375 5.716875 5.44625 4.87125 5 4 C2.45224694 3.10613836 2.45224694 3.10613836 0 3 C0 2.01 0 1.02 0 0 Z " fill="#6256A2" transform="translate(259,338)"/>
<path d="M0 0 C0 0.66 0 1.32 0 2 C0.66 2 1.32 2 2 2 C2.33 3.65 2.66 5.3 3 7 C2.01 7 1.02 7 0 7 C-0.33 5.68 -0.66 4.36 -1 3 C-2.32 2.67 -3.64 2.34 -5 2 C-2 0 -2 0 0 0 Z " fill="#493899" transform="translate(303,202)"/>
<path d="M0 0 C0.99 0.33 1.98 0.66 3 1 C2.67 1.66 2.34 2.32 2 3 C1.92966231 4.87379605 1.9156978 6.75001102 1.9375 8.625 C1.94652344 9.62789063 1.95554687 10.63078125 1.96484375 11.6640625 C1.97644531 12.43492187 1.98804688 13.20578125 2 14 C-0.46469381 11.53530619 -0.38543894 10.4068526 -0.6875 7 C-0.77386719 6.113125 -0.86023438 5.22625 -0.94921875 4.3125 C-1 2 -1 2 0 0 Z " fill="#7062AB" transform="translate(3,292)"/>
<path d="M0 0 C0.99 0 1.98 0 3 0 C3 0.66 3 1.32 3 2 C1.70990357 2.50403768 0.41786211 3.00309926 -0.875 3.5 C-1.95394531 3.91765625 -1.95394531 3.91765625 -3.0546875 4.34375 C-5 5 -5 5 -7 5 C-7 4.01 -7 3.02 -7 2 C-4.69 2 -2.38 2 0 2 C0 1.34 0 0.68 0 0 Z " fill="#5B4F95" transform="translate(283,177)"/>
<path d="M0 0 C1.98 0 3.96 0 6 0 C6.66 1.65 7.32 3.3 8 5 C6.35 4.67 4.7 4.34 3 4 C3 3.34 3 2.68 3 2 C2.01 1.67 1.02 1.34 0 1 C0 0.67 0 0.34 0 0 Z " fill="#433584" transform="translate(140,475)"/>
<path d="M0 0 C0.66 0.99 1.32 1.98 2 3 C-1.625 8.875 -1.625 8.875 -5 10 C-5 9.34 -5 8.68 -5 8 C-4.34 8 -3.68 8 -3 8 C-3 7.01 -3 6.02 -3 5 C-2.34 5 -1.68 5 -1 5 C-0.67 3.35 -0.34 1.7 0 0 Z " fill="#1D0C72" transform="translate(39,113)"/>
<path d="M0 0 C2.5 1.3125 2.5 1.3125 5 3 C5 3.99 5 4.98 5 6 C3.68 6.33 2.36 6.66 1 7 C0.67 4.69 0.34 2.38 0 0 Z " fill="#4B3B90" transform="translate(453,103)"/>
<path d="M0 0 C0.99 0 1.98 0 3 0 C1.9024777 2.99324263 1.32317108 3.84610901 -1.625 5.25 C-2.40875 5.4975 -3.1925 5.745 -4 6 C-2.84826645 3.53199953 -1.95216435 1.95216435 0 0 Z " fill="#3E2F85" transform="translate(93,52)"/>
<path d="M0 0 C2.0625 0.4375 2.0625 0.4375 4 1 C2.6875 2.5 2.6875 2.5 1 4 C0.01 4 -0.98 4 -2 4 C-2 4.66 -2 5.32 -2 6 C-2.66 5.67 -3.32 5.34 -4 5 C-4 4.01 -4 3.02 -4 2 C-3.01 1.67 -2.02 1.34 -1 1 C-0.67 0.67 -0.34 0.34 0 0 Z " fill="#5B4D98" transform="translate(385,459)"/>
<path d="M0 0 C0.99 0 1.98 0 3 0 C5.125 6.625 5.125 6.625 4 10 C2.68 6.7 1.36 3.4 0 0 Z " fill="#7A70AF" transform="translate(20,353)"/>
<path d="M0 0 C1.15957207 3.47871621 0.77456651 4.34219645 -0.4375 7.6875 C-0.72496094 8.49574219 -1.01242187 9.30398438 -1.30859375 10.13671875 C-1.53675781 10.75160156 -1.76492188 11.36648438 -2 12 C-2.33 11.01 -2.66 10.02 -3 9 C-3.66 8.67 -4.32 8.34 -5 8 C-3.68 7.67 -2.36 7.34 -1 7 C-1.020625 6.030625 -1.04125 5.06125 -1.0625 4.0625 C-1 1 -1 1 0 0 Z " fill="#5C4F9B" transform="translate(489,324)"/>
<path d="M0 0 C0.99 0.33 1.98 0.66 3 1 C3 2.32 3 3.64 3 5 C1.35 5 -0.3 5 -2 5 C-1.34 3.35 -0.68 1.7 0 0 Z " fill="#2A1882" transform="translate(279,230)"/>
<path d="M0 0 C2 3.75 2 3.75 2 6 C1.01 6 0.02 6 -1 6 C-1.66 5.34 -2.32 4.68 -3 4 C-3.66 3.67 -4.32 3.34 -5 3 C-3.35 2.01 -1.7 1.02 0 0 Z " fill="#504196" transform="translate(270,222)"/>
<path d="M0 0 C1.65 0.33 3.3 0.66 5 1 C2.73814546 3.26185454 1.03016439 4.03921617 -2 5 C-2.99 4.67 -3.98 4.34 -5 4 C-4.67 3.34 -4.34 2.68 -4 2 C-2.68 2 -1.36 2 0 2 C0 1.34 0 0.68 0 0 Z " fill="#66589F" transform="translate(312,165)"/>
<path d="M0 0 C1.32 0.66 2.64 1.32 4 2 C3.67 2.66 3.34 3.32 3 4 C2.34 4 1.68 4 1 4 C0.34 5.32 -0.32 6.64 -1 8 C-0.67 5.36 -0.34 2.72 0 0 Z " fill="#1D0C74" transform="translate(354,262)"/>
<path d="M0 0 C1.65 0.33 3.3 0.66 5 1 C3.68 2.32 2.36 3.64 1 5 C0.34 4.67 -0.32 4.34 -1 4 C-0.67 2.68 -0.34 1.36 0 0 Z " fill="#544596" transform="translate(251,257)"/>
<path d="M0 0 C0.66 0.33 1.32 0.66 2 1 C1.1875 2.9375 1.1875 2.9375 0 5 C-0.99 5.33 -1.98 5.66 -3 6 C-3.99 5.34 -4.98 4.68 -6 4 C-4.02 2.68 -2.04 1.36 0 0 Z " fill="#4C3F94" transform="translate(309,197)"/>
<path d="M0 0 C6.875 3.75 6.875 3.75 8 6 C6.35 5.67 4.7 5.34 3 5 C3 4.34 3 3.68 3 3 C2.01 2.67 1.02 2.34 0 2 C0 1.34 0 0.68 0 0 Z " fill="#5C4E99" transform="translate(287,359)"/>
<path d="M0 0 C0.66 0.33 1.32 0.66 2 1 C2 1.99 2 2.98 2 4 C0.02 4.66 -1.96 5.32 -4 6 C-3.0022242 3.00667261 -2.2477975 2.05233685 0 0 Z " fill="#665BA1" transform="translate(224,349)"/>
<path d="M0 0 C1.32 0.33 2.64 0.66 4 1 C3.34 2.32 2.68 3.64 2 5 C0.68 4.67 -0.64 4.34 -2 4 C-1.34 2.68 -0.68 1.36 0 0 Z " fill="#4B3B93" transform="translate(267,242)"/>
<path d="M0 0 C0.66 0 1.32 0 2 0 C1.75 1.875 1.75 1.875 1 4 C-1.0625 5.25 -1.0625 5.25 -3 6 C-3.33 5.01 -3.66 4.02 -4 3 C-2.68 2.67 -1.36 2.34 0 2 C0 1.34 0 0.68 0 0 Z " fill="#695EA0" transform="translate(317,199)"/>
<path d="M0 0 C0.99 0.99 1.98 1.98 3 3 C2.67 3.66 2.34 4.32 2 5 C1.34 4.67 0.68 4.34 0 4 C0 4.66 0 5.32 0 6 C-0.99 5.67 -1.98 5.34 -3 5 C-2.01 3.35 -1.02 1.7 0 0 Z M-5 6 C-3 7 -3 7 -3 7 Z " fill="#22107E" transform="translate(317,195)"/>
<path d="M0 0 C2.6875 1.9375 2.6875 1.9375 5 4 C3.35 4.33 1.7 4.66 0 5 C0 4.34 0 3.68 0 3 C-0.99 3.33 -1.98 3.66 -3 4 C-3 3.01 -3 2.02 -3 1 C-2.01 0.67 -1.02 0.34 0 0 Z " fill="#4B3696" transform="translate(318,161)"/>
<path d="M0 0 C2.69082872 0.17635452 5.32851446 0.61835921 8 1 C8 1.33 8 1.66 8 2 C6.35 2 4.7 2 3 2 C3 2.66 3 3.32 3 4 C2.01 4 1.02 4 0 4 C-0.33 3.01 -0.66 2.02 -1 1 C-0.67 0.67 -0.34 0.34 0 0 Z " fill="#41318E" transform="translate(313,377)"/>
<path d="M0 0 C0.99 0 1.98 0 3 0 C2.34 2.31 1.68 4.62 1 7 C-1 4 -1 4 -0.625 1.8125 C-0.41875 1.214375 -0.2125 0.61625 0 0 Z " fill="#57479B" transform="translate(478,349)"/>
<path d="M0 0 C2.97 0 5.94 0 9 0 C9 0.66 9 1.32 9 2 C7.35 2.33 5.7 2.66 4 3 C4 2.34 4 1.68 4 1 C2.68 0.67 1.36 0.34 0 0 Z " fill="#1E0C73" transform="translate(167,283)"/>
<path d="M0 0 C0.99 0 1.98 0 3 0 C3 0.99 3 1.98 3 3 C3.66 3.33 4.32 3.66 5 4 C4.01 4.66 3.02 5.32 2 6 C1.01 5.67 0.02 5.34 -1 5 C-0.34 5 0.32 5 1 5 C0.67 3.35 0.34 1.7 0 0 Z " fill="#554698" transform="translate(288,172)"/>
<path d="M0 0 C0.33 0 0.66 0 1 0 C0.67 2.31 0.34 4.62 0 7 C-0.99 7.33 -1.98 7.66 -3 8 C-2.37240135 5.07120629 -1.41377341 2.63904371 0 0 Z " fill="#544796" transform="translate(25,136)"/>
<path d="M0 0 C3.96 0.33 7.92 0.66 12 1 C12 1.33 12 1.66 12 2 C9.36 2 6.72 2 4 2 C3.67 2.66 3.34 3.32 3 4 C3 3.34 3 2.68 3 2 C2.01 1.67 1.02 1.34 0 1 C0 0.67 0 0.34 0 0 Z " fill="#6A5EA9" transform="translate(283,0)"/>
</svg>
