<?xml version="1.0" encoding="UTF-8"?>
<svg version="1.1" xmlns="http://www.w3.org/2000/svg" width="500" height="500">
<path d="M0 0 C0.77590485 -0.00282738 1.55180969 -0.00565475 2.35122681 -0.00856781 C6.4621819 -0.02349101 10.57310257 -0.0327623 14.68408203 -0.03710938 C18.87820578 -0.04256666 23.07200044 -0.0665562 27.26602173 -0.09508133 C30.53677212 -0.113932 33.807447 -0.11892517 37.07824707 -0.12044525 C38.6216409 -0.12342491 40.16503498 -0.13128913 41.70837402 -0.14463043 C56.72978783 -0.26515873 70.85050317 1.88733091 85.1875 6.515625 C86.15268555 6.81903809 87.11787109 7.12245117 88.11230469 7.43505859 C90.99538319 8.34617984 93.87290119 9.27332165 96.75 10.203125 C98.44400591 10.74089961 100.1380161 11.27866075 101.83203125 11.81640625 C110.06449741 14.46137869 117.9939497 17.34646638 125.75 21.203125 C127.0286097 21.82950085 128.30725853 22.45579682 129.5859375 23.08203125 C141.81462813 29.10520408 153.49838664 35.46857224 164.75 43.203125 C165.73355469 43.86183594 166.71710938 44.52054688 167.73046875 45.19921875 C168.64441406 45.81925781 169.55835938 46.43929687 170.5 47.078125 C171.31984375 47.63242187 172.1396875 48.18671875 172.984375 48.7578125 C173.56703125 49.23476563 174.1496875 49.71171875 174.75 50.203125 C174.75 50.863125 174.75 51.523125 174.75 52.203125 C175.41 52.38875 176.07 52.574375 176.75 52.765625 C181.01905268 54.81121274 184.49163706 57.77497143 187.75 61.203125 C187.75 61.863125 187.75 62.523125 187.75 63.203125 C188.64912109 63.34814453 188.64912109 63.34814453 189.56640625 63.49609375 C192.21018393 64.3521291 193.00448832 65.33843261 194.6875 67.515625 C197.12932118 70.53561039 199.69593165 72.79201841 202.75 75.203125 C206.75 79.74366554 206.75 79.74366554 206.75 82.203125 C207.41 82.203125 208.07 82.203125 208.75 82.203125 C208.75 82.863125 208.75 83.523125 208.75 84.203125 C209.74 84.533125 210.73 84.863125 211.75 85.203125 C212.9375 87.765625 212.9375 87.765625 213.75 90.203125 C214.41 90.203125 215.07 90.203125 215.75 90.203125 C219.75 95.61488971 219.75 95.61488971 219.75 98.203125 C220.41 98.203125 221.07 98.203125 221.75 98.203125 C226.36496638 103.27958802 231.64754935 110.31280845 232.75 117.203125 C233.41 117.203125 234.07 117.203125 234.75 117.203125 C236.65087094 120.80465573 238.5447344 124.40982888 240.4375 128.015625 C241.23317383 129.52286133 241.23317383 129.52286133 242.04492188 131.06054688 C245.51414574 137.67974088 248.73407252 144.36594046 251.75 151.203125 C252.42869141 152.72099609 252.42869141 152.72099609 253.12109375 154.26953125 C263.61885401 178.84121186 270.27410759 204.55767172 270.1484375 231.33203125 C270.15046915 232.90225865 270.15338952 234.47248511 270.15713501 236.04270935 C270.16150598 239.30062019 270.15529856 242.55828085 270.14111328 245.81616211 C270.12401006 249.93946251 270.13390335 254.06217714 270.15183067 258.18545628 C270.1627998 261.41762001 270.1591632 264.64965048 270.1514473 267.88181877 C270.14948204 269.40007539 270.15177096 270.91834516 270.15888596 272.43658638 C270.21393767 287.47157997 267.96543012 301.61479051 263.3125 315.953125 C262.68741468 317.93226472 262.06241395 319.91143116 261.4375 321.890625 C261.14230469 322.81359375 260.84710938 323.7365625 260.54296875 324.6875 C259.57451038 327.75985068 258.69743925 330.85583761 257.8125 333.953125 C252.96074367 349.65365835 245.56607019 364.17766768 236.94921875 378.109375 C235.61522163 380.27895919 235.61522163 380.27895919 234.75 383.203125 C234.09 383.203125 233.43 383.203125 232.75 383.203125 C232.37681641 384.25306641 232.37681641 384.25306641 231.99609375 385.32421875 C230.58289104 388.58920431 228.81015109 391.32308866 226.8125 394.265625 C225.77802734 395.79896484 225.77802734 395.79896484 224.72265625 397.36328125 C224.07167969 398.30042969 223.42070312 399.23757813 222.75 400.203125 C221.94369141 401.37681641 221.94369141 401.37681641 221.12109375 402.57421875 C220.44240234 403.38052734 220.44240234 403.38052734 219.75 404.203125 C219.09 404.203125 218.43 404.203125 217.75 404.203125 C217.481875 404.945625 217.21375 405.688125 216.9375 406.453125 C215.79723249 409.09374449 214.65619694 411.05865344 212.75 413.203125 C212.09 413.203125 211.43 413.203125 210.75 413.203125 C210.37875 414.0384375 210.37875 414.0384375 210 414.890625 C208.52075182 417.62723413 206.81532561 419.87963369 204.75 422.203125 C204.09 422.203125 203.43 422.203125 202.75 422.203125 C202.75 422.863125 202.75 423.523125 202.75 424.203125 C202.09 424.203125 201.43 424.203125 200.75 424.203125 C200.75 424.863125 200.75 425.523125 200.75 426.203125 C200.09 426.203125 199.43 426.203125 198.75 426.203125 C198.42 427.193125 198.09 428.183125 197.75 429.203125 C197.09 429.203125 196.43 429.203125 195.75 429.203125 C195.75 429.863125 195.75 430.523125 195.75 431.203125 C195.09 431.203125 194.43 431.203125 193.75 431.203125 C193.75 431.863125 193.75 432.523125 193.75 433.203125 C193.09 433.203125 192.43 433.203125 191.75 433.203125 C191.75 433.863125 191.75 434.523125 191.75 435.203125 C191.09 435.203125 190.43 435.203125 189.75 435.203125 C189.75 435.863125 189.75 436.523125 189.75 437.203125 C189.09 437.203125 188.43 437.203125 187.75 437.203125 C187.75 437.863125 187.75 438.523125 187.75 439.203125 C187.09 439.203125 186.43 439.203125 185.75 439.203125 C185.75 439.863125 185.75 440.523125 185.75 441.203125 C182.28846154 444.203125 182.28846154 444.203125 179.75 444.203125 C179.75 444.863125 179.75 445.523125 179.75 446.203125 C174.33823529 450.203125 174.33823529 450.203125 171.75 450.203125 C171.75 450.863125 171.75 451.523125 171.75 452.203125 C166.67353698 456.81809138 159.64031655 462.10067435 152.75 463.203125 C152.75 463.863125 152.75 464.523125 152.75 465.203125 C149.14846927 467.10399594 145.54329612 468.9978594 141.9375 470.890625 C140.43026367 471.68629883 140.43026367 471.68629883 138.89257812 472.49804688 C132.27338412 475.96727074 125.58718454 479.18719752 118.75 482.203125 C117.73808594 482.65558594 116.72617187 483.10804688 115.68359375 483.57421875 C102.17030021 489.34750378 88.04658892 493.83324538 73.75 497.203125 C72.04529541 497.60905884 72.04529541 497.60905884 70.30615234 498.02319336 C55.52218457 500.98280291 40.59320391 500.66033714 25.58349609 500.59423828 C21.66829908 500.57717683 17.75371502 500.5872865 13.83853912 500.60455132 C-6.17191888 500.67962801 -25.70609677 500.3725809 -45 494.328125 C-45.86431641 494.06837891 -46.72863281 493.80863281 -47.61914062 493.54101562 C-49.35145639 493.01812474 -51.08201722 492.48937533 -52.81054688 491.95410156 C-55.09180331 491.25182526 -57.37926173 490.57815129 -59.671875 489.9140625 C-68.24783339 487.39451482 -76.2124365 484.12474939 -84.25 480.203125 C-85.80855923 479.47629365 -87.36855763 478.75254343 -88.9296875 478.03125 C-108.40016906 469.00569168 -108.40016906 469.00569168 -113.25 465.203125 C-113.25 464.543125 -113.25 463.883125 -113.25 463.203125 C-114.06984375 463.06197266 -114.06984375 463.06197266 -114.90625 462.91796875 C-123.8217381 460.19874488 -131.86666678 452.21110828 -138.8515625 446.20703125 C-141.07008596 444.19712981 -141.07008596 444.19712981 -143.25 443.203125 C-143.25 442.543125 -143.25 441.883125 -143.25 441.203125 C-143.806875 440.955625 -144.36375 440.708125 -144.9375 440.453125 C-147.67410913 438.97387682 -149.92650869 437.26845061 -152.25 435.203125 C-152.25 434.543125 -152.25 433.883125 -152.25 433.203125 C-152.91 433.203125 -153.57 433.203125 -154.25 433.203125 C-154.25 432.543125 -154.25 431.883125 -154.25 431.203125 C-155.0853125 430.8628125 -155.0853125 430.8628125 -155.9375 430.515625 C-158.91159588 428.82762464 -160.97008865 426.73635983 -163.25 424.203125 C-163.25 423.543125 -163.25 422.883125 -163.25 422.203125 C-163.91 422.203125 -164.57 422.203125 -165.25 422.203125 C-165.25 421.543125 -165.25 420.883125 -165.25 420.203125 C-165.91 420.203125 -166.57 420.203125 -167.25 420.203125 C-167.25 419.543125 -167.25 418.883125 -167.25 418.203125 C-167.91 418.203125 -168.57 418.203125 -169.25 418.203125 C-171.20981288 415.94904592 -173.05400764 413.6898689 -174.875 411.328125 C-175.390625 410.67714844 -175.90625 410.02617187 -176.4375 409.35546875 C-180.25 404.46376901 -180.25 404.46376901 -180.25 402.203125 C-180.91 402.203125 -181.57 402.203125 -182.25 402.203125 C-186.86496638 397.12666198 -192.14754935 390.09344155 -193.25 383.203125 C-193.91 383.203125 -194.57 383.203125 -195.25 383.203125 C-201.35651729 375.41481278 -205.04606104 365.38869684 -209.1809082 356.45776367 C-210.20905614 354.28947269 -211.29326618 352.1592113 -212.39453125 350.02734375 C-214.09759302 346.64980072 -215.27883779 343.28752846 -216.3125 339.640625 C-217.31853183 336.21933388 -218.32220791 333.03764853 -219.75 329.765625 C-223.37591864 321.15406823 -225.389904 311.92321696 -227.4375 302.828125 C-227.68777954 301.72343872 -227.68777954 301.72343872 -227.94311523 300.59643555 C-228.09981689 299.88140869 -228.25651855 299.16638184 -228.41796875 298.4296875 C-228.55485107 297.80658691 -228.6917334 297.18348633 -228.83276367 296.54150391 C-229.88810653 290.62689073 -230.37773202 284.86958357 -230.41113281 278.86352539 C-230.41609772 278.1776535 -230.42106262 277.49178162 -230.42617798 276.78512573 C-230.44064927 274.54033356 -230.44757897 272.2956122 -230.453125 270.05078125 C-230.45595238 269.27395933 -230.45877975 268.49713741 -230.46169281 267.69677544 C-230.47663013 263.57934106 -230.48589197 259.46194118 -230.49023438 255.34448242 C-230.49568732 251.14248289 -230.51966335 246.94081256 -230.54820633 242.73891544 C-230.56705905 239.46387385 -230.57205032 236.18890767 -230.57357025 232.91381645 C-230.57655052 231.36763157 -230.58441697 229.82144646 -230.59775543 228.27531624 C-230.70987075 214.27142321 -229.06744395 200.71513358 -224.75 187.328125 C-224.31280783 185.91306721 -223.87660904 184.49770214 -223.44140625 183.08203125 C-223.23531738 182.41961426 -223.02922852 181.75719727 -222.81689453 181.07470703 C-222.03404455 178.4901558 -221.36055852 175.88062285 -220.6875 173.265625 C-219.27673851 168.05126348 -217.3360822 163.17916183 -215.25 158.203125 C-214.71434937 156.86399844 -214.18065203 155.52408964 -213.6484375 154.18359375 C-210.69214741 146.78790553 -207.62652659 139.65002107 -203.671875 132.71875 C-201.36240201 128.63275933 -199.31547948 124.41633757 -197.25 120.203125 C-196.59 120.203125 -195.93 120.203125 -195.25 120.203125 C-195.25 119.213125 -195.25 118.223125 -195.25 117.203125 C-194.59 117.203125 -193.93 117.203125 -193.25 117.203125 C-193.16105469 116.66171875 -193.07210937 116.1203125 -192.98046875 115.5625 C-190.59910201 107.87081278 -183.73634047 99.14374844 -178.25 93.203125 C-177.59 93.203125 -176.93 93.203125 -176.25 93.203125 C-175.981875 92.39875 -175.71375 91.594375 -175.4375 90.765625 C-175.045625 89.92 -174.65375 89.074375 -174.25 88.203125 C-173.26 87.873125 -172.27 87.543125 -171.25 87.203125 C-170.14163577 85.31996341 -170.14163577 85.31996341 -169.25 83.203125 C-168.26 81.718125 -168.26 81.718125 -167.25 80.203125 C-166.59 80.203125 -165.93 80.203125 -165.25 80.203125 C-165.25 79.543125 -165.25 78.883125 -165.25 78.203125 C-164.59 78.203125 -163.93 78.203125 -163.25 78.203125 C-163.25 77.543125 -163.25 76.883125 -163.25 76.203125 C-162.59 76.203125 -161.93 76.203125 -161.25 76.203125 C-161.023125 75.64625 -160.79625 75.089375 -160.5625 74.515625 C-158.87449964 71.54152912 -156.78323483 69.48303635 -154.25 67.203125 C-153.59 67.203125 -152.93 67.203125 -152.25 67.203125 C-152.25 66.543125 -152.25 65.883125 -152.25 65.203125 C-151.59 65.203125 -150.93 65.203125 -150.25 65.203125 C-150.25 64.543125 -150.25 63.883125 -150.25 63.203125 C-149.59 63.203125 -148.93 63.203125 -148.25 63.203125 C-148.25 62.543125 -148.25 61.883125 -148.25 61.203125 C-145.99592092 59.24331212 -143.7367439 57.39911736 -141.375 55.578125 C-140.72402344 55.0625 -140.07304687 54.546875 -139.40234375 54.015625 C-134.51064401 50.203125 -134.51064401 50.203125 -132.25 50.203125 C-132.25 49.543125 -132.25 48.883125 -132.25 48.203125 C-127.17353698 43.58815862 -120.14031655 38.30557565 -113.25 37.203125 C-113.25 36.543125 -113.25 35.883125 -113.25 35.203125 C-105.46173054 29.09664123 -95.435461 25.4066927 -86.50439453 21.2722168 C-84.33720075 20.24447783 -82.20857483 19.16004907 -80.078125 18.05859375 C-76.68037845 16.34491824 -73.29606206 15.17227383 -69.625 14.140625 C-66.36270471 13.22038916 -63.48654104 12.32858878 -60.48828125 10.73828125 C-56.14383758 8.67873196 -51.74048948 7.74101759 -47.0625 6.703125 C-45.17804126 6.27233605 -43.29392201 5.8400592 -41.41015625 5.40625 C-40.51441895 5.20064453 -39.61868164 4.99503906 -38.69580078 4.78320312 C-35.024097 3.9123738 -31.40559628 2.88178202 -27.796875 1.78125 C-18.67841147 -0.28858528 -9.29422971 0.02304278 0 0 Z M27.75 109.203125 C27.71241577 114.05717041 27.71241577 114.05717041 27.67407227 119.00927734 C27.41596417 152.18750009 27.14137126 185.36555728 26.85121822 218.54351425 C26.78708735 225.88862541 26.7244844 233.23374643 26.66370296 240.57888603 C26.58161239 250.49036176 26.49393316 260.40174177 26.39169216 270.31303215 C26.3468171 274.66868543 26.30496121 279.02431046 26.27127075 283.38006592 C26.24004747 287.39937192 26.19989939 291.41848594 26.15255737 295.43763351 C26.13713005 296.87461604 26.12486522 298.31163703 26.11621094 299.7486763 C26.00276369 317.82397947 26.00276369 317.82397947 21.75 324.203125 C21.75 325.193125 21.75 326.183125 21.75 327.203125 C21.09 327.203125 20.43 327.203125 19.75 327.203125 C19.49605469 327.76902344 19.24210937 328.33492187 18.98046875 328.91796875 C18.63628906 329.65144531 18.29210937 330.38492188 17.9375 331.140625 C17.60105469 331.87152344 17.26460938 332.60242188 16.91796875 333.35546875 C15.75 335.203125 15.75 335.203125 12.75 336.203125 C12.75 336.863125 12.75 337.523125 12.75 338.203125 C11.76 338.203125 10.77 338.203125 9.75 338.203125 C9.75 338.863125 9.75 339.523125 9.75 340.203125 C9.069375 340.47125 8.38875 340.739375 7.6875 341.015625 C5.55962685 341.87582904 3.45778881 342.80137092 1.375 343.765625 C-4.55808277 346.1183992 -10.41304616 346.3578928 -16.75 346.390625 C-18.62171875 346.41189453 -18.62171875 346.41189453 -20.53125 346.43359375 C-25.83915582 346.1046374 -30.57068903 344.55423963 -35.5 342.640625 C-37.74242469 341.77504907 -39.9673867 340.9639961 -42.25 340.203125 C-42.25 339.543125 -42.25 338.883125 -42.25 338.203125 C-44.88684747 335.80492195 -44.88684747 335.80492195 -48.25 335.203125 C-48.58 334.213125 -48.91 333.223125 -49.25 332.203125 C-49.91 332.203125 -50.57 332.203125 -51.25 332.203125 C-51.518125 331.5225 -51.78625 330.841875 -52.0625 330.140625 C-52.91243684 328.03814967 -53.81452644 325.95646245 -54.75 323.890625 C-59.2686361 312.78231125 -60.5816924 299.80773459 -56 288.515625 C-54.05951016 284.49131369 -51.85181228 280.82707781 -49.25 277.203125 C-48.92 276.213125 -48.59 275.223125 -48.25 274.203125 C-47.59 274.203125 -46.93 274.203125 -46.25 274.203125 C-46.25 273.543125 -46.25 272.883125 -46.25 272.203125 C-43.58333333 270.86979167 -40.91666667 269.53645833 -38.25 268.203125 C-38.25 267.543125 -38.25 266.883125 -38.25 266.203125 C-36.8754817 265.88851303 -35.50035581 265.57655527 -34.125 265.265625 C-33.35929687 265.09160156 -32.59359375 264.91757812 -31.8046875 264.73828125 C-21.98714716 262.6817017 -15.36884073 263.203125 -4.25 263.203125 C-4.25 248.353125 -4.25 233.503125 -4.25 218.203125 C-19.76089331 213.03282723 -41.34487856 218.86210884 -55.49609375 225.79296875 C-58.11319291 227.21447414 -60.68185707 228.69583285 -63.25 230.203125 C-64.57742224 230.88148509 -65.90874638 231.55253991 -67.25 232.203125 C-67.25 232.863125 -67.25 233.523125 -67.25 234.203125 C-69.25 235.203125 -71.25 236.203125 -73.25 237.203125 C-73.25 237.863125 -73.25 238.523125 -73.25 239.203125 C-73.86875 239.450625 -74.4875 239.698125 -75.125 239.953125 C-77.60068687 241.40941139 -78.20125002 242.58125006 -79.25 245.203125 C-79.91 245.203125 -80.57 245.203125 -81.25 245.203125 C-84.88633539 248.68311007 -84.88633539 248.68311007 -86.25 253.203125 C-86.91 253.203125 -87.57 253.203125 -88.25 253.203125 C-102.58079204 277.52488318 -108.44991565 299.49116248 -101.76220703 327.22607422 C-98.942456 337.825196 -93.87340279 346.8797927 -88.25 356.203125 C-87.59 356.203125 -86.93 356.203125 -86.25 356.203125 C-85.9096875 357.316875 -85.9096875 357.316875 -85.5625 358.453125 C-84.00071394 361.72543864 -82.12764944 363.06333439 -79.25 365.203125 C-78.92 365.863125 -78.59 366.523125 -78.25 367.203125 C-77.59 367.203125 -76.93 367.203125 -76.25 367.203125 C-75.92 368.193125 -75.59 369.183125 -75.25 370.203125 C-72.99113818 372.03736702 -70.75291826 373.72703149 -68.375 375.390625 C-67.73691406 375.85404297 -67.09882813 376.31746094 -66.44140625 376.79492188 C-62.71470544 379.5296395 -62.71470544 379.5296395 -58.25 380.203125 C-58.25 380.863125 -58.25 381.523125 -58.25 382.203125 C-56.20900065 382.9965105 -54.1671691 383.7877553 -52.125 384.578125 C-50.98804688 385.01898438 -49.85109375 385.45984375 -48.6796875 385.9140625 C-45.55651478 387.08792013 -42.42146568 388.16836713 -39.25 389.203125 C-38.21875 389.55375 -37.1875 389.904375 -36.125 390.265625 C-23.20998837 393.39022459 -10.19275483 392.51316099 2.75 390.203125 C3.52085937 390.09355469 4.29171875 389.98398437 5.0859375 389.87109375 C11.50619005 388.78514025 17.00781289 385.76054859 22.7109375 382.76171875 C25.75 381.203125 25.75 381.203125 28.75 380.203125 C28.75 379.543125 28.75 378.883125 28.75 378.203125 C29.554375 378.0175 30.35875 377.831875 31.1875 377.640625 C36.01252502 375.69368508 39.96477946 372.76964391 43.75 369.203125 C43.75 368.543125 43.75 367.883125 43.75 367.203125 C44.41 367.203125 45.07 367.203125 45.75 367.203125 C45.75 366.543125 45.75 365.883125 45.75 365.203125 C46.41 365.203125 47.07 365.203125 47.75 365.203125 C51.66327696 361.48366601 55.26460715 357.48452179 56.75 352.203125 C57.41 352.203125 58.07 352.203125 58.75 352.203125 C66.82629926 336.45887869 72.09883121 323.13967836 71.97705078 305.12231445 C71.97734283 303.96978683 71.97763489 302.81725922 71.97793579 301.62980652 C71.97655369 297.85859379 71.96104546 294.08758403 71.9453125 290.31640625 C71.94157839 287.68653979 71.9387333 285.05667194 71.93673706 282.42680359 C71.93055097 276.23642449 71.91417955 270.04611705 71.89403808 263.85576934 C71.87158905 256.80124506 71.86066314 249.74671714 71.85064721 242.69216597 C71.82981035 228.19578222 71.79469097 213.69945462 71.75 199.203125 C72.75740234 199.88511963 73.76480469 200.56711426 74.80273438 201.26977539 C76.14962664 202.17611187 77.49663822 203.08227107 78.84375 203.98828125 C79.5047168 204.43643188 80.16568359 204.88458252 80.84667969 205.34631348 C100.16713481 218.31166804 121.61376405 224.203125 144.75 224.203125 C144.75 209.683125 144.75 195.163125 144.75 180.203125 C136.56656397 178.17559314 136.56656397 178.17559314 131.375 177.828125 C123.60013165 177.06561602 116.65443059 173.65534029 109.75 170.203125 C108.76 170.203125 107.77 170.203125 106.75 170.203125 C106.75 169.543125 106.75 168.883125 106.75 168.203125 C105.80125 167.72875 104.8525 167.254375 103.875 166.765625 C87.88182083 157.49281203 80.38085759 142.09569778 74.75 125.203125 C73.76 119.923125 72.77 114.643125 71.75 109.203125 C57.23 109.203125 42.71 109.203125 27.75 109.203125 Z " fill="#220D81" transform="translate(230.25,-0.203125)"/>
<path d="M0 0 C0.33 0 0.66 0 1 0 C1.04645882 10.27524869 1.08193785 20.55047215 1.10362434 30.82580471 C1.11403579 35.59769351 1.12814656 40.36951014 1.15087891 45.14135742 C1.17270169 49.75142686 1.18458845 54.36142713 1.18975449 58.97154427 C1.19343336 60.72529246 1.20061707 62.47903712 1.21146011 64.23275566 C1.34321337 86.43679935 1.34321337 86.43679935 -2.57345581 90.72117615 C-3.04421539 91.14318802 -3.51497498 91.56519989 -4 92 C-4.66 91.67 -5.32 91.34 -6 91 C-5.505 90.01 -5.505 90.01 -5 89 C-4.34 89.33 -3.68 89.66 -3 90 C-1.69091664 83.64159511 -0.84685261 77.56793923 -0.79467773 71.06689453 C-0.78477814 70.2954863 -0.77487854 69.52407806 -0.76467896 68.72929382 C-0.73326686 66.19716386 -0.70838739 63.66501518 -0.68359375 61.1328125 C-0.66300667 59.37018363 -0.64200975 57.60755951 -0.62062073 55.84494019 C-0.56558117 51.21887059 -0.51609243 46.59275779 -0.46777344 41.96661377 C-0.41742567 37.2407245 -0.36180908 32.51489752 -0.30664062 27.7890625 C-0.19928082 18.52609496 -0.09778713 9.2630732 0 0 Z " fill="#857CB2" transform="translate(256,232)"/>
<path d="M0 0 C0.66 0 1.32 0 2 0 C3.12752649 2.22791998 4.25208139 4.45725887 5.375 6.6875 C5.69210938 7.31333984 6.00921875 7.93917969 6.3359375 8.58398438 C8.05472081 12.00364701 9.64469217 15.42007074 11 19 C8.525 18.01 8.525 18.01 6 17 C6 16.01 6 15.02 6 14 C3.03 13.505 3.03 13.505 0 13 C-2.21474076 7.95531271 -1.85072153 5.14089313 0 0 Z " fill="#28167F" transform="translate(131,337)"/>
<path d="M0 0 C-0.33 2.31 -0.66 4.62 -1 7 C-1.99 7.33 -2.98 7.66 -4 8 C-4.33 6.68 -4.66 5.36 -5 4 C-7.91517292 5.07401108 -9.77810176 5.77810176 -12 8 C-14.26274788 7.64644564 -15.95088852 7.02455574 -18 6 C-15.9463858 4.79429093 -13.88444845 3.61093359 -11.8125 2.4375 C-11.23435547 2.09525391 -10.65621094 1.75300781 -10.06054688 1.40039062 C-6.31232493 -0.6960725 -4.11315564 -1.41752821 0 0 Z " fill="#2F1E83" transform="translate(144,24)"/>
<path d="M0 0 C0.66 0 1.32 0 2 0 C2 0.99 2 1.98 2 3 C1.01 3 0.02 3 -1 3 C-1.0825 3.886875 -1.165 4.77375 -1.25 5.6875 C-2.104142 9.4599605 -3.28147562 11.28147562 -6 14 C-6.99 14 -7.98 14 -9 14 C-9.66 15.65 -10.32 17.3 -11 19 C-12.32 19 -13.64 19 -15 19 C-15 18.34 -15 17.68 -15 17 C-14.34 17 -13.68 17 -13 17 C-12.731875 16.195625 -12.46375 15.39125 -12.1875 14.5625 C-11.5996875 13.2940625 -11.5996875 13.2940625 -11 12 C-10.01 11.67 -9.02 11.34 -8 11 C-6.89163577 9.11683841 -6.89163577 9.11683841 -6 7 C-5.34 6.01 -4.68 5.02 -4 4 C-3.34 4 -2.68 4 -2 4 C-2 3.34 -2 2.68 -2 2 C-1.34 2 -0.68 2 0 2 C0 1.34 0 0.68 0 0 Z " fill="#4A3893" transform="translate(67,76)"/>
<path d="M0 0 C0.33 0.66 0.66 1.32 1 2 C1.99 2.33 2.98 2.66 4 3 C4 3.66 4 4.32 4 5 C5.32 5.66 6.64 6.32 8 7 C7.67 8.32 7.34 9.64 7 11 C7.94875 11.268125 8.8975 11.53625 9.875 11.8125 C13 13 13 13 15 16 C14.67 16.99 14.34 17.98 14 19 C9.97067848 16.89171473 7.81491136 14.77892233 5.3125 11 C4.73113281 10.13375 4.14976562 9.2675 3.55078125 8.375 C3.03902344 7.59125 2.52726562 6.8075 2 6 C1.34 5.01 0.68 4.02 0 3 C0 2.01 0 1.02 0 0 Z " fill="#4B3E8E" transform="translate(311,140)"/>
<path d="M0 0 C0.66 0.33 1.32 0.66 2 1 C0.86314577 4.41056269 -0.15331969 5.19934165 -2.875 7.4375 C-5.10639842 9.27778615 -6.9162724 10.8860263 -8.6328125 13.22265625 C-9.08398438 13.80917969 -9.53515625 14.39570312 -10 15 C-10.66 15 -11.32 15 -12 15 C-12.33 14.34 -12.66 13.68 -13 13 C-13.66 12.67 -14.32 12.34 -15 12 C-13.54634731 10.82750647 -12.08692581 9.66216184 -10.625 8.5 C-9.40683594 7.52546875 -9.40683594 7.52546875 -8.1640625 6.53125 C-6 5 -6 5 -4 5 C-4 4.34 -4 3.68 -4 3 C-2 1.375 -2 1.375 0 0 Z " fill="#43358D" transform="translate(102,45)"/>
<path d="M0 0 C1.32 0.33 2.64 0.66 4 1 C3.01 1.33 2.02 1.66 1 2 C1 2.66 1 3.32 1 4 C0.34 4 -0.32 4 -1 4 C-1 4.66 -1 5.32 -1 6 C-1.66 6 -2.32 6 -3 6 C-3 6.66 -3 7.32 -3 8 C-3.66 8 -4.32 8 -5 8 C-5 8.66 -5 9.32 -5 10 C-5.66 10 -6.32 10 -7 10 C-7 10.66 -7 11.32 -7 12 C-7.66 12 -8.32 12 -9 12 C-9 12.66 -9 13.32 -9 14 C-9.66 13.67 -10.32 13.34 -11 13 C-10.67 12.01 -10.34 11.02 -10 10 C-9.34 10 -8.68 10 -8 10 C-8 9.01 -8 8.02 -8 7 C-2.65116279 2 -2.65116279 2 0 2 C0 1.34 0 0.68 0 0 Z " fill="#62569B" transform="translate(425,427)"/>
<path d="M0 0 C3.11799003 0.75035741 6.18070403 1.63363411 9.25 2.5625 C10.14203125 2.83191406 11.0340625 3.10132813 11.953125 3.37890625 C12.62859375 3.58386719 13.3040625 3.78882813 14 4 C14 4.66 14 5.32 14 6 C10.49595163 7.16801612 8.58912879 6.59818813 5 6 C4.01 6.33 3.02 6.66 2 7 C1.01 5.68 0.02 4.36 -1 3 C-0.34 3 0.32 3 1 3 C1.33 2.34 1.66 1.68 2 1 C1.34 0.67 0.68 0.34 0 0 Z " fill="#362782" transform="translate(177,384)"/>
<path d="M0 0 C0.66 0 1.32 0 2 0 C3 6.75 3 6.75 3 9 C3.99 9.33 4.98 9.66 6 10 C5.67 11.32 5.34 12.64 5 14 C1.78397182 11.63029503 -0.64124592 9.82921605 -2 6 C-2 5.01 -2 4.02 -2 3 C-1.01 3 -0.02 3 1 3 C0.67 2.01 0.34 1.02 0 0 Z " fill="#4A3C93" transform="translate(179,322)"/>
<path d="M0 0 C2.31 0.66 4.62 1.32 7 2 C6.79375 2.7425 6.5875 3.485 6.375 4.25 C5.94941561 7.37095218 6.30415578 8.41160619 8 11 C8.66 11.66 9.32 12.32 10 13 C9.67 13.99 9.34 14.98 9 16 C6 12.375 6 12.375 6 9 C5.34 9 4.68 9 4 9 C0 2.25 0 2.25 0 0 Z " fill="#6859A5" transform="translate(31,374)"/>
<path d="M0 0 C1.65 0.33 3.3 0.66 5 1 C4.68991116 2.60463449 4.37683713 4.20869231 4.0625 5.8125 C3.88847656 6.70582031 3.71445312 7.59914063 3.53515625 8.51953125 C3 11 3 11 2 14 C1.34 14 0.68 14 0 14 C0.20625 12.7625 0.4125 11.525 0.625 10.25 C1.07668414 6.79522672 0.85824036 5.01964058 -1 2 C-0.67 1.34 -0.34 0.68 0 0 Z " fill="#473892" transform="translate(490,307)"/>
<path d="M0 0 C1.98 0.66 3.96 1.32 6 2 C5.34 5.3 4.68 8.6 4 12 C2.09681116 9.14521674 1.5380901 7.58058692 0.875 4.3125 C0.70742188 3.50425781 0.53984375 2.69601563 0.3671875 1.86328125 C0.24601562 1.24839844 0.12484375 0.63351563 0 0 Z " fill="#493A93" transform="translate(304,122)"/>
<path d="M0 0 C-0.33 0.99 -0.66 1.98 -1 3 C-2.98 3 -4.96 3 -7 3 C-7.33 3.66 -7.66 4.32 -8 5 C-10.31 4.34 -12.62 3.68 -15 3 C-15 2.67 -15 2.34 -15 2 C-9.77487721 0.53329887 -5.4185766 -0.22577402 0 0 Z " fill="#44358C" transform="translate(188,7)"/>
<path d="M0 0 C0.66 0.99 1.32 1.98 2 3 C0.38405168 5.04119788 -1.2856382 7.04072937 -3 9 C-3.66 9 -4.32 9 -5 9 C-5 9.99 -5 10.98 -5 12 C-5.66 12 -6.32 12 -7 12 C-7 12.99 -7 13.98 -7 15 C-7.66 15 -8.32 15 -9 15 C-9.33 15.66 -9.66 16.32 -10 17 C-10 16.01 -10 15.02 -10 14 C-9.34 14 -8.68 14 -8 14 C-8 13.01 -8 12.02 -8 11 C-7.34 11 -6.68 11 -6 11 C-5.83177734 10.12601563 -5.83177734 10.12601563 -5.66015625 9.234375 C-4.93999124 6.79689343 -3.95620605 5.2749414 -2.4375 3.25 C-1.98246094 2.63640625 -1.52742188 2.0228125 -1.05859375 1.390625 C-0.70925781 0.93171875 -0.35992187 0.4728125 0 0 Z " fill="#695DA2" transform="translate(43,106)"/>
<path d="M0 0 C0.33 0.66 0.66 1.32 1 2 C-0.90454371 6.02070339 -3.2434896 8.61782267 -7 11 C-9.3125 10.75 -9.3125 10.75 -11 10 C-10.01 9.67 -9.02 9.34 -8 9 C-8 8.34 -8 7.68 -8 7 C-7.34 7 -6.68 7 -6 7 C-6 6.34 -6 5.68 -6 5 C-5.34 5 -4.68 5 -4 5 C-4 4.34 -4 3.68 -4 3 C-2 1.375 -2 1.375 0 0 Z " fill="#5A4D9B" transform="translate(86,58)"/>
<path d="M0 0 C2.15178156 2.76387192 3.98370421 5.56533069 5.6875 8.625 C6.34298828 9.78902344 6.34298828 9.78902344 7.01171875 10.9765625 C8 13 8 13 8 15 C5.5625 14.25 5.5625 14.25 3 13 C2.25 11.25 2.25 11.25 2 9 C1.814375 7.9275 1.62875 6.855 1.4375 5.75 C1.293125 4.8425 1.14875 3.935 1 3 C0.34 3 -0.32 3 -1 3 C-0.67 2.01 -0.34 1.02 0 0 Z " fill="#63549D" transform="translate(134,341)"/>
<path d="M0 0 C3.37503669 1.1858237 5.64722731 2.27573689 8 5 C7.4225 4.773125 6.845 4.54625 6.25 4.3125 C3.88518244 3.71884554 3.88518244 3.71884554 1.9375 5.5 C0.9784375 6.2425 0.9784375 6.2425 0 7 C-0.99 6.67 -1.98 6.34 -3 6 C-2.67 4.68 -2.34 3.36 -2 2 C-1.34 2 -0.68 2 0 2 C0 1.34 0 0.68 0 0 Z " fill="#413292" transform="translate(387,39)"/>
<path d="M0 0 C9.39473684 -0.18421053 9.39473684 -0.18421053 14 1 C14.763125 1.185625 15.52625 1.37125 16.3125 1.5625 C16.869375 1.706875 17.42625 1.85125 18 2 C18 2.99 18 3.98 18 5 C11.9490696 3.83445193 5.96533774 2.54656904 0 1 C0 0.67 0 0.34 0 0 Z " fill="#5B4D9C" transform="translate(178,491)"/>
<path d="M0 0 C0.66 0 1.32 0 2 0 C2.33 1.32 2.66 2.64 3 4 C2.34 4 1.68 4 1 4 C0.7525 4.7425 0.505 5.485 0.25 6.25 C-1.09147301 9.20124062 -2.60905526 10.84814974 -5 13 C-5 11.02 -5 9.04 -5 7 C-4.0409375 6.6596875 -4.0409375 6.6596875 -3.0625 6.3125 C-0.72806339 5.14749104 -0.72806339 5.14749104 -0.25 2.375 C-0.1675 1.59125 -0.085 0.8075 0 0 Z " fill="#4E4093" transform="translate(447,400)"/>
<path d="M0 0 C0.66 0.33 1.32 0.66 2 1 C2.33 1.99 2.66 2.98 3 4 C2.01 4 1.02 4 0 4 C-0.061875 4.78375 -0.12375 5.5675 -0.1875 6.375 C-0.455625 7.24125 -0.72375 8.1075 -1 9 C-3.5625 10.3125 -3.5625 10.3125 -6 11 C-5.649375 10.38125 -5.29875 9.7625 -4.9375 9.125 C-4.628125 8.42375 -4.31875 7.7225 -4 7 C-4.33 6.34 -4.66 5.68 -5 5 C-4.34 5 -3.68 5 -3 5 C-3 4.34 -3 3.68 -3 3 C-2.34 3 -1.68 3 -1 3 C-0.67 2.01 -0.34 1.02 0 0 Z " fill="#504194" transform="translate(279,362)"/>
<path d="M0 0 C3.63 1.32 7.26 2.64 11 4 C6.66437185 6.16781407 5.50491 6.27312674 1 5 C0.34 4.01 -0.32 3.02 -1 2 C-0.67 1.34 -0.34 0.68 0 0 Z " fill="#3E2E8C" transform="translate(345,17)"/>
<path d="M0 0 C1 3 1 3 0.4375 5.5 C-1.45183345 8.7857973 -3.55947594 9.57891398 -7 11 C-5.5140084 6.40693504 -3.14985318 3.56430755 0 0 Z " fill="#5B4E98" transform="translate(51,95)"/>
<path d="M0 0 C0.66 0 1.32 0 2 0 C2 0.99 2 1.98 2 3 C1.01 3 0.02 3 -1 3 C-1.144375 3.969375 -1.28875 4.93875 -1.4375 5.9375 C-2 9 -2 9 -3 10 C-4.66617115 10.04063832 -6.33388095 10.042721 -8 10 C-6.7260411 7.96166576 -5.38938077 5.96147874 -4 4 C-3.34 4 -2.68 4 -2 4 C-2 3.34 -2 2.68 -2 2 C-1.34 2 -0.68 2 0 2 C0 1.34 0 0.68 0 0 Z " fill="#60549C" transform="translate(67,76)"/>
<path d="M0 0 C0.33 0 0.66 0 1 0 C1.10477512 5.78591511 0.99250545 11.29309366 0 17 C-0.66 17 -1.32 17 -2 17 C-2.25287193 10.93107371 -1.69832609 5.83799592 0 0 Z " fill="#6F63AC" transform="translate(499,277)"/>
<path d="M0 0 C0 1.32 0 2.64 0 4 C-2.97 4 -5.94 4 -9 4 C-8.67 3.01 -8.34 2.02 -8 1 C-5.23735711 0.40267181 -2.83967231 0 0 0 Z " fill="#483896" transform="translate(225,496)"/>
<path d="M0 0 C0.66 0.99 1.32 1.98 2 3 C-3.28571429 9.42857143 -3.28571429 9.42857143 -6 12 C-6.66 11.67 -7.32 11.34 -8 11 C-7.05016642 9.49460339 -6.08988109 7.99579653 -5.125 6.5 C-4.32449219 5.24703125 -4.32449219 5.24703125 -3.5078125 3.96875 C-2.76144531 2.99421875 -2.76144531 2.99421875 -2 2 C-1.34 2 -0.68 2 0 2 C0 1.34 0 0.68 0 0 Z " fill="#655AA1" transform="translate(289,350)"/>
<path d="M0 0 C2.0625 0.4375 2.0625 0.4375 4 1 C4 2.65 4 4.3 4 6 C3.01 6 2.02 6 1 6 C1 5.34 1 4.68 1 4 C0.030625 3.87625 -0.93875 3.7525 -1.9375 3.625 C-2.948125 3.41875 -3.95875 3.2125 -5 3 C-5.33 2.34 -5.66 1.68 -6 1 C-4.7934375 1.0309375 -4.7934375 1.0309375 -3.5625 1.0625 C-1.06645115 1.29633621 -1.06645115 1.29633621 0 0 Z " fill="#1E0B76" transform="translate(195,337)"/>
<path d="M0 0 C1.98 0.66 3.96 1.32 6 2 C6.33 3.65 6.66 5.3 7 7 C4.08482708 5.92598892 2.22189824 5.22189824 0 3 C0 2.01 0 1.02 0 0 Z " fill="#463685" transform="translate(319,152)"/>
<path d="M0 0 C2 4 2 4 2.5 6.1875 C2.665 6.785625 2.83 7.38375 3 8 C3.66 8.33 4.32 8.66 5 9 C4.01 10.98 3.02 12.96 2 15 C1.67 15 1.34 15 1 15 C0.67 10.05 0.34 5.1 0 0 Z " fill="#1A0A70" transform="translate(0,270)"/>
<path d="M0 0 C2.64 1.98 5.28 3.96 8 6 C5 6 5 6 3 5 C3.33 5.99 3.66 6.98 4 8 C3.01 8.495 3.01 8.495 2 9 C0 7 0 7 -0.125 3.375 C-0.08375 2.26125 -0.0425 1.1475 0 0 Z " fill="#5E4FA3" transform="translate(408,53)"/>
<path d="M0 0 C0.99 0.495 0.99 0.495 2 1 C2.36548445 2.32488113 2.6937566 3.66018514 3 5 C3.37125 5.70125 3.7425 6.4025 4.125 7.125 C4.41375 7.74375 4.7025 8.3625 5 9 C4.67 9.66 4.34 10.32 4 11 C3.34 11 2.68 11 2 11 C2 10.01 2 9.02 2 8 C1.34 8 0.68 8 0 8 C0 5.36 0 2.72 0 0 Z " fill="#1C0A75" transform="translate(2,286)"/>
<path d="M0 0 C2.4375 0.8125 2.4375 0.8125 5 2 C5.33 2.99 5.66 3.98 6 5 C6.99 5 7.98 5 9 5 C9 5.66 9 6.32 9 7 C9.99 7 10.98 7 12 7 C11.67 7.66 11.34 8.32 11 9 C9.02 8.01 7.04 7.02 5 6 C5 5.34 5 4.68 5 4 C4.360625 3.896875 3.72125 3.79375 3.0625 3.6875 C2.381875 3.460625 1.70125 3.23375 1 3 C0.67 2.01 0.34 1.02 0 0 Z " fill="#6C60A3" transform="translate(112,459)"/>
<path d="M0 0 C2.64 0.66 5.28 1.32 8 2 C7.67 2.66 7.34 3.32 7 4 C7.66 4.66 8.32 5.32 9 6 C9 6.66 9 7.32 9 8 C8.34 8 7.68 8 7 8 C7 7.34 7 6.68 7 6 C6.34 6 5.68 6 5 6 C5 5.34 5 4.68 5 4 C4.360625 3.71125 3.72125 3.4225 3.0625 3.125 C1 2 1 2 0 0 Z " fill="#6F64A5" transform="translate(71,427)"/>
<path d="M0 0 C3.63 1.98 7.26 3.96 11 6 C11 6.33 11 6.66 11 7 C8.3125 7.3125 8.3125 7.3125 5 7 C2.125 4.625 2.125 4.625 0 2 C0 1.34 0 0.68 0 0 Z " fill="#4B3E8D" transform="translate(310,204)"/>
<path d="M0 0 C3.93673644 1.31224548 6.22719294 2.91910327 9 6 C6.69 5.67 4.38 5.34 2 5 C2 5.66 2 6.32 2 7 C1.34 7 0.68 7 0 7 C0.2784375 6.1028125 0.2784375 6.1028125 0.5625 5.1875 C1.22093687 2.83591238 1.22093687 2.83591238 0 0 Z " fill="#5A4F9B" transform="translate(378,33)"/>
<path d="M0 0 C0.7734375 0.61875 0.7734375 0.61875 1.5625 1.25 C-0.6875 3.3125 -0.6875 3.3125 -3.4375 5.25 C-5.86888705 5.0415954 -7.26600911 4.33574545 -9.4375 3.25 C-3.0375 -0.93461538 -3.0375 -0.93461538 0 0 Z " fill="#504298" transform="translate(135.4375,26.75)"/>
<path d="M0 0 C1.98 0 3.96 0 6 0 C6.33 0.66 6.66 1.32 7 2 C5 5 5 5 2.875 5.6875 C2.25625 5.790625 1.6375 5.89375 1 6 C1.66 4.35 2.32 2.7 3 1 C1.68 1.33 0.36 1.66 -1 2 C-0.67 1.34 -0.34 0.68 0 0 Z " fill="#37268B" transform="translate(154,16)"/>
<path d="M0 0 C0.66 0 1.32 0 2 0 C2.33 1.65 2.66 3.3 3 5 C1.02 5.99 1.02 5.99 -1 7 C-1 7.66 -1 8.32 -1 9 C-1.66 8.67 -2.32 8.34 -3 8 C-2.6875 6.0625 -2.6875 6.0625 -2 4 C-1.01 3.67 -0.02 3.34 1 3 C0.67 2.01 0.34 1.02 0 0 Z " fill="#4F409A" transform="translate(411,437)"/>
<path d="M0 0 C0.66 0 1.32 0 2 0 C2.33 1.98 2.66 3.96 3 6 C1.35 6.66 -0.3 7.32 -2 8 C-1.125 1.125 -1.125 1.125 0 0 Z " fill="#3C2E87" transform="translate(17,154)"/>
<path d="M0 0 C0.66 0.33 1.32 0.66 2 1 C0.77065985 4.68802044 -0.93859378 5.72356973 -4 8 C-4.66 7.67 -5.32 7.34 -6 7 C-6 6.34 -6 5.68 -6 5 C-5.34 5 -4.68 5 -4 5 C-4 4.34 -4 3.68 -4 3 C-2 1.375 -2 1.375 0 0 Z " fill="#4F408F" transform="translate(102,45)"/>
<path d="M0 0 C2.4375 0.8125 2.4375 0.8125 5 2 C5.33 2.99 5.66 3.98 6 5 C6.66 5.33 7.32 5.66 8 6 C8.625 8.0625 8.625 8.0625 9 10 C8.34 10 7.68 10 7 10 C7 9.34 7 8.68 7 8 C6.34 8 5.68 8 5 8 C0 2.52380952 0 2.52380952 0 0 Z " fill="#776CAB" transform="translate(56,410)"/>
<path d="M0 0 C0.33 0 0.66 0 1 0 C1 3.63 1 7.26 1 11 C-0.98 11.99 -0.98 11.99 -3 13 C-2.01 8.71 -1.02 4.42 0 0 Z " fill="#5C5198" transform="translate(300,322)"/>
<path d="M0 0 C0.33 0 0.66 0 1 0 C1.33 3.96 1.66 7.92 2 12 C1.01 12.495 1.01 12.495 0 13 C-0.19551338 11.39679026 -0.38111983 9.79237014 -0.5625 8.1875 C-0.71912109 6.84751953 -0.71912109 6.84751953 -0.87890625 5.48046875 C-1 3 -1 3 0 0 Z " fill="#4F4391" transform="translate(125,307)"/>
<path d="M0 0 C2.475 0.495 2.475 0.495 5 1 C5.33 3.31 5.66 5.62 6 8 C1.125 3.375 1.125 3.375 0 0 Z " fill="#7065A3" transform="translate(42,392)"/>
<path d="M0 0 C3.5786304 1.65167557 6.74820188 3.78286492 10 6 C7 7 7 7 4.4375 5.8125 C1.97307714 3.97998043 1.07175875 2.82554579 0 0 Z " fill="#564891" transform="translate(155,370)"/>
<path d="M0 0 C0.33 0.66 0.66 1.32 1 2 C1.99 2 2.98 2 4 2 C4 5.3 4 8.6 4 12 C2.09681116 9.14521674 1.5380901 7.58058692 0.875 4.3125 C0.70742187 3.50425781 0.53984375 2.69601562 0.3671875 1.86328125 C0.24601563 1.24839844 0.12484375 0.63351562 0 0 Z " fill="#695DA3" transform="translate(11,329)"/>
<path d="M0 0 C0.33 0 0.66 0 1 0 C1.27429625 5.39449293 1.36055646 8.51925805 -2 13 C-2.99 12.67 -3.98 12.34 -5 12 C-4.67 11.34 -4.34 10.68 -4 10 C-3.34 10.33 -2.68 10.66 -2 11 C-1.24758891 7.34543185 -0.59950296 3.68266103 0 0 Z " fill="#594A97" transform="translate(255,311)"/>
<path d="M0 0 C2.95409701 1.37154504 5.44008376 2.98863724 8 5 C6.68 5.33 5.36 5.66 4 6 C4 5.34 4 4.68 4 4 C2.68 4.33 1.36 4.66 0 5 C0 3.35 0 1.7 0 0 Z " fill="#50438D" transform="translate(302,199)"/>
<path d="M0 0 C0.33 0.99 0.66 1.98 1 3 C-1.95183101 5.95183101 -4.95511947 6.08663988 -9 7 C-7.06604999 4.09907498 -6.28812528 3.37695617 -3.375 1.8125 C-2.26125 1.214375 -1.1475 0.61625 0 0 Z " fill="#6458A1" transform="translate(113,38)"/>
<path d="M0 0 C0 0.99 0 1.98 0 3 C-4.95 4.485 -4.95 4.485 -10 6 C-9.67 5.34 -9.34 4.68 -9 4 C-8.01 4 -7.02 4 -6 4 C-6 3.34 -6 2.68 -6 2 C-2.25 0 -2.25 0 0 0 Z " fill="#7163A9" transform="translate(265,376)"/>
<path d="M0 0 C0.33 0 0.66 0 1 0 C1.19294408 4.82360189 0.75747614 8.49646738 -1 13 C-1.33 13 -1.66 13 -2 13 C-2.16682272 8.07872966 -2.24828052 4.49656104 0 0 Z " fill="#473A8B" transform="translate(129,273)"/>
<path d="M0 0 C2.97 0 5.94 0 9 0 C9 1.65 9 3.3 9 5 C8.01 5 7.02 5 6 5 C5.67 4.01 5.34 3.02 5 2 C3.35 1.67 1.7 1.34 0 1 C0 0.67 0 0.34 0 0 Z " fill="#1D0C72" transform="translate(212,1)"/>
<path d="M0 0 C0.66 0.66 1.32 1.32 2 2 C-5.625 3.25 -5.625 3.25 -9 1 C-5.98675805 -0.50662097 -3.31713623 -0.17770373 0 0 Z " fill="#554992" transform="translate(212,1)"/>
<path d="M0 0 C0.99 0 1.98 0 3 0 C3 1.98 3 3.96 3 6 C2.01 6.33 1.02 6.66 0 7 C0 4.69 0 2.38 0 0 Z " fill="#42348B" transform="translate(475,353)"/>
<path d="M0 0 C0.99 0.99 1.98 1.98 3 3 C2.1875 4.9375 2.1875 4.9375 1 7 C0.01 7.33 -0.98 7.66 -2 8 C-1.47731534 5.23723823 -0.89130413 2.6739124 0 0 Z " fill="#594C9C" transform="translate(175,284)"/>
<path d="M0 0 C0.33 0.66 0.66 1.32 1 2 C2.32 2 3.64 2 5 2 C4.67 3.32 4.34 4.64 4 6 C2.0625 5.1875 2.0625 5.1875 0 4 C-0.33 3.01 -0.66 2.02 -1 1 C-0.67 0.67 -0.34 0.34 0 0 Z " fill="#352382" transform="translate(437,409)"/>
<path d="M0 0 C1.98 0.495 1.98 0.495 4 1 C4 2.65 4 4.3 4 6 C3.01 6 2.02 6 1 6 C0.34 5.01 -0.32 4.02 -1 3 C-0.34 3 0.32 3 1 3 C1.33 2.34 1.66 1.68 2 1 C1.34 0.67 0.68 0.34 0 0 Z " fill="#3F2E94" transform="translate(177,384)"/>
<path d="M0 0 C0.99 0 1.98 0 3 0 C3 0.66 3 1.32 3 2 C2.34 2 1.68 2 1 2 C0.71125 2.78375 0.4225 3.5675 0.125 4.375 C-1 7 -1 7 -3 9 C-2.67 6.69 -2.34 4.38 -2 2 C-1.34 2 -0.68 2 0 2 C0 1.34 0 0.68 0 0 Z " fill="#685BA4" transform="translate(462,381)"/>
<path d="M0 0 C1 2 1 2 0.0625 5.125 C-0.288125 6.07375 -0.63875 7.0225 -1 8 C-1.99 8 -2.98 8 -4 8 C-2.68 5.36 -1.36 2.72 0 0 Z " fill="#5D519C" transform="translate(31,125)"/>
<path d="M0 0 C0.66 0.33 1.32 0.66 2 1 C2 1.99 2 2.98 2 4 C1.21625 3.95875 0.4325 3.9175 -0.375 3.875 C-3.16116119 3.71271266 -3.16116119 3.71271266 -5 6 C-5.66 5.34 -6.32 4.68 -7 4 C-1.7265625 0.77734375 -1.7265625 0.77734375 0 0 Z " fill="#7A6FB1" transform="translate(124,31)"/>
<path d="M0 0 C2.64 0 5.28 0 8 0 C5.63707344 2.52588702 4.33537489 3.88820837 1 5 C1 4.34 1 3.68 1 3 C1.66 3 2.32 3 3 3 C3 2.34 3 1.68 3 1 C2.01 0.67 1.02 0.34 0 0 Z " fill="#7667AB" transform="translate(394,451)"/>
<path d="M0 0 C0.66 0.99 1.32 1.98 2 3 C1.34 4.32 0.68 5.64 0 7 C0 6.34 0 5.68 0 5 C-0.66 5 -1.32 5 -2 5 C-2.33 3.68 -2.66 2.36 -3 1 C-2.01 0.67 -1.02 0.34 0 0 Z " fill="#43358C" transform="translate(67,417)"/>
<path d="M0 0 C0.66 0 1.32 0 2 0 C2.33 1.32 2.66 2.64 3 4 C-1.625 6.125 -1.625 6.125 -5 5 C-4.67 4.34 -4.34 3.68 -4 3 C-2.68 3 -1.36 3 0 3 C0 2.01 0 1.02 0 0 Z " fill="#1E0B75" transform="translate(265,376)"/>
<path d="M0 0 C1.485 0.99 1.485 0.99 3 2 C2.01 3.98 1.02 5.96 0 8 C-0.33 8 -0.66 8 -1 8 C-1.04241723 5.66705225 -1.04092937 3.33297433 -1 1 C-0.67 0.67 -0.34 0.34 0 0 Z " fill="#5B4F9C" transform="translate(467,371)"/>
<path d="M0 0 C1.32 0.33 2.64 0.66 4 1 C4 3.64 4 6.28 4 9 C1.49701566 6.06171403 0.53069061 3.82097239 0 0 Z " fill="#6B5EA3" transform="translate(15,341)"/>
<path d="M0 0 C0.99 0.33 1.98 0.66 3 1 C1.625 3 1.625 3 0 5 C-0.66 5 -1.32 5 -2 5 C-2.33 5.66 -2.66 6.32 -3 7 C-3 5.35 -3 3.7 -3 2 C-2.01 2 -1.02 2 0 2 C0 1.34 0 0.68 0 0 Z " fill="#605598" transform="translate(144,248)"/>
<path d="M0 0 C0.66 0.33 1.32 0.66 2 1 C2 3.64 2 6.28 2 9 C1.67 9 1.34 9 1 9 C1 7.02 1 5.04 1 3 C-0.32 3 -1.64 3 -3 3 C-3 2.34 -3 1.68 -3 1 C-2.01 0.67 -1.02 0.34 0 0 Z " fill="#4D3F86" transform="translate(374,177)"/>
<path d="M0 0 C0.33 0.66 0.66 1.32 1 2 C-0.1875 4.625 -0.1875 4.625 -2 7 C-3.32 7 -4.64 7 -6 7 C-6 6.34 -6 5.68 -6 5 C-5.34 5 -4.68 5 -4 5 C-4 4.34 -4 3.68 -4 3 C-3.01 3 -2.02 3 -1 3 C-0.67 2.01 -0.34 1.02 0 0 Z " fill="#40328A" transform="translate(58,88)"/>
<path d="M0 0 C1.9375 0.3125 1.9375 0.3125 4 1 C4.33 1.99 4.66 2.98 5 4 C3.02 4.33 1.04 4.66 -1 5 C-0.67 3.35 -0.34 1.7 0 0 Z " fill="#4E3D92" transform="translate(418,63)"/>
</svg>
